<svg fill="none" height="68" viewBox="0 0 68 68" width="68" xmlns="http://www.w3.org/2000/svg"><circle cx="34" cy="34" fill="#00aad2" r="34"/><g stroke="#fff" stroke-width="2"><path d="m21.9273 28-3.9253 4.1158c-2.232 2.3403-2.2075 6.0285.0553 8.3391l6.5039 6.6411c2.4453 2.4968 5.8354 3.904 9.3302 3.904 7.732 0 14.1086-6.268 14.1086-14v-8.21"/><path d="m22 35v-10.5c0-1.933 1.567-3.5 3.5-3.5s3.5 1.567 3.5 3.5v2.5837"/><path d="m29 28v-6.5c0-1.933 1.567-3.5 3.5-3.5s3.5 1.567 3.5 3.5v2.4571"/><path d="m36 28v-5c0-1.6569 1.3431-3 3-3s3 1.3431 3 3v2.7917"/><path d="m42 27.9712v-1.9712c0-1.6569 1.3431-3 3-3s3 1.3431 3 3v3"/></g></svg>