<svg fill="none" height="68" viewBox="0 0 68 68" width="68" xmlns="http://www.w3.org/2000/svg"><circle cx="34" cy="34" fill="#00aad2" r="34"/><g stroke="#fff" stroke-width="2"><path d="m49.0021 30.7899v8.2101c0 7.732-6.3766 14-14.1086 14-3.4948 0-6.8849-1.4072-9.3302-3.9041l-10.5612-10.7839c-3.5007-3.812-2.5036-6.3119-.502-7.812 2.6685-2 6.5001 1.29 8.5004 3.5"/><path d="m23.0039 37v-18.5c0-1.933 1.567-3.5 3.5-3.5s3.5 1.567 3.5 3.5v10.5837"/><path d="m30.0039 30v-14.5c0-1.933 1.567-3.5 3.5-3.5s3.5 1.567 3.5 3.5v10.4571"/><path d="m37.0039 30v-13c0-1.6569 1.3432-3 3-3 1.6569 0 3 1.3431 3 3v10.7917"/><path d="m43.0039 29.9712v-9.9712c0-1.6569 1.3432-3 3-3 1.6569 0 3 1.3431 3 3v11"/></g></svg>