<?xml version="1.0" encoding="utf-8"?>
<!-- Generator: Adobe Illustrator 16.0.0, SVG Export Plug-In . SVG Version: 6.00 Build 0)  -->
<!DOCTYPE svg PUBLIC "-//W3C//DTD SVG 1.1//EN" "http://www.w3.org/Graphics/SVG/1.1/DTD/svg11.dtd">
<svg version="1.1" id="Слой_1" xmlns="http://www.w3.org/2000/svg" xmlns:xlink="http://www.w3.org/1999/xlink" x="0px" y="0px"
	 width="30px" height="30px" viewBox="0 0 30 30" enable-background="new 0 0 30 30" xml:space="preserve">
<g>
	<path fill="#FFFFFF" d="M25.804,21.958h-2.404v-2.421c0-0.657-0.539-1.206-1.2-1.206c-0.668,0-1.2,0.54-1.2,1.206v2.421h-2.404
		c-0.653,0-1.194,0.541-1.194,1.208c0,0.674,0.534,1.21,1.194,1.21h2.404v2.42c0,0.657,0.538,1.204,1.2,1.204
		c0.668,0,1.2-0.539,1.2-1.204v-2.42h2.404c0.65,0,1.196-0.543,1.196-1.21C27,22.494,26.464,21.958,25.804,21.958z"/>
	<path fill="#FFFFFF" d="M4.19,6.418h21.618C26.454,6.418,27,5.876,27,5.209C27,4.537,26.467,4,25.808,4H4.19
		C3.546,4,3,4.542,3,5.209C3,5.881,3.533,6.418,4.19,6.418z"/>
	<path fill="#FFFFFF" d="M25.808,12.979H4.19C3.546,12.979,3,13.52,3,14.188c0,0.672,0.533,1.209,1.19,1.209h21.618
		c0.646,0,1.192-0.541,1.192-1.209C27,13.516,26.467,12.979,25.808,12.979z"/>
	<path fill="#FFFFFF" d="M13.805,21.958H4.194C3.546,21.958,3,22.499,3,23.166c0,0.674,0.535,1.21,1.194,1.21h9.611
		c0.648,0,1.194-0.543,1.194-1.21C14.999,22.494,14.464,21.958,13.805,21.958z"/>
</g>
</svg>
