<?xml version="1.0" encoding="utf-8"?>
<!-- Generator: Adobe Illustrator 17.1.0, SVG Export Plug-In . SVG Version: 6.00 Build 0)  -->
<!DOCTYPE svg PUBLIC "-//W3C//DTD SVG 1.1//EN" "http://www.w3.org/Graphics/SVG/1.1/DTD/svg11.dtd">
<svg version="1.1" id="Layer_1" xmlns="http://www.w3.org/2000/svg" xmlns:xlink="http://www.w3.org/1999/xlink" x="0px" y="0px"
	 viewBox="0 0 30 23" enable-background="new 0 0 30 23" xml:space="preserve">
<path fill-rule="evenodd" clip-rule="evenodd" fill="#013368" d="M1.5,3h27C29.3,3,30,2.3,30,1.5C30,0.7,29.3,0,28.5,0h-27
	C0.7,0,0,0.7,0,1.5C0,2.3,0.7,3,1.5,3z M28.5,10h-27C0.7,10,0,10.7,0,11.5C0,12.3,0.7,13,1.5,13h27c0.8,0,1.5-0.7,1.5-1.5
	C30,10.7,29.3,10,28.5,10z M28.5,20h-27C0.7,20,0,20.7,0,21.5C0,22.3,0.7,23,1.5,23h27c0.8,0,1.5-0.7,1.5-1.5
	C30,20.7,29.3,20,28.5,20z"/>
</svg>
