<?xml version="1.0" encoding="utf-8"?>
<!-- Generator: Adobe Illustrator 16.0.0, SVG Export Plug-In . SVG Version: 6.00 Build 0)  -->
<!DOCTYPE svg PUBLIC "-//W3C//DTD SVG 1.1//EN" "http://www.w3.org/Graphics/SVG/1.1/DTD/svg11.dtd">
<svg version="1.1" id="Слой_1" xmlns="http://www.w3.org/2000/svg" xmlns:xlink="http://www.w3.org/1999/xlink" x="0px" y="0px"
	 width="30px" height="24px" viewBox="0 0 30 24" enable-background="new 0 0 30 24" xml:space="preserve">
<path fill="#D7D5D5" d="M9.889,13.267l-2.735-0.71c-0.157-0.041-0.317-0.062-0.478-0.062c-0.849,0-1.592,0.57-1.809,1.388
	c-0.041,0.153-0.062,0.314-0.062,0.474v0.71c0,1.027,0.841,1.862,1.875,1.862h2.735h0.012l0,0c1.025,0,1.865-0.829,1.871-1.849
	C11.303,14.224,10.724,13.479,9.889,13.267z M9.86,15.171c-0.048,0.2-0.226,0.34-0.433,0.34H6.68c-0.246,0-0.445-0.198-0.445-0.443
	v-0.712c0-0.244,0.2-0.442,0.445-0.442c0.038,0,0.076,0.006,0.114,0.016l2.738,0.71c0.116,0.027,0.213,0.098,0.275,0.198
	C9.869,14.938,9.888,15.057,9.86,15.171z"/>
<path fill="#D7D5D5" d="M27.858,6.139h-0.58c-0.468,0.01-0.928,0.13-1.339,0.351c-0.47-1.12-1.3-3.002-1.896-3.856
	C22.897,1,21.265,0.547,20.135,0.35c-1.495-0.232-3.021-0.349-4.534-0.349c-0.199,0-0.402,0.002-0.599,0.006
	c-1.708-0.037-3.436,0.075-5.127,0.334C8.745,0.538,7.11,0.989,5.964,2.625C5.519,3.264,4.881,4.562,4.069,6.48
	C3.656,6.261,3.194,6.139,2.722,6.129H2.148C0.967,6.157,0.023,7.098,0,8.274v1.089c0.021,1.013,0.734,1.881,1.715,2.112
	c-0.5,1.007-0.749,2.127-0.722,3.25v7.086c0.002,1.206,0.99,2.188,2.203,2.189h1.924c1.213-0.002,2.201-0.983,2.203-2.189v-0.403
	h15.354v0.403c0.002,1.206,0.989,2.188,2.202,2.189h1.927c1.213-0.002,2.201-0.983,2.203-2.189v-7.066
	c0.026-1.122-0.223-2.244-0.722-3.252c0.988-0.233,1.7-1.108,1.713-2.131V8.272C29.972,7.107,29.032,6.17,27.858,6.139z
	 M26.337,10.844c0,0.153,0.05,0.305,0.143,0.427c0.066,0.087,0.133,0.179,0.193,0.268c0.624,0.951,0.934,2.056,0.895,3.193v7.078
	c0,0.426-0.348,0.771-0.776,0.771h-1.912c-0.429,0-0.776-0.346-0.776-0.771v-1.111c0-0.391-0.32-0.709-0.713-0.709H6.61
	c-0.393,0-0.713,0.318-0.713,0.709v1.111c0,0.426-0.348,0.771-0.776,0.771H3.19c-0.428,0-0.776-0.346-0.776-0.771v-7.09
	c-0.038-1.132,0.272-2.23,0.894-3.178c0.061-0.089,0.126-0.181,0.194-0.27c0.236-0.313,0.172-0.757-0.143-0.992
	C3.237,10.19,3.085,10.14,2.932,10.14H2.848l-0.615-0.01c-0.445,0-0.807-0.359-0.807-0.802V8.319c0-0.416,0.34-0.757,0.758-0.759
	h0.517c0.452,0.025,0.873,0.219,1.189,0.549c0.132,0.122,0.306,0.19,0.487,0.19c0.197,0,0.387-0.082,0.521-0.225
	c0.06-0.062,0.107-0.136,0.14-0.217C5.884,5.77,6.685,4.081,7.128,3.449c0.84-1.189,2.029-1.531,2.969-1.696
	c1.379-0.206,2.785-0.311,4.179-0.311c0.232,0,0.468,0.003,0.705,0.009c1.626-0.04,3.271,0.062,4.876,0.301
	c0.952,0.166,2.151,0.508,2.972,1.696c0.446,0.641,1.246,2.33,2.09,4.409c0.109,0.27,0.369,0.442,0.66,0.442
	c0.092,0,0.182-0.018,0.268-0.052c0.082-0.031,0.156-0.08,0.225-0.144c0.311-0.324,0.729-0.517,1.173-0.543h0.536
	c0.422-0.014,0.776,0.311,0.793,0.729c0,0.01,0,0.02,0,0.029v1.015c0,0.442-0.361,0.802-0.807,0.802H27.05
	C26.656,10.136,26.337,10.454,26.337,10.844z"/>
<path fill="#D7D5D5" d="M23.325,12.496c-0.16,0-0.32,0.019-0.477,0.06l-2.734,0.71c-0.484,0.122-0.893,0.425-1.146,0.852
	c-0.256,0.428-0.328,0.929-0.205,1.409c0.211,0.825,0.957,1.4,1.813,1.4h2.75c1.031,0,1.87-0.835,1.871-1.86v-0.712
	C25.197,13.331,24.358,12.496,23.325,12.496z M23.771,15.063c-0.001,0.245-0.201,0.443-0.445,0.445h-2.738h-0.01
	c-0.239,0-0.439-0.194-0.443-0.434c-0.005-0.186,0.111-0.354,0.283-0.421l2.796-0.726c0.036-0.01,0.075-0.016,0.112-0.016
	c0.246,0,0.445,0.198,0.445,0.442V15.063z"/>
</svg>
