<?xml version="1.0" encoding="utf-8"?>
<!-- Generator: Adobe Illustrator 16.0.0, SVG Export Plug-In . SVG Version: 6.00 Build 0)  -->
<!DOCTYPE svg PUBLIC "-//W3C//DTD SVG 1.1//EN" "http://www.w3.org/Graphics/SVG/1.1/DTD/svg11.dtd">
<svg version="1.1" id="Слой_1" xmlns="http://www.w3.org/2000/svg" xmlns:xlink="http://www.w3.org/1999/xlink" x="0px" y="0px"
	 width="20px" height="20px" viewBox="0 0 20 20" enable-background="new 0 0 20 20" xml:space="preserve">
<path fill="#B9B9B9" d="M19.143,2.829h-4.885l-0.23-1.743C14,0.486,13.484,0,12.885,0H7.114c-0.6,0-1.115,0.486-1.143,1.085
	L5.743,2.829H0.856C0.371,2.829,0,3.2,0,3.686c0,0.485,0.371,0.857,0.857,0.857h1.085l2.172,14.4C4.143,19.544,4.656,20,5.257,20
	h9.456c0.602,0,1.086-0.456,1.145-1.057l2.172-14.4h1.113C19.629,4.543,20,4.171,20,3.686C20,3.2,19.629,2.829,19.143,2.829z
	 M7.599,1.743h4.772l0.143,1.085H7.485L7.599,1.743z M14.229,18.286H5.771L3.686,4.543h12.629L14.229,18.286z"/>
</svg>
