<?xml version="1.0" encoding="utf-8"?>
<!-- Generator: Adobe Illustrator 17.1.0, SVG Export Plug-In . SVG Version: 6.00 Build 0)  -->
<!DOCTYPE svg PUBLIC "-//W3C//DTD SVG 1.1//EN" "http://www.w3.org/Graphics/SVG/1.1/DTD/svg11.dtd">
<svg version="1.1" id="Layer_1" xmlns="http://www.w3.org/2000/svg" xmlns:xlink="http://www.w3.org/1999/xlink" x="0px" y="0px"
	 viewBox="0 0 26 26" enable-background="new 0 0 26 26" xml:space="preserve">
<g>
	<g>
		<path fill="#BABABA" d="M13,0c7.2,0,13,5.8,13,13c0,7.2-5.8,13-13,13C5.8,26,0,20.2,0,13C0,5.8,5.8,0,13,0z M12.3,19l-4.7-4.8
			c-0.8-0.8,0.4-1.9,1.1-1.1l3.2,3.2c0.2,0.2,0.3,0.1,0.3-0.1V7.3c0-0.5,0.4-0.8,0.8-0.8c0.5,0,0.8,0.4,0.8,0.8v8.8
			c0,0.2,0.1,0.3,0.3,0.1l3.2-3.2c0.8-0.8,1.9,0.4,1.1,1.1L13.7,19C13.3,19.4,12.7,19.4,12.3,19z M13,1.6C6.7,1.6,1.6,6.7,1.6,13
			S6.7,24.4,13,24.4c6.3,0,11.4-5.1,11.4-11.4S19.3,1.6,13,1.6z"/>
	</g>
</g>
</svg>
