<?xml version="1.0" encoding="utf-8"?>
<!-- Generator: Adobe Illustrator 16.0.0, SVG Export Plug-In . SVG Version: 6.00 Build 0)  -->
<!DOCTYPE svg PUBLIC "-//W3C//DTD SVG 1.1//EN" "http://www.w3.org/Graphics/SVG/1.1/DTD/svg11.dtd">
<svg version="1.1" id="Слой_1" xmlns="http://www.w3.org/2000/svg" xmlns:xlink="http://www.w3.org/1999/xlink" x="0px" y="0px"
	 width="26px" height="20px" viewBox="0 0 26 20" enable-background="new 0 0 26 20" xml:space="preserve">
<path fill="#BEBEBE" d="M23.967,0H2.033C0.893,0,0,0.895,0,2.037v15.925C0,19.105,0.893,20,2.033,20h21.934
	C25.107,20,26,19.105,26,17.962V2.037C26,0.895,25.107,0,23.967,0z M13,10.243L2.523,1.474h20.954L13,10.243z M1.471,2.536
	l11.043,9.215c0.185,0.188,0.396,0.188,0.486,0.188c0.145,0,0.357-0.06,0.458-0.161L24.53,2.536v15.426
	c0,0.326-0.238,0.564-0.563,0.564H2.033c-0.326,0-0.563-0.238-0.563-0.564V2.536z"/>
</svg>
