<?xml version="1.0" encoding="utf-8"?>
<!-- Generator: Adobe Illustrator 17.1.0, SVG Export Plug-In . SVG Version: 6.00 Build 0)  -->
<!DOCTYPE svg PUBLIC "-//W3C//DTD SVG 1.1//EN" "http://www.w3.org/Graphics/SVG/1.1/DTD/svg11.dtd">
<svg version="1.1" id="Layer_1" xmlns="http://www.w3.org/2000/svg" xmlns:xlink="http://www.w3.org/1999/xlink" x="0px" y="0px"
	 viewBox="0 0 34 34" enable-background="new 0 0 34 34" xml:space="preserve">
<path fill="#FFFFFF" d="M17,30c-1.4,0-2.6-1.2-2.6-2.6v-0.6c0-0.4-0.2-0.7-0.6-0.8l-1-0.4c-0.1,0-0.2-0.1-0.4-0.1
	c-0.2,0-0.5,0.1-0.6,0.3l-0.4,0.4c-0.5,0.5-1.1,0.8-1.8,0.8c-0.7,0-1.3-0.3-1.8-0.7C7.3,25.7,7,25.1,7,24.4c0-0.7,0.3-1.3,0.7-1.8
	l0.4-0.4c0.3-0.3,0.3-0.7,0.2-1L8,20.2c-0.1-0.3-0.5-0.6-0.8-0.6H6.6C5.1,19.6,4,18.4,4,17c0-1.3,0.9-2.4,2.2-2.5l0.2,0h0.8
	c0.4,0,0.7-0.2,0.8-0.6l0.4-0.9c0.2-0.3,0.1-0.7-0.2-1l-0.5-0.4C7.3,11,7,10.3,7,9.6c0-0.7,0.3-1.3,0.7-1.8c0.5-0.5,1.1-0.8,1.8-0.8
	c0.7,0,1.3,0.3,1.8,0.8l0.4,0.5c0.2,0.2,0.4,0.3,0.6,0.3c0.1,0,0.3,0,0.4-0.1l0.9-0.4c0.3-0.1,0.6-0.5,0.6-0.8V6.6
	C14.4,5.2,15.6,4,17,4c1.4,0,2.6,1.2,2.6,2.6v0.6c0,0.4,0.2,0.7,0.6,0.9l1,0.4c0.1,0.1,0.2,0.1,0.4,0.1c0.2,0,0.5-0.1,0.6-0.3
	l0.4-0.5c0.5-0.5,1.1-0.8,1.8-0.8s1.3,0.3,1.8,0.8c0.5,0.5,0.8,1.1,0.8,1.8c0,0.7-0.3,1.3-0.8,1.8l-0.5,0.5c-0.3,0.3-0.3,0.7-0.2,1
	l0.4,0.9c0.1,0.3,0.5,0.6,0.9,0.6h0.6c1.4,0,2.6,1.1,2.6,2.6c0,1.4-1.1,2.6-2.6,2.6h-0.6c-0.4,0-0.7,0.2-0.9,0.6l-0.4,0.9
	c-0.2,0.3-0.1,0.7,0.2,1l0.5,0.4c1,1,1,2.6,0,3.6c-0.5,0.5-1.1,0.8-1.8,0.8c-0.7,0-1.3-0.3-1.8-0.8l-0.5-0.5
	c-0.2-0.2-0.4-0.3-0.6-0.3c-0.1,0-0.3,0-0.4,0.1l-1,0.4c-0.3,0.1-0.6,0.5-0.6,0.8v0.6C19.6,28.8,18.4,30,17,30z M12.5,23.8
	c0.4,0,0.7,0.1,1.1,0.2l0.9,0.4c1,0.4,1.7,1.3,1.7,2.4v0.6c0,0.5,0.4,0.9,0.9,0.9c0.5,0,0.9-0.4,0.9-0.9v-0.6c0-1.1,0.7-2,1.7-2.4
	l0.9-0.4c0.3-0.2,0.7-0.2,1.1-0.2c0.7,0,1.3,0.3,1.8,0.8l0.5,0.5c0.2,0.2,0.4,0.3,0.6,0.3s0.5-0.1,0.6-0.3c0.4-0.4,0.4-0.9,0-1.3
	l-0.4-0.4c-0.8-0.8-1-1.9-0.5-2.9l0.3-0.8c0.4-1,1.3-1.7,2.4-1.7h0.6c0.2,0,0.5-0.1,0.6-0.3c0.2-0.2,0.3-0.4,0.3-0.6
	c0-0.5-0.4-0.9-0.9-0.9h-0.6c-1.1,0-2-0.7-2.4-1.7L24,13.6c-0.4-1-0.2-2.1,0.5-2.9l0.4-0.5c0.2-0.2,0.3-0.4,0.3-0.6
	c0-0.2-0.1-0.5-0.3-0.6c-0.2-0.2-0.4-0.3-0.6-0.3c-0.2,0-0.5,0.1-0.6,0.3l-0.4,0.5c-0.5,0.5-1.1,0.8-1.8,0.8c-0.4,0-0.7-0.1-1.1-0.2
	l-0.9-0.4c-1-0.4-1.7-1.3-1.7-2.4V6.6c0-0.5-0.4-0.9-0.9-0.9c-0.5,0-0.9,0.4-0.9,0.9v0.6c0,1.1-0.7,2-1.7,2.4L13.6,10
	c-0.3,0.2-0.7,0.2-1.1,0.2c-0.7,0-1.3-0.3-1.8-0.8L10.2,9c-0.2-0.2-0.4-0.3-0.6-0.3C9.3,8.7,9.1,8.8,8.9,9C8.8,9.2,8.7,9.4,8.7,9.6
	c0,0.2,0.1,0.5,0.3,0.6l0.5,0.4c0.8,0.8,1,1.9,0.5,2.9l-0.3,0.8c-0.3,0.7-0.8,1.2-1.5,1.5L8,16v0.1H6.5c-0.5,0-0.9,0.4-0.9,0.9
	c0,0.5,0.4,0.9,0.9,0.9h0.6c1.1,0,2,0.7,2.4,1.7l0.3,0.8c0.4,1,0.2,2.1-0.5,2.9l-0.4,0.5c-0.3,0.4-0.3,0.9,0,1.3
	c0.2,0.2,0.4,0.3,0.6,0.3s0.5-0.1,0.6-0.3l0.5-0.4C11.2,24.1,11.8,23.8,12.5,23.8z"/>
<path fill="#FFFFFF" d="M17,21.2c-2.3,0-4.2-1.9-4.2-4.2s1.9-4.2,4.2-4.2s4.2,1.9,4.2,4.2S19.3,21.2,17,21.2z M17,14.4
	c-1.4,0-2.6,1.2-2.6,2.6c0,1.4,1.2,2.6,2.6,2.6c1.4,0,2.6-1.2,2.6-2.6C19.6,15.6,18.4,14.4,17,14.4z"/>
</svg>
