<?xml version="1.0" encoding="utf-8"?>
<!-- Generator: Adobe Illustrator 17.1.0, SVG Export Plug-In . SVG Version: 6.00 Build 0)  -->
<!DOCTYPE svg PUBLIC "-//W3C//DTD SVG 1.1//EN" "http://www.w3.org/Graphics/SVG/1.1/DTD/svg11.dtd">
<svg version="1.1" id="Layer_1" xmlns="http://www.w3.org/2000/svg" xmlns:xlink="http://www.w3.org/1999/xlink" x="0px" y="0px"
	 viewBox="0 0 34 34" enable-background="new 0 0 34 34" xml:space="preserve">
<path fill="#FFFFFF" d="M25.9,24.5c-1.8,0-3.4-1.3-3.9-3.1l-0.1-0.3H11.3l-0.1,0.3c-0.5,1.8-2.1,3.1-3.9,3.1c-1.8,0-3.4-1.3-3.9-3.1
	l-0.1-0.3H2.9c-1.6,0-2.9-1.3-2.9-2.9V14c0-1.2,0.8-2.2,1.9-2.4l2.7-0.5c0.8-0.2,1.6-0.5,2.3-1l1.8-1.3c1-0.8,2.4-1.2,3.7-1.2h4.5
	c1.7,0,3.4,0.5,4.9,1.5l3.5,2.4c0.6,0.4,1.2,0.7,1.9,0.8l2.1,0.4l0,0c2.2,0.3,4,2.1,4.4,4.3l0.2,1.5c0.1,0.7-0.1,1.4-0.5,1.9
	c-0.4,0.5-1.1,0.8-1.8,0.8h-1.8l-0.1,0.3C29.3,23.2,27.7,24.5,25.9,24.5z M25.9,17.9c-1.4,0-2.5,1.1-2.5,2.6c0,1.4,1.1,2.6,2.5,2.6
	c1.4,0,2.5-1.1,2.5-2.6C28.4,19,27.3,17.9,25.9,17.9z M7.3,17.9c-1.4,0-2.5,1.1-2.5,2.6c0,1.4,1.1,2.6,2.5,2.6
	c1.4,0,2.5-1.1,2.5-2.6C9.8,19,8.7,17.9,7.3,17.9z M25.9,16.3c1.8,0,3.4,1.3,3.9,3.1l0.1,0.3h1.8c0.3,0,0.5-0.2,0.6-0.3
	c0.2-0.2,0.2-0.4,0.2-0.7l-0.2-1.5c-0.3-1.6-1.6-2.9-3.2-3.1l-2.2-0.5c-0.9-0.2-1.7-0.5-2.5-1l-3.5-2.4c-1.2-0.8-2.6-1.2-4-1.2h-4.5
	c-1,0-2,0.3-2.8,0.9l-1.8,1.3C7,11.9,6,12.4,4.9,12.6l-2.7,0.5c-0.4,0.1-0.7,0.5-0.7,0.9v4.2c0,0.8,0.6,1.4,1.4,1.4h0.4l0.1-0.3
	c0.5-1.8,2.1-3.1,3.9-3.1c1.8,0,3.4,1.3,3.9,3.1l0.1,0.3h10.6l0.1-0.3C22.4,17.6,24,16.3,25.9,16.3z"/>
</svg>
