<?xml version="1.0" encoding="utf-8"?>
<!-- Generator: Adobe Illustrator 17.1.0, SVG Export Plug-In . SVG Version: 6.00 Build 0)  -->
<!DOCTYPE svg PUBLIC "-//W3C//DTD SVG 1.1//EN" "http://www.w3.org/Graphics/SVG/1.1/DTD/svg11.dtd">
<svg version="1.1" id="Layer_1" xmlns="http://www.w3.org/2000/svg" xmlns:xlink="http://www.w3.org/1999/xlink" x="0px" y="0px"
	 viewBox="0 0 34 34" enable-background="new 0 0 34 34" xml:space="preserve">
<path fill="#FFFFFF" d="M9,28c-0.8,0-1.6-0.3-2.1-0.9l0,0l0,0C6.3,26.5,6,25.8,6,25s0.3-1.5,0.9-2.1l2.4-2.4c1.1-1.1,1.1-2.7,0-3.8
	l-0.5-0.5l2.9-2.9c1.1-1.1,1.9-2.7,2.6-4.2c0.1-0.1,0.1-0.3,0.2-0.4l0,0l0,0c0.3-0.8,0.7-1.6,1.1-2.4C15.9,6,16.2,6,16.3,6
	c0.1,0,0.3,0,0.4,0.1c2.3,1.3,4.5,2.9,6.4,4.8c1.9,1.9,3.5,4.1,4.8,6.4c0.1,0.3,0.1,0.8-0.3,1c-0.4,0.2-0.8,0.4-1.2,0.6
	c-0.4,0.2-0.8,0.4-1.2,0.6l0,0l0,0c-0.1,0.1-0.3,0.1-0.4,0.2c-1.5,0.8-3.1,1.5-4.2,2.6l-2.9,2.9l-0.5-0.5c-0.5-0.5-1.2-0.8-1.9-0.8
	c-0.7,0-1.4,0.3-1.9,0.8l-2.4,2.4C10.5,27.7,9.8,28,9,28z M10.7,16.2l0.2,0.3c0.5,0.8,0.6,1.7,0.5,2.6c-0.1,0.9-0.5,1.7-1.2,2.4
	l-2.4,2.4c-0.3,0.3-0.5,0.7-0.5,1.1s0.1,0.8,0.5,1.1c0.3,0.3,0.7,0.5,1.1,0.5c0.4,0,0.8-0.2,1.1-0.5l2.4-2.4
	c0.8-0.8,1.8-1.2,2.9-1.2c0.7,0,1.5,0.2,2.1,0.6l0.3,0.2l1.5-1.5l-7-7L10.7,16.2z M16.4,8.2c-0.2,0.3-0.3,0.5-0.4,0.8
	c-0.1,0.1-0.1,0.3-0.2,0.4c-0.1,0.2-0.2,0.5-0.4,0.8c-0.6,1.2-1.2,2.4-2,3.4l-0.3,0.3l7.1,7l0.3-0.2c1.1-0.8,2.5-1.6,4.2-2.4l0,0
	l0,0c0.2-0.1,0.5-0.2,0.8-0.3c0.1,0,0.1,0,0.2-0.1l0.5-0.2l-0.3-0.5c-2.2-3.7-5.4-6.9-9.1-9.1l-0.4-0.2L16.4,8.2z"/>
</svg>
