<?xml version="1.0" encoding="utf-8"?>
<!-- Generator: Adobe Illustrator 17.1.0, SVG Export Plug-In . SVG Version: 6.00 Build 0)  -->
<!DOCTYPE svg PUBLIC "-//W3C//DTD SVG 1.1//EN" "http://www.w3.org/Graphics/SVG/1.1/DTD/svg11.dtd">
<svg version="1.1" id="Layer_1" xmlns="http://www.w3.org/2000/svg" xmlns:xlink="http://www.w3.org/1999/xlink" x="0px" y="0px"
	 viewBox="0 0 34 34" enable-background="new 0 0 34 34" xml:space="preserve">
<g>
	<path fill="#FFFFFF" d="M17.7,18.1V6h-1.5v12.1C14.4,18.4,13,20,13,22c0,1.9,1.3,3.5,3.2,3.9V28h1.5v-2.1c1.8-0.3,3.2-2,3.2-3.9
		C20.9,20,19.6,18.4,17.7,18.1z M17,24.4c-1.4,0-2.5-1.1-2.5-2.5c0-1.4,1.1-2.5,2.5-2.5c1.4,0,2.5,1.1,2.5,2.5
		C19.5,23.3,18.4,24.4,17,24.4z"/>
	<path fill="#FFFFFF" d="M8.7,13.4V6H7.2v7.4c-1.9,0.4-3.2,2-3.2,3.9c0,1.9,1.3,3.5,3.2,3.9V28h1.5v-6.8c1.9-0.3,3.2-2,3.2-3.9
		C11.9,15.4,10.6,13.8,8.7,13.4z M8,19.8c-1.4,0-2.5-1.1-2.5-2.5c0-1.4,1.1-2.5,2.5-2.5c1.4,0,2.5,1.1,2.5,2.5
		C10.4,18.7,9.3,19.8,8,19.8z"/>
	<path fill="#FFFFFF" d="M26.8,8.2V6h-1.5v2.2c-1.9,0.3-3.2,2-3.2,3.9c0,1.9,1.3,3.5,3.2,3.9v12h1.5V16c1.8-0.3,3.2-2,3.2-3.9
		C30,10.2,28.6,8.6,26.8,8.2z M26,14.6c-1.4,0-2.5-1.1-2.5-2.5c0-1.4,1.1-2.5,2.5-2.5c1.4,0,2.5,1.1,2.5,2.5
		C28.5,13.5,27.4,14.6,26,14.6z"/>
</g>
</svg>
