<?xml version="1.0" encoding="utf-8"?>
<!-- Generator: Adobe Illustrator 16.0.0, SVG Export Plug-In . SVG Version: 6.00 Build 0)  -->
<!DOCTYPE svg PUBLIC "-//W3C//DTD SVG 1.1//EN" "http://www.w3.org/Graphics/SVG/1.1/DTD/svg11.dtd">
<svg version="1.1" id="Слой_1" xmlns="http://www.w3.org/2000/svg" xmlns:xlink="http://www.w3.org/1999/xlink" x="0px" y="0px"
	 width="24px" height="24px" viewBox="0 0 24 24" enable-background="new 0 0 24 24" xml:space="preserve">
<g>
	<path fill="#013368" d="M12,24c6.625,0,12-5.377,12-12c0-6.623-5.375-12-12-12C5.377,0,0,5.377,0,12C0,18.623,5.377,24,12,24z
		 M12,1.967c5.541,0,10.033,4.491,10.033,10.033c0,5.541-4.492,10.033-10.033,10.033C6.459,22.033,1.967,17.541,1.967,12
		C1.967,6.458,6.459,1.967,12,1.967z"/>
	<path fill="#013368" d="M11.968,18.229c0.557,0,0.983-0.426,0.983-0.983v-6.23c0-0.558-0.426-0.983-0.983-0.983
		c-0.558,0-0.983,0.426-0.983,0.983v6.23C10.984,17.804,11.443,18.229,11.968,18.229z"/>
	<path fill="#013368" d="M11.968,8.394c0.557,0,0.983-0.426,0.983-0.983V6.427c0-0.558-0.426-0.983-0.983-0.983
		c-0.558,0-0.983,0.426-0.983,0.983V7.41C10.984,7.968,11.443,8.394,11.968,8.394z"/>
</g>
</svg>
