<?xml version="1.0" encoding="utf-8"?>
<!-- Generator: Adobe Illustrator 16.0.0, SVG Export Plug-In . SVG Version: 6.00 Build 0)  -->
<!DOCTYPE svg PUBLIC "-//W3C//DTD SVG 1.1//EN" "http://www.w3.org/Graphics/SVG/1.1/DTD/svg11.dtd">
<svg version="1.1" id="Слой_1" xmlns="http://www.w3.org/2000/svg" xmlns:xlink="http://www.w3.org/1999/xlink" x="0px" y="0px"
	 width="22px" height="22px" viewBox="0 0 22 22" enable-background="new 0 0 22 22" xml:space="preserve">
<g>
	<path fill="#013469" d="M16.595,10.152H11.85V5.406c0-0.47-0.38-0.85-0.849-0.85c-0.47,0-0.85,0.38-0.85,0.85v4.746H5.405
		c-0.469,0-0.849,0.38-0.849,0.849c0,0.47,0.38,0.849,0.849,0.849h4.746v4.746c0,0.47,0.38,0.849,0.85,0.849
		c0.469,0,0.849-0.379,0.849-0.849v-4.746h4.745c0.469,0,0.849-0.379,0.849-0.849C17.443,10.532,17.063,10.152,16.595,10.152z"/>
	<path fill="#013469" d="M11.001,0C4.934,0,0,4.935,0,11c0,6.066,4.935,11,11.001,11C17.063,22,22,17.066,22,11
		C22,4.935,17.063,0,11.001,0z M11.001,20.304c-5.131,0-9.304-4.173-9.304-9.303c0-5.129,4.173-9.303,9.304-9.303
		c5.128,0,9.302,4.173,9.302,9.303C20.303,16.131,16.129,20.304,11.001,20.304z"/>
</g>
</svg>
