<?xml version="1.0" encoding="utf-8"?>
<!-- Generator: Adobe Illustrator 17.1.0, SVG Export Plug-In . SVG Version: 6.00 Build 0)  -->
<!DOCTYPE svg PUBLIC "-//W3C//DTD SVG 1.1//EN" "http://www.w3.org/Graphics/SVG/1.1/DTD/svg11.dtd">
<svg version="1.1" id="Layer_1" xmlns="http://www.w3.org/2000/svg" xmlns:xlink="http://www.w3.org/1999/xlink" x="0px" y="0px"
	 viewBox="0 0 22 18" enable-background="new 0 0 22 18" xml:space="preserve">
<g>
	<path fill="#17B5D9" d="M11,5.2c-2.8,0-5.1,2.3-5.1,5.1s2.3,5.1,5.1,5.1s5.1-2.3,5.1-5.1S13.8,5.2,11,5.2z M11,14.5
		c-2.3,0-4.2-1.9-4.2-4.2C6.8,8,8.7,6.1,11,6.1c2.3,0,4.2,1.9,4.2,4.2C15.2,12.6,13.3,14.5,11,14.5z"/>
	<path fill="#17B5D9" d="M19.8,2.8h-4.1l-1.2-2.6l0,0C14.4,0.1,14.3,0,14.1,0c0,0,0,0,0,0H7.9C7.7,0,7.6,0.1,7.5,0.2l0,0L6.3,2.8
		H2.2C1,2.8,0,3.8,0,5v10.8C0,17,1,18,2.2,18h17.5c1.2,0,2.2-1,2.2-2.2V5C22,3.8,21,2.8,19.8,2.8z M21.1,15.8c0,0.8-0.6,1.3-1.4,1.3
		H2.2c-0.8,0-1.4-0.6-1.4-1.3V5c0-0.8,0.6-1.3,1.4-1.3l4.4,0c0.2,0,0.3-0.1,0.4-0.2l1.2-2.5h5.6L15,3.4c0.1,0.1,0.2,0.2,0.4,0.2h4.4
		c0.8,0,1.4,0.6,1.4,1.3V15.8z"/>
</g>
</svg>
