<?xml version="1.0" encoding="utf-8"?>
<!-- Generator: Adobe Illustrator 16.0.0, SVG Export Plug-In . SVG Version: 6.00 Build 0)  -->
<!DOCTYPE svg PUBLIC "-//W3C//DTD SVG 1.1//EN" "http://www.w3.org/Graphics/SVG/1.1/DTD/svg11.dtd">
<svg version="1.1" id="Слой_1" xmlns="http://www.w3.org/2000/svg" xmlns:xlink="http://www.w3.org/1999/xlink" x="0px" y="0px"
	 width="26px" height="24px" viewBox="0 0 26 24" enable-background="new 0 0 26 24" xml:space="preserve">
<path fill="#948C82" d="M25.205,6.062h-3.361V0.792C21.844,0.354,21.488,0,21.053,0H4.947C4.51,0,4.153,0.354,4.153,0.792v5.272
	h-3.36C0.356,6.063,0,6.418,0,6.854V19.05c0,0.436,0.356,0.791,0.793,0.791h3.358v3.367C4.152,23.644,4.508,24,4.946,24h16.107
	c0.436,0,0.791-0.356,0.791-0.792v-3.367h3.361c0.438,0,0.795-0.355,0.795-0.791V6.854C26,6.417,25.643,6.062,25.205,6.062z
	 M20.258,15.208v7.209H5.74v-7.209H20.258z M5.74,6.062V1.58h14.514v4.484L5.74,6.062z M21.053,13.628H4.947
	c-0.438,0-0.794,0.354-0.794,0.79v3.84H1.586V7.643H24.41v10.615h-2.566v-3.84C21.844,13.982,21.488,13.628,21.053,13.628z"/>
</svg>
