<?xml version="1.0" encoding="utf-8"?>
<!-- Generator: Adobe Illustrator 16.0.0, SVG Export Plug-In . SVG Version: 6.00 Build 0)  -->
<!DOCTYPE svg PUBLIC "-//W3C//DTD SVG 1.1//EN" "http://www.w3.org/Graphics/SVG/1.1/DTD/svg11.dtd">
<svg version="1.1" id="Слой_1" xmlns="http://www.w3.org/2000/svg" xmlns:xlink="http://www.w3.org/1999/xlink" x="0px" y="0px"
	 width="30px" height="30px" viewBox="0 0 30 30" enable-background="new 0 0 30 30" xml:space="preserve">
<path fill="#FFFFFF" d="M15,0C6.728,0,0,6.728,0,15c0,8.271,6.728,15,15,15c8.271,0,15-6.729,15-15C30,6.728,23.271,0,15,0z M15,2
	c5.586,0,10.335,3.512,12.178,8.448C23.328,9.285,19.17,8.669,15,8.667c-4.165,0.008-8.33,0.627-12.177,1.792
	C4.664,5.518,9.41,2,15,2z M15,10.667c4.416,0.002,8.828,0.72,12.803,2.073C27.931,13.475,28,14.229,28,15
	c0,1.005-0.119,1.978-0.334,2.917c-0.638-0.162-1.308-0.25-1.999-0.25c-4.591,0-8.333,3.742-8.333,8.332
	c0,0.605,0.072,1.191,0.197,1.762C16.713,27.922,15.866,28,15,28s-1.713-0.078-2.531-0.238c0.124-0.566,0.198-1.156,0.198-1.762
	c0-4.59-3.743-8.332-8.333-8.332c-0.691,0-1.362,0.092-2,0.25C2.119,16.979,2,16.006,2,15c0-0.765,0.061-1.512,0.188-2.24
	C6.16,11.4,10.58,10.675,15,10.667z M4.333,19.666c3.509,0,6.333,2.824,6.333,6.334c0,0.422-0.046,0.832-0.125,1.229
	c-3.471-1.26-6.234-3.967-7.604-7.385C3.389,19.74,3.853,19.666,4.333,19.666z M25.667,19.666c0.483,0,0.951,0.063,1.406,0.166
	c-1.369,3.424-4.139,6.135-7.614,7.396c-0.079-0.396-0.125-0.807-0.125-1.229C19.334,22.49,22.157,19.666,25.667,19.666z"/>
</svg>
