<svg width="68" height="68" viewBox="0 0 68 68" fill="none" xmlns="http://www.w3.org/2000/svg">
<circle cx="34" cy="34" r="34" fill="#00AAD2"/>
<path d="M22.9273 30L19.002 34.1158C16.77 36.4561 16.7945 40.1443 19.0573 42.4549L25.5612 49.096C28.0065 51.5928 31.3966 53 34.8914 53V53C42.6234 53 49 46.732 49 39V30.79" stroke="white" stroke-width="2"/>
<path d="M23 37V26.5C23 24.567 24.567 23 26.5 23V23C28.433 23 30 24.567 30 26.5V29.0837" stroke="white" stroke-width="2"/>
<path d="M30 30V23.5C30 21.567 31.567 20 33.5 20V20C35.433 20 37 21.567 37 23.5V25.9571" stroke="white" stroke-width="2"/>
<path d="M37 30V25C37 23.3431 38.3431 22 40 22V22C41.6569 22 43 23.3431 43 25V27.7917" stroke="white" stroke-width="2"/>
<path d="M43 29.9712V28C43 26.3431 44.3431 25 46 25V25C47.6569 25 49 26.3431 49 28V31" stroke="white" stroke-width="2"/>
</svg>
