<svg width="68" height="68" viewBox="0 0 68 68" fill="none" xmlns="http://www.w3.org/2000/svg">
<circle cx="34" cy="34" r="34" fill="#00AAD2"/>
<path d="M49.0021 30.7899V39C49.0021 46.732 42.6255 53 34.8935 53V53C31.3987 53 28.0086 51.5928 25.5633 49.0959L15.0021 38.312C11.5014 34.5 12.4985 32.0001 14.5001 30.5C17.1686 28.5 21.0002 31.79 23.0005 34" stroke="white" stroke-width="2"/>
<path d="M23.0039 37V18.5C23.0039 16.567 24.5709 15 26.5039 15V15C28.4369 15 30.0039 16.567 30.0039 18.5V29.0837" stroke="white" stroke-width="2"/>
<path d="M30.0039 30V15.5C30.0039 13.567 31.5709 12 33.5039 12V12C35.4369 12 37.0039 13.567 37.0039 15.5V25.9571" stroke="white" stroke-width="2"/>
<path d="M37.0039 30V17C37.0039 15.3431 38.3471 14 40.0039 14V14C41.6608 14 43.0039 15.3431 43.0039 17V27.7917" stroke="white" stroke-width="2"/>
<path d="M43.0039 29.9712V20C43.0039 18.3431 44.3471 17 46.0039 17V17C47.6608 17 49.0039 18.3431 49.0039 20V31" stroke="white" stroke-width="2"/>
</svg>
