<svg width="18" height="14" viewBox="0 0 18 14" fill="none" xmlns="http://www.w3.org/2000/svg">
    <g clip-path="#clip0">
    <path fill-rule="evenodd" clip-rule="evenodd" d="M12.011 0.75H1.93098C1.77255 0.749994 1.61568 0.781477 1.46943 0.842407C1.32319 0.903337 1.19046 0.992611 1.0789 1.1051C0.967337 1.21759 0.879153 1.35106 0.819439 1.4978C0.759724 1.64455 0.729678 1.80166 0.730999 1.96008V11.14C0.72913 11.4607 0.854298 11.7691 1.07917 11.9977C1.30405 12.2263 1.61032 12.3567 1.93098 12.3601H15.111C15.4316 12.3567 15.7379 12.2263 15.9628 11.9977C16.1877 11.7691 16.3129 11.4607 16.311 11.14V1.96008C16.3123 1.80166 16.2822 1.64455 16.2225 1.4978C16.1628 1.35106 16.0746 1.21759 15.9631 1.1051C15.8515 0.992611 15.7188 0.903337 15.5725 0.842407C15.4263 0.781477 15.2694 0.749994 15.111 0.75H12.011Z" stroke="white" stroke-width="1.5"/>
    <path d="M1.61108 1.62012L8.5311 6.55005L16.1421 1.62012" stroke="white" stroke-width="1.5"/>
    </g>
    <defs>
    <clipPath id="clip0">
    <rect width="17.062" height="13.12" fill="white"/>
    </clipPath>
    </defs>
</svg>
