<svg fill="none" height="33" viewBox="0 0 34 33" width="34" xmlns="http://www.w3.org/2000/svg"><g fill="#66645f" stroke="#66645f" stroke-miterlimit="10" stroke-width=".3"><path d="m13.873 10.37c.003.168.085.325.219.426.133.104.309.14.47.098.005-.002.545-.134 1.307-.134 1.697 0 3.927.622 4.902 3.574.051.156.168.281.318.342.066.027.139.04.209.04.088 0 .176-.022.258-.063.141-.074 3.418-1.855 3.826-6.80801 0-.119.033-2.978-2.045-5.097-2.191-2.239-5.746-2.8089996-10.851-1.521-.147.056-1.456.578-1.891 1.539-.054.132-.482 1.335.99 2.976.858.954 2.255 3.46 2.288 4.62801zm-2.257-7.16501c.181-.399.874-.789 1.203-.921 4.486-1.121 7.816-.699 9.714 1.23 1.752 1.778 1.738 4.274 1.74 4.274-.262 3.18101-1.855 4.84501-2.707 5.51901-1.363-3.163-4.114-3.65701-5.699-3.65701-.376 0-.709.027-.972.059-.338-1.531-1.608-3.735-2.484-4.712-.993-1.104-.793-1.792-.795-1.792z"/><path d="m9.6113 25.355 3.717-5.813c.146-.229.106-.532-.098-.713-.021-.019-2.025-1.852-1.616-4.177.004-.018.405-1.846 1.352-2.76.133-.126.191-.311.162-.491s-.146-.334-.31-.412c-.073-.033-1.778-.826-3.954-.826-2.681 0-4.902 1.214-6.471 3.592-.029.066-2.840997 6.694 3.659 11.793.089.102.908.98 1.901.98.491.002 1.179-.212 1.658-1.173zm-6.244-11.068c1.326-1.998 3.174-3.013 5.499-3.013 1.144 0 2.158.255 2.792.462-.794 1.152-1.113 2.615-1.131 2.704-.408 2.309.965 4.143 1.628 4.875l-3.509 5.491c-.306.611-.595.611-.691.611-.422 0-.931-.452-1.145-.677-5.877996-4.618-3.502-10.298-3.443-10.453z"/><path d="m28.7112 18.018c-3.844-.077-7.26-1.745-7.293-1.763-.143-.069-.307-.077-.453-.018-.145.059-.262.176-.316.322-.797 2.143-2.203 3.229-4.179 3.229-.984 0-1.739-.286-1.748-.289-.162-.061-.348-.045-.497.051-.15.094-.245.256-.256.431-.181 2.668.426 4.807 1.806 6.356 1.98 2.226 4.816 2.387 4.933 2.392.012 0 .02.001.027.001s.016 0 .021-.001c6.162-.228 8.58-6.025 8.652-6.215.863-1.577 1.078-2.794.637-3.616-.414-.775-1.205-.869-1.334-.88zm-.305 4.019c-.09.218-2.252 5.362-7.664 5.58-.242-.02-2.564-.243-4.147-2.029-1.052-1.187-1.57-2.813-1.547-4.845.372.083.865.156 1.421.156 1.322 0 3.66-.457 4.994-3.4 1.156.496 4.002 1.567 7.178 1.63.012.001.297.041.432.305.107.212.263.892-.667 2.603z"/><path d="m13.771 15.121c0 1.337 1.088 2.426 2.423 2.426 1.337 0 2.425-1.089 2.425-2.426 0-1.335-1.088-2.423-2.425-2.423-1.335.001-2.423 1.089-2.423 2.423zm3.735 0c0 .725-.587 1.313-1.312 1.313-.724 0-1.313-.589-1.313-1.313 0-.723.589-1.313 1.313-1.313.724.001 1.312.59 1.312 1.313z"/><path d="m8.44215 1.721c.286-.111.428-.434.318-.72-.112-.285998-.438-.429998-.72-.316998-3.867 1.497998-6.77 4.947998-7.582001 9.004998-.06.301.134.594.436.654.038.007.074.011.109001.011.26 0 .493-.182.545-.445.737-3.689 3.378-6.826 6.894-8.188z"/><path d="m18.689 30.972c-3.516 1.154-7.619.405-10.51004-1.974-.233-.194-.586-.162-.782.076-.195.235-.162.587.076.781 2.176 1.793 4.93204 2.779 7.75504 2.779 1.302 0 2.585-.204 3.808-.607.291-.094.451-.41.355-.701-.092-.29-.399-.452-.702-.354z"/><path d="m32.979 11.271c0-.003 0-.003 0 0-.662-3.301-2.525-6.223-5.248-8.229-.246-.18-.596-.12999-.779.11901-.18.246-.129.594.119.778 2.502 1.84 4.213 4.523 4.814 7.54999.162.798.244 1.621.244 2.444 0 1.252-.188 2.488-.553 3.678-.092.293.072.604.365.694.055.017.111.025.164.025.238 0 .459-.153.531-.393.4-1.295.605-2.642.605-4.006.001-.896-.091-1.791-.262-2.66z"/><path d="m8.41298 3.20299c-3.058 1.067-5.238 3.837-5.553 7.05601-.029.305.192.578.499.607.019 0 .037.002.056.002.282 0 .524-.213.551-.502.275-2.78901 2.164-5.18901 4.813-6.11401.289-.102.443-.419.341-.709s-.418-.444-.707-.34z"/><path d="m10.308 28.436c-.173.256-.104.6.149.772 1.413.951 3.06 1.454 4.766 1.454.775 0 1.55-.105 2.296-.313.297-.084.467-.39.387-.686-.082-.296-.389-.471-.684-.386-2.08.582-4.357.214-6.143-.992-.256-.17-.602-.102-.771.151z"/><path d="m26.7809 6.18799c-.225.209-.238.561-.031.785 2.172 2.348 3.117 5.50201 2.592 8.65301-.059.35-.133.692-.225 1.025-.082.296.094.603.389.683.051.014.098.02.148.02.242 0 .467-.162.533-.409.104-.369.186-.746.25-1.135.582-3.493-.463-6.98901-2.869-9.59101-.211-.228-.562-.24-.787-.031z"/></g></svg>