<svg fill="none" height="31" viewBox="0 0 35 31" width="35" xmlns="http://www.w3.org/2000/svg"><g fill="#66645f"><path d="m17.2941.636688c-5.616 0-11.23301 1.505002-16.815011 4.513002-.289.155-.4130003.503-.285.806l6.987001 16.52201c.135.32.5.471.822.344 6.18701-2.467 12.33401-2.513 18.58101 0 .323.129.688-.023.824-.344l6.986-16.52201c.128-.303.004-.651-.285-.806-5.583-3.008-11.198-4.513002-16.815-4.513002zm0 1.244992c5.216 0 10.433 1.43699 15.679 4.16999l-6.516 15.41103c-6.122-2.306-12.266-2.264-18.32701 0l-6.516-15.41302c5.246-2.734 10.46401-4.17001 15.67901-4.17001v.00201z"/><path d="m17.3 11.4347c-.351-.006-.64.274-.646.625-.002.107.023.213.0751.308l.905 1.779c.932 1.831.7949 4.005-.3631 5.71l-1.007 1.485c-1.413 2.08-1.584 4.757-.444 6.999l.9091 1.778c.145.318.5209.461.8419.313.316-.146.4571-.521.3131-.842-.008-.014-.0161-.029-.0251-.045l-.904-1.779c-.933-1.83-.795-4.006.362-5.711l1.007-1.486c1.415-2.081 1.585-4.757.445-6.997l-.91-1.78c-.103-.216-.32-.353-.559-.357z"/><path d="m16.3421 10.7997c-.352 0-.636.284-.636.635v2.531c-.005.351.275.638.627.644.349.005.638-.275.643-.626 0-.006 0-.011 0-.018v-1.896h1.896c.351.003.639-.276.643-.627.005-.351-.275-.638-.627-.643-.005 0-.011 0-.016 0z"/><path d="m10.9481 11.4347c-.351-.006-.641.274-.646.625-.001.107.025.213.075.308l.906 1.779c.932 1.831.794 4.005-.363 5.71l-1.00704 1.485c-1.414 2.08-1.584 4.757-.444 6.999l.90804 1.778c.147.318.523.461.842.313.319-.146.459-.521.313-.842-.008-.014-.015-.029-.024-.045l-.906-1.779c-.93304-1.83-.79504-4.006.362-5.711l1.008-1.486c1.414-2.081 1.584-4.757.443-6.997l-.907-1.78c-.105-.216-.321-.353-.56-.357z"/><path d="m9.99002 10.7997c-.35 0-.635.284-.635.635v2.531c-.004.351.276.638.626.644.35098.005.63998-.275.64498-.626 0-.006 0-.011 0-.018v-1.896h1.896c.35.003.639-.276.643-.627.005-.351-.277-.638-.627-.643-.005 0-.011 0-.016 0z"/><path d="m23.6512 11.4347c-.351-.006-.639.274-.645.625-.002.107.024.213.074.308l.905 1.779c.933 1.831.794 4.005-.362 5.71l-1.008 1.485c-1.413 2.08-1.584 4.757-.443 6.999l.908 1.778c.146.318.522.461.841.313.32-.146.46-.521.313-.842-.007-.014-.015-.029-.023-.045l-.906-1.779c-.932-1.83-.794-4.006.363-5.711l1.007-1.486c1.414-2.081 1.585-4.757.444-6.997l-.908-1.78c-.104-.216-.32-.353-.56-.357z"/><path d="m22.6932 10.7997c-.351 0-.634.284-.634.635v2.531c-.006.351.274.638.625.644.352.005.64-.275.645-.626 0-.006 0-.011 0-.018v-1.896h1.896c.351.003.64-.276.643-.627.005-.351-.275-.638-.626-.643-.006 0-.012 0-.017 0z"/></g></svg>