<svg enable-background="new 0 0 700 128" height="128" viewBox="0 0 700 128" width="700" xmlns="http://www.w3.org/2000/svg"><g fill="#ededed"><path d="m36.304 27.043h-36.304v-24.338h100.785v24.338h-36.304v98.253h-28.177z"/><path d="m159.52 128c-9.152 0-17.068-1.414-23.751-4.236s-12.223-6.729-16.616-11.719c-4.397-4.985-7.677-10.845-9.844-17.576-2.168-6.73-3.251-14.063-3.251-21.996v-69.768h28.176v68.147c0 4.568.421 8.773 1.265 12.619.841 3.848 2.258 7.152 4.244 9.916 1.987 2.766 4.606 4.897 7.858 6.398 3.25 1.506 7.224 2.254 11.92 2.254s8.64-.748 11.83-2.254c3.19-1.501 5.78-3.633 7.768-6.398 1.987-2.764 3.432-6.068 4.335-9.916.902-3.846 1.354-8.051 1.354-12.619v-68.147h28.177v69.768c0 7.934-1.084 15.266-3.252 21.996-2.167 6.731-5.449 12.591-9.843 17.576-4.396 4.989-9.935 8.896-16.618 11.719-6.683 2.822-14.602 4.236-23.752 4.236z"/><path d="m285.375 128c-9.274 0-17.764-1.594-25.468-4.777-7.707-3.184-14.359-7.6-19.959-13.25-5.599-5.648-9.965-12.409-13.095-20.283-3.133-7.869-4.695-16.433-4.695-25.689 0-9.253 1.563-17.785 4.695-25.6 3.13-7.812 7.496-14.572 13.095-20.281 5.6-5.707 12.252-10.155 19.959-13.342 7.704-3.184 16.194-4.778 25.468-4.778 13.004 0 24.112 2.614 33.324 7.842 9.211 5.229 16.585 12.291 22.126 21.184l-20.771 15.684c-3.854-5.769-8.37-10.335-13.547-13.702-5.179-3.363-12.042-5.047-20.59-5.047-5.419 0-10.268.963-14.54 2.885-4.275 1.924-7.889 4.597-10.837 8.021-2.953 3.426-5.239 7.454-6.865 12.08-1.624 4.627-2.437 9.645-2.437 15.053s.813 10.429 2.437 15.054c1.626 4.628 3.912 8.653 6.865 12.079 2.948 3.426 6.562 6.102 10.837 8.021 4.272 1.924 9.121 2.885 14.54 2.885 8.548 0 15.411-1.681 20.59-5.047 5.177-3.364 9.692-7.934 13.547-13.701l20.771 15.684c-5.541 8.896-12.915 15.955-22.126 21.184-9.212 5.228-20.32 7.841-33.324 7.841z"/><path d="m396.292 128c-7.346 0-13.849-.812-19.507-2.434-5.662-1.623-10.688-3.756-15.082-6.4-4.397-2.642-8.158-5.557-11.289-8.744-3.133-3.182-5.842-6.399-8.127-9.645l17.88-18.209c1.807 2.646 3.885 5.201 6.232 7.662 2.348 2.466 5.027 4.66 8.038 6.581 3.009 1.924 6.38 3.456 10.114 4.597 3.73 1.145 7.826 1.713 12.282 1.713 6.381 0 11.197-1.32 14.449-3.967 3.252-2.643 4.876-5.887 4.876-9.734 0-1.442-.242-2.822-.722-4.146-.482-1.322-1.354-2.553-2.619-3.695-1.265-1.141-3.011-2.164-5.238-3.065-2.229-.901-5.088-1.591-8.579-2.073l-9.753-1.442c-5.662-.839-10.81-2.254-15.444-4.237-4.636-1.982-8.609-4.506-11.92-7.57-3.313-3.064-5.87-6.609-7.676-10.637-1.807-4.025-2.71-8.502-2.71-13.432 0-5.526 1.053-10.695 3.16-15.504 2.105-4.807 5.149-8.952 9.123-12.439 3.973-3.484 8.787-6.22 14.448-8.203 5.661-1.985 11.982-2.977 18.967-2.977 9.632 0 18.302 1.803 26.009 5.408 7.704 3.605 13.908 8.293 18.604 14.063l-17.34 18.749c-3.855-4.205-8.128-7.481-12.824-9.825s-9.694-3.516-14.991-3.516c-5.058 0-9.003 1.144-11.83 3.426-2.832 2.284-4.245 4.867-4.245 7.752 0 2.767 1.084 5.199 3.25 7.301 2.168 2.104 5.66 3.516 10.477 4.237l9.753 1.442c13.123 1.924 23.271 6.102 30.436 12.529 7.161 6.432 10.747 15.054 10.747 25.87 0 6.13-1.236 11.69-3.703 16.677-2.471 4.988-5.87 9.256-10.205 12.799-4.335 3.547-9.481 6.283-15.443 8.204s-12.494 2.884-19.598 2.884z"/><path d="m511.868 128c-9.273 0-17.763-1.594-25.468-4.777-7.707-3.184-14.358-7.6-19.958-13.25-5.6-5.648-9.965-12.409-13.095-20.283-3.133-7.869-4.695-16.433-4.695-25.689 0-9.253 1.563-17.785 4.695-25.6 3.13-7.812 7.495-14.572 13.095-20.281 5.6-5.707 12.251-10.155 19.958-13.342 7.705-3.184 16.195-4.778 25.468-4.778 9.15 0 17.61 1.594 25.378 4.777 7.765 3.187 14.448 7.635 20.048 13.342 5.599 5.709 9.962 12.47 13.095 20.281 3.13 7.814 4.696 16.347 4.696 25.6 0 9.257-1.566 17.82-4.696 25.689-3.133 7.874-7.496 14.635-13.095 20.283-5.6 5.65-12.283 10.066-20.048 13.25-7.767 3.184-16.227 4.778-25.378 4.778zm0-25.961c5.419 0 10.233-.961 14.45-2.885 4.212-1.92 7.766-4.596 10.656-8.021 2.89-3.426 5.116-7.451 6.683-12.079 1.563-4.625 2.349-9.646 2.349-15.054s-.785-10.426-2.349-15.053c-1.566-4.626-3.793-8.654-6.683-12.08-2.891-3.425-6.444-6.098-10.656-8.021-4.217-1.922-9.031-2.885-14.45-2.885s-10.236.963-14.45 2.885c-4.217 1.924-7.767 4.597-10.656 8.021-2.89 3.426-5.119 7.454-6.684 12.08-1.565 4.627-2.348 9.645-2.348 15.053s.782 10.429 2.348 15.054c1.564 4.628 3.794 8.653 6.684 12.079s6.439 6.102 10.656 8.021c4.214 1.924 9.031 2.885 14.45 2.885z"/><path d="m586.028 2.705h24.565l61.229 76.079v-76.079h28.178v122.591h-24.383l-61.412-76.079v76.079h-28.177z"/></g></svg>