<svg enable-background="new 0 0 30 30" height="30" viewBox="0 0 30 30" width="30" xmlns="http://www.w3.org/2000/svg"><g fill="#c4c2bf"><path d="m23.421 1h-2.542-6.835c-.176 0-.341.069-.465.191l-3.499 3.501-5.361 5.361c-.123.122-.191.287-.191.462v16.381c0 1.159.946 2.104 2.104 2.104h16.789c1.161 0 2.106-.945 2.106-2.104v-23.792c0-1.158-.945-2.104-2.106-2.104zm-9.107 1.313h5.908v2.189h-8.097zm9.902 24.583c0 .436-.356.791-.795.791h-16.789c-.436 0-.792-.355-.792-.791v-16.109l4.973-4.974h10.065c.364 0 .656-.295.656-.659v-2.841h1.886c.438 0 .795.356.795.792v23.791z"/><path d="m5.128 7.727c.17 0 .335-.064.465-.191l5.414-5.414c.258-.258.258-.672 0-.93-.258-.255-.672-.255-.927 0l-5.414 5.413c-.258.257-.258.672 0 .93.127.128.295.192.462.192z"/><path d="m20.69 10.983c-.258-.255-.675-.255-.93 0l-1.337 1.339c-.252-.106-.525-.165-.813-.165h-5.167c-.29 0-.563.059-.813.165l-1.339-1.339c-.255-.255-.669-.255-.927 0-.257.255-.257.672 0 .93l1.283 1.283c-.202.327-.351.693-.351 1.107v7.301c0 .414.149.778.351 1.107l-1.283 1.283c-.257.255-.257.672 0 .927.13.131.295.194.465.194.167 0 .335-.063.462-.194l1.339-1.336c.249.104.522.165.813.165h5.167c.287 0 .561-.062.813-.165l1.337 1.336c.127.131.297.194.465.194.167 0 .334-.063.465-.194.255-.255.255-.672 0-.927l-1.286-1.283c.205-.329.354-.693.354-1.107v-7.301c0-.414-.148-.78-.354-1.11l1.286-1.28c.255-.258.255-.675 0-.93zm-8.246 11.455c-.462 0-.834-.375-.834-.834v-7.301c0-.462.372-.834.834-.834h5.167c.46 0 .834.372.834.834v7.301c0 .459-.374.834-.834.834z"/></g></svg>