<svg enable-background="new 0 0 30 30" height="30" viewBox="0 0 30 30" width="30" xmlns="http://www.w3.org/2000/svg"><g fill="#c2c1bf"><path d="m14.996 17.025c-.111 0-.218-.027-.319-.077-.348-.18-.487-.607-.31-.955l2.529-4.962c.124-.24.367-.388.636-.388.113 0 .217.026.32.078.169.086.294.229.352.408s.041.372-.047.543l-2.532 4.964c-.121.241-.362.389-.629.389z"/><path d="m6.946 25.073c-.189 0-.367-.073-.5-.206-2.626-2.625-3.888-6.269-3.463-9.997.622-5.413 4.998-9.851 10.405-10.551.541-.07 1.085-.106 1.62-.106 2.615 0 5.107.829 7.205 2.396l-1.03.956-.15.007c-1.665-1.254-3.802-1.94-6.028-1.94-.567 0-1.141.045-1.706.134-4.63.725-8.285 4.474-8.888 9.114-.437 3.347.669 6.622 3.034 8.988.275.275.275.723 0 .998-.133.134-.311.207-.499.207z"/><path d="m23.119 25.042c-.283 0-.526-.139-.565-.176-.274-.274-.274-.725.003-1 2.014-2.017 3.126-4.699 3.126-7.553 0-2.226-.686-4.364-1.981-6.18l1.077-1.021c1.491 2.08 2.319 4.575 2.319 7.201 0 3.17-1.26 6.209-3.548 8.56-.112.115-.253.169-.431.169z"/></g></svg>