<svg xmlns="http://www.w3.org/2000/svg" xmlns:xlink="http://www.w3.org/1999/xlink" width="42" height="98" viewBox="0 0 42 98"><svg width="9" height="6" viewBox="0 0 9 6" id="Arrow_Dropdown" y="0"><path d="M4.5 6L0 0h9L4.5 6z" fill="#fff"></path></svg><svg width="7" height="12" viewBox="0 0 7 12" fill="none" id="Arrow_back" y="6"><g clip-path="url(#a)"><path d="M6 11L2.102 6.669a1 1 0 0 1 0-1.338L6 1" stroke="#B7B7B7" stroke-width="2"></path></g><defs><clipPath id="a"><path fill="#fff" transform="rotate(-180 3.5 6)" d="M0 0h7v12H0z"></path></clipPath></defs></svg><svg width="7" height="12" viewBox="0 0 7 12" fill="none" id="Arrow_next" y="18"><g clip-path="url(#a)"><path d="M1 1l3.898 4.331a1 1 0 0 1 0 1.338L1 11" stroke="#B7B7B7" stroke-width="2"></path></g><defs><clipPath id="a"><path fill="#fff" d="M0 0h7v12H0z"></path></clipPath></defs></svg><svg width="42" height="21" viewBox="0 0 42 21" fill="none" id="Logo" y="30"><path d="M35.747 3.265c-1.025-.541-2.115-.988-3.204-1.403C27.578.204 21.781-.402 16.271.268 11.178.938 6.245 2.15 2.37 5.657.512 7.38-.578 9.962.32 12.417c1.184 3.03 4.324 5.04 7.142 6.187 8.328 3.35 19.635 3.222 27.676-.605 2.755-1.373 5.83-3.7 6.214-6.984.32-3.571-2.819-6.219-5.605-7.75zM17.169 4.7c.704-1.34 1.922-2.933 3.651-2.965 3.62-.032 7.111.51 10.41 1.435.192.095.448.159.544.35.096.222-.097.351-.224.51-2.723 2.105-5.83 3.285-9 4.338-1.602.381-3.236 1.085-5.03.701a1.587 1.587 0 0 1-1.025-.797c-.448-1.244.161-2.519.674-3.572zM6.119 15.703c-.418.382-.835-.128-1.218-.288-1.922-1.243-3.653-3.285-3.14-5.677.8-3.126 4.036-4.816 6.76-5.964a26.08 26.08 0 0 1 5.028-1.372c.192 0 .449-.032.512.16l-.063.191c-3.46 3.924-5.734 8.453-7.88 12.95zm17.647 1.499c-.8 1.213-2.081 2.265-3.651 2.105-3.491-.063-6.95-.574-10.122-1.53a.495.495 0 0 1-.352-.254c-.064-.193.032-.352.16-.48 2.915-2.328 6.342-3.412 9.77-4.56 1.28-.352 2.626-.765 4.067-.575.578.064 1.186.479 1.379 1.02.32 1.626-.545 2.966-1.251 4.274zm15.825-5.838c-.8 3.254-4.356 4.978-7.175 6.06-1.538.51-3.076 1.022-4.773 1.18-.096 0-.288 0-.288-.158l.032-.19c2.402-2.681 4.195-5.68 5.797-8.74a72.516 72.516 0 0 0 2.05-4.177.743.743 0 0 1 .288-.192c.577.096.994.541 1.474.861 1.633 1.34 3.106 3.157 2.595 5.356z" fill="#fff"></path></svg><svg width="17" height="17" viewBox="0 0 17 17" fill="none" id="Search" y="51"><path d="M7.625 13.625a6 6 0 1 0 0-12 6 6 0 0 0 0 12zM12 12l4 4" stroke="#000" stroke-width="2"></path></svg><svg width="16" height="16" viewBox="0 0 16 16" fill="none" id="close_icon" y="68"><path fill="#B7B7B7" d="M0 14.545L14.545 0l1.454 1.455L1.454 16z"></path><path fill="#B7B7B7" d="M1.455 0L16 14.545 14.546 16 0 1.455z"></path></svg><svg width="18" height="14" viewBox="0 0 18 14" fill="none" id="mail_icon" y="84"><g clip-path="#clip0" stroke="#fff" stroke-width="1.5"><path clip-rule="evenodd" d="M12.011.75H1.931a1.2 1.2 0 0 0-1.2 1.21v9.18a1.213 1.213 0 0 0 1.2 1.22h13.18a1.213 1.213 0 0 0 1.2-1.22V1.96a1.2 1.2 0 0 0-1.2-1.21h-3.1z"></path><path d="M1.611 1.62l6.92 4.93 7.611-4.93"></path></g></svg></svg>