<?xml version="1.0" encoding="utf-8"?>
<!-- Generator: Adobe Illustrator 23.0.1, SVG Export Plug-In . SVG Version: 6.00 Build 0)  -->
<svg version="1.1" id="Слой_1" xmlns="http://www.w3.org/2000/svg" xmlns:xlink="http://www.w3.org/1999/xlink" x="0px" y="0px"
	 viewBox="0 0 128.1 98.6" style="enable-background:new 0 0 128.1 98.6;" xml:space="preserve">
<style type="text/css">
	.st0{fill:#002C5F;}
	.st1{fill:#E4DCD3;}
</style>
<path class="st0" d="M64,69h4.8V3.7h-4.3L45.9,14.5l2,4l16-9.4L64,69L64,69z"/>
<path class="st1" d="M57.7,81.5v3.8c0,0-42.4-5.5-42.4-48c0-5.9,1.3-14.9,5.4-23.2c0,0-3.3,8.9-3.3,23.2
	C17.5,51.6,27.8,75.4,57.7,81.5z"/>
<path class="st1" d="M11.5,4.2c0,0,5.1,2.5,6.1,9.1s-3.2,10.5-3.2,10.5L11.5,4.2z"/>
<path class="st1" d="M14.3,23.7c0,0-5.1-2.5-6.1-9.1s3.2-10.5,3.2-10.5L14.3,23.7z"/>
<path class="st1" d="M5.5,69.3c0,0,4.8-4.7,12.5-3.1S28.2,74,28.2,74L5.5,69.3z"/>
<path class="st1" d="M28.2,74.1c0,0-4.8,4.7-12.5,3.1S5.5,69.4,5.5,69.4L28.2,74.1z"/>
<path class="st1" d="M32.3,96.5c0,0,1.6-7.1,9.6-10.4c8-3.2,14.1,1,14.1,1L32.3,96.5z"/>
<path class="st1" d="M56,87.1c0,0-1.6,7.1-9.6,10.4c-8,3.2-14.1-1-14.1-1L56,87.1z"/>
<path class="st1" d="M16.6,83.9c0,0,3.6-6,11.8-6.4s12.5,5.2,12.5,5.2L16.6,83.9z"/>
<path class="st1" d="M41,82.6c0,0-3.6,6-11.8,6.4s-12.5-5.2-12.5-5.2L41,82.6z"/>
<path class="st1" d="M1,52.3c0,0,5.4-2.7,11.7,0.9c6.2,3.6,6.6,9.7,6.6,9.7L1,52.3z"/>
<path class="st1" d="M19.4,62.9c0,0-5.4,2.7-11.7-0.9S1,52.3,1,52.3L19.4,62.9z"/>
<path class="st1" d="M0.4,34.7c0,0,6.2-0.7,11,4.8s3,11.5,3,11.5L0.4,34.7z"/>
<path class="st1" d="M14.4,51c0,0-6.2,0.7-11-4.8S0.3,34.7,0.3,34.7L14.4,51z"/>
<path class="st1" d="M3.8,18.7c0,0,5.5,1,8.3,6.9C15,31.7,12,36.5,12,36.5L3.8,18.7z"/>
<path class="st1" d="M12,36.5c0,0-5.5-1-8.3-6.9c-2.8-6.1,0.2-10.9,0.2-10.9L12,36.5z"/>
<path class="st1" d="M27.5,0c0,0,2.7,4.3,0.2,9.7s-7.4,6.2-7.4,6.2L27.5,0z"/>
<path class="st1" d="M20.3,15.9c0,0-2.7-4.3-0.2-9.7C22.6,0.7,27.5,0,27.5,0L20.3,15.9z"/>
<path class="st1" d="M70.5,81.5v3.8c0,0,42.4-5.5,42.4-48c0-5.9-1.3-14.9-5.4-23.2c0,0,3.3,8.9,3.3,23.2
	C110.6,51.6,99.3,75.4,70.5,81.5z"/>
<path class="st1" d="M116.7,4.2c0,0-5.1,2.5-6.1,9.1s3.2,10.5,3.2,10.5L116.7,4.2z"/>
<path class="st1" d="M113.8,23.7c0,0,5.1-2.5,6.1-9.1s-3.2-10.5-3.2-10.5L113.8,23.7z"/>
<path class="st1" d="M122.6,69.3c0,0-4.8-4.7-12.5-3.1S99.9,74,99.9,74L122.6,69.3z"/>
<path class="st1" d="M99.9,74.1c0,0,4.8,4.7,12.5,3.1s10.2-7.8,10.2-7.8L99.9,74.1z"/>
<path class="st1" d="M95.9,96.5c0,0-1.6-7.1-9.6-10.4c-8-3.2-14.1,1-14.1,1L95.9,96.5z"/>
<path class="st1" d="M72.2,87.1c0,0,1.6,7.1,9.6,10.4c8,3.2,14.1-1,14.1-1L72.2,87.1z"/>
<path class="st1" d="M111.5,83.9c0,0-3.6-6-11.8-6.4s-12.5,5.2-12.5,5.2L111.5,83.9z"/>
<path class="st1" d="M87.1,82.6c0,0,3.6,6,11.8,6.4s12.5-5.2,12.5-5.2L87.1,82.6z"/>
<path class="st1" d="M127.1,52.3c0,0-5.4-2.7-11.7,0.9c-6.2,3.6-6.6,9.7-6.6,9.7L127.1,52.3z"/>
<path class="st1" d="M108.8,62.9c0,0,5.4,2.7,11.7-0.9c6.2-3.6,6.6-9.7,6.6-9.7L108.8,62.9z"/>
<path class="st1" d="M127.8,34.7c0,0-6.2-0.7-11,4.8S113.7,51,113.7,51L127.8,34.7z"/>
<path class="st1" d="M113.7,51c0,0,6.2,0.7,11-4.8s3.1-11.5,3.1-11.5L113.7,51z"/>
<path class="st1" d="M124.4,18.7c0,0-5.5,1-8.3,6.9c-2.8,6.1,0.2,10.9,0.2,10.9L124.4,18.7z"/>
<path class="st1" d="M116.1,36.5c0,0,5.5-1,8.3-6.9c2.8-6.1-0.2-10.9-0.2-10.9L116.1,36.5z"/>
<path class="st1" d="M100.7,0c0,0-2.7,4.3-0.2,9.7s7.4,6.2,7.4,6.2L100.7,0z"/>
<path class="st1" d="M107.8,15.9c0,0,2.7-4.3,0.2-9.7c-2.4-5.5-7.3-6.2-7.3-6.2L107.8,15.9z"/>
</svg>
