<?xml version="1.0" encoding="utf-8"?>
<!-- Generator: Adobe Illustrator 22.0.0, SVG Export Plug-In . SVG Version: 6.00 Build 0)  -->
<svg version="1.1" id="Layer_1" xmlns="http://www.w3.org/2000/svg" xmlns:xlink="http://www.w3.org/1999/xlink" x="0px" y="0px"
	 viewBox="0 0 70 70" style="enable-background:new 0 0 70 70;" xml:space="preserve">
<g transform="translate(0,-952.36218)">
	<path d="M35,965.2c-0.9,0-1.7,0.8-1.7,1.7v17.4l-6.7-6.3c-0.6-0.7-1.8-0.7-2.4,0c-0.6,0.7-0.4,1.8,0.1,2.4l9.5,9
		c0.8,0.6,1.5,0.6,2.3,0l9.5-9c0.6-0.6,0.8-1.8,0.1-2.4c-0.6-0.7-1.9-0.6-2.4,0l-6.7,6.3v-17.4C36.7,966,35.9,965.2,35,965.2z
		 M25.5,992.1c-0.9,0-1.7,0.8-1.7,1.7s0.8,1.7,1.7,1.7h19c0.9,0,1.7-0.8,1.7-1.7s-0.8-1.7-1.7-1.7H25.5z"/>
</g>
</svg>
