<?xml version="1.0" encoding="utf-8"?>
<!-- Generator: Adobe Illustrator 22.0.0, SVG Export Plug-In . SVG Version: 6.00 Build 0)  -->
<svg version="1.1" id="Слой_1" xmlns="http://www.w3.org/2000/svg" xmlns:xlink="http://www.w3.org/1999/xlink" x="0px" y="0px"
	 viewBox="0 0 542 542" style="enable-background:new 0 0 542 542;" xml:space="preserve">
<style type="text/css">
	.st0{fill:#FFFFFF;}
</style>
<g>
	<path class="st0" d="M142.7,160.8L142.7,160.8c1.8,0,3.9-0.5,6.8-1.5l1.3,0.3l87,87l1.4-1.3c0.5-0.5,1.4-1.2,2.2-1.9
		c2.1-1.8,2.4-2.1,2.7-2.4l1.1-1.4l-9.8-9.8c-25.3-25.3-50.6-50.6-76-75.9c-1.3-1.3-1.9-2.4-1-4.4c2.1-4.7,1.4-9.3-1.9-12.8
		c-6.5-6.8-13.3-13.4-19.9-19.8c-2.1-2-4.1-4-6.2-6.1l-1.4-1.4l-21.1,21.2l24.4,24.4C136.1,158.7,138.9,160.8,142.7,160.8z
		 M122.2,131.1l0.1-1.6l5.9-6.1l1.4-0.3c0,0,0,0,0.1,0.1c5.6,5.5,11.1,11.1,16.7,16.6c2.6,2.6,3.6,3.7,3.6,4.9s-1,2.3-3.6,4.8
		c-1.2,1.1-2,1.8-3,1.8c-0.9,0-1.8-0.7-2.9-1.8c-6-5.9-11.9-11.9-17.8-17.8C122.5,131.5,122.3,131.3,122.2,131.1z"/>
	<path class="st0" d="M341.7,292.6l-22.8-22.7c-2-2-3.4-2.8-4.7-2.8c-1.4,0-2.8,0.8-4.8,2.8c-0.4,0.5-0.8,0.9-1.2,1.4l-0.1,0.1
		c-0.1,0.1-0.1,0.2-0.2,0.3l-1.7,0.1l-3-3.1c-1.8-1.9-3-3-4.8-5l-1.3-1.4l-0.1,0.1l-0.2-0.2c13.5-13.5,26.6-26.6,39.4-39.5
		c4.6-4.6,10.2-6.8,18.1-7h0.6c4.7-0.1,9.5-0.3,14-1.2c14.3-3,27.1-12,35.1-24.8s10.4-28.3,6.8-42.5c-0.8-2.9-1.6-4.7-4.1-5.3
		c-0.4-0.1-0.9-0.2-1.3-0.2c-2,0-3.4,1.4-4.7,2.7c-7.6,7.6-15.7,15.7-23.7,23.7c-3.1,3.1-5.9,3.1-9,0c-4.2-4.2-8.4-8.4-12.5-12.5
		l-0.5-0.5c-3.5-3.5-3.5-6.1,0-9.6c4.8-4.8,9.6-9.7,14.4-14.5l9-9.1c2.1-2.1,3-4.2,2.5-6c-0.5-1.7-2.3-3.1-5.1-3.8
		c-6.6-1.7-13.5-2.1-20.6-1.3c-27.5,3.3-49.1,28.5-48.3,56.1v0.9c0,0.6,0,1.2,0.1,1.8c0.5,6.4-1.5,11.6-6.4,16.5
		c-37.7,37.5-76.4,76.1-114.9,114.8c-4.9,4.9-10.8,7.2-18.6,7.3c-3.6,0-7.4,0.1-11.1,0.6c-15.1,2.1-28.8,10.9-37.6,24.3
		c-8.8,13.3-11.5,29.4-7.5,44.1c0.9,3.3,2.6,5.2,4.9,5.2c2,0,3.8-1.4,5-2.6c3.9-3.9,7.9-7.9,11.8-11.8c3.9-3.9,7.8-7.8,11.7-11.7
		c1.1-1.1,2.9-2.6,4.8-2.6c2,0,3.6,1.5,4.8,2.6c3.8,3.8,7.7,7.7,11.5,11.5l0.9,0.9c3.8,3.9,3.8,6.3,0,10.2c-2.6,2.6-5.1,5.1-7.7,7.7
		l-0.8,0.8c-5.1,5-10.3,10.3-15.4,15.4c-1.6,1.6-2.3,3.6-1.8,5.3c0.4,1.7,1.9,2.9,4.1,3.5c3.8,1,7.4,1.9,11.1,2c0.9,0,1.8,0,2.7,0
		c20.3,0,36.3-8.8,47.7-26.1c6.4-9.8,9.3-21.3,8.4-34.1c-0.4-5.6,1.4-10.4,5.6-14.6c14-14,27.6-27.5,40.8-40.6l1,0.9
		c2,1.9,4.4,4.3,6.6,6.5l2.2,2.2l-0.1,1.7c-0.2,0.1-0.3,0.2-0.5,0.3c-0.8,0.6-1.5,1.1-2.2,1.7c-2.8,2.8-2.8,5.2-0.1,8
		c2.4,2.4,4.8,4.9,7.2,7.3l78.1,78.1c5.7,5.7,12.3,8.7,19.1,8.7c6.8,0,13.5-3,19.3-8.8l3.3-3.3c3.2-3.2,6.4-6.3,9.5-9.5
		c10.5-10.7,10.5-26.1-0.1-36.6C383.4,334.4,362.6,313.5,341.7,292.6z M320.4,287.3L286,321.7h-1.6l-5.6-5.2v-1.7l34.6-34.6h1.7
		l5.4,5.4L320.4,287.3z M397.7,385.1L397.7,385.1c-3,3.1-6.1,6.1-9.1,9.1l-3.7,3.7c-8.1,8-16.9,8.1-24.9,0.1l-16.8-16.8
		c-16.3-16.3-32.5-32.5-48.8-48.8c-0.4-0.4-0.9-0.6-1.5-0.9l-0.2-1.7l35.5-35.6l1.6-0.1c0.3,0.3,0.7,0.6,1,0.9l12.8,12.8
		c18.1,18,36.1,36.1,54.1,54.2C404.3,368.9,404.3,378.3,397.7,385.1z M204.6,353.1c2.4,26.2-16,44.9-34.5,49.2c-2.9,0.7-6,1-9,1.4
		l-1,0.1c-0.8,0.1-1.6-0.4-2-1.1s-0.2-1.7,0.4-2.2c1.9-1.9,3.7-3.8,5.6-5.6l0.3-0.3c3-3,6.4-6.4,9.6-9.7c6.7-6.7,6.6-15.8,0-22.6
		c-4.9-5-9.4-9.4-13.6-13.6c-3.3-3.3-7.2-5-11.3-5s-8,1.7-11.3,5c-4.1,4-8.1,8.1-12.1,12.1l-3.4,3.4c-0.6,0.6-1.5,0.8-2.2,0.4
		c-0.8-0.4-1.2-1.1-1.1-2l0.1-0.9c0.3-2.9,0.6-5.7,1.2-8.5c4.8-20.9,23.3-35.5,45-35.5h1.3c3.9,0,7.9-0.4,12-1.1
		c4.3-0.8,8.2-3,12-6.8c42.4-42.4,80.6-80.6,119.6-119.6c5.2-5.2,7.5-11.7,6.9-19.2c-1.1-13.7,2.6-25.5,11.1-35.2
		c8.8-10,19.7-15.2,33.3-15.9h0.1c0.8,0,1.5,0.5,1.8,1.2s0.2,1.6-0.4,2.2c-2.1,2.1-4.1,4.1-6.2,6.2l-0.1,0.1c-3,3-5.9,5.9-8.9,8.9
		c-6.8,6.9-6.7,16.1,0.1,23c4.1,4.1,8.8,8.9,13.4,13.4c3.3,3.3,7.2,5,11.3,5c4.1,0,8-1.7,11.3-5c3.3-3.2,6.6-6.5,9.9-9.8l1-1
		c1.5-1.5,2.9-2.9,4.4-4.4c0.6-0.6,1.4-0.7,2.2-0.4c0.7,0.3,1.2,1,1.2,1.9c-0.2,7.2-1.5,13-4.2,18.1c-8.8,17.3-23,26.2-42.1,26.5
		h-1.4c-3.2,0-6.5,0.1-9.6,0.6c-5.3,0.8-10.1,3.4-14.3,7.6c-35.4,35.4-77,77.1-119,118.9C206.2,338.7,203.8,345.1,204.6,353.1z
		 M289.6,269.4l8.8,8.8v1.7L278.3,300h-1.7l-8.8-8.9C275.2,283.7,282.5,276.5,289.6,269.4z"/>
</g>
</svg>
