<?xml version="1.0" encoding="utf-8"?>
<!-- Generator: Adobe Illustrator 22.0.0, SVG Export Plug-In . SVG Version: 6.00 Build 0)  -->
<svg version="1.1" id="Слой_1" xmlns="http://www.w3.org/2000/svg" xmlns:xlink="http://www.w3.org/1999/xlink" x="0px" y="0px"
	 viewBox="0 0 512 512" style="enable-background:new 0 0 512 512;" xml:space="preserve">
<path d="M116.9,369.6c-0.8,0-1.5-0.2-2.2-0.6c-1.6-0.8-2.6-2.5-2.6-4.2V44.8c0-1.8,1-3.4,2.5-4.2c0.7-0.4,1.5-0.6,2.2-0.6
	c1,0,1.9,0.3,2.7,0.8l238.1,160c1.3,0.9,2.1,2.4,2.1,4c0,1.6-0.8,3.1-2.1,4l-238.1,160C118.8,369.3,117.9,369.6,116.9,369.6z
	 M121.7,355.8l224.7-151l-224.7-151V355.8z"/>
</svg>
