<?xml version="1.0" encoding="utf-8"?>
<!-- Generator: Adobe Illustrator 22.0.0, SVG Export Plug-In . SVG Version: 6.00 Build 0)  -->
<svg version="1.1" id="Слой_1" xmlns="http://www.w3.org/2000/svg" xmlns:xlink="http://www.w3.org/1999/xlink" x="0px" y="0px"
	 viewBox="0 0 542 542" style="enable-background:new 0 0 542 542;" xml:space="preserve">
<style type="text/css">
	.st0{fill:#FFFFFF;}
	.st1{fill:#00AED5;}
</style>
<g>
	<path class="st1" d="M297,183.3c1.5-3.2,1.3-6.9-0.6-10.2l-3.5-6.2c-2.7-4.9-8.6-8.4-14-8.5c-25-0.4-50.5,0.3-75.5,1.9
		c-6.5,0.4-11.8,5.9-12.1,12.4c-0.4,7.9-0.7,16-1,24.1c-0.1,3.6,1.3,6.9,4,9c1.9,1.6,4.4,2.5,7,2.5c0.9,0,1.9-0.1,2.9-0.3
		c33.6-8.1,60.6-14,85-18.6C292.6,188.6,295.5,186.4,297,183.3z M202.1,199.7c-0.9,0.2-1.7,0.3-2.6-0.4c-0.6-0.5-0.9-1.3-0.9-2.2
		c0.3-8,0.6-16.1,1-24c0.1-2.2,2.1-4.3,4.3-4.4c20.2-1.3,40.6-2,60.9-2c4.7,0,9.3,0,14,0.1c2.4,0,5.6,2,6.8,4.2l3.5,6.3
		c0.5,0.9,0.6,1.8,0.3,2.5c-0.3,0.6-1,1.1-1.9,1.3C262.9,185.6,235.8,191.6,202.1,199.7z"/>
	<path class="st1" d="M394.8,175.5l-39.2-42.3c-2.1-2.3-5-3.6-8.5-3.7c-2.9,0-5.7,1.1-7.9,3.1L322.5,148c-2.3,2.1-3.6,5-3.7,8.1
		c-0.1,2.3,0.6,5.6,2,7.2l3,3.2l-5,4.7c-8.7-9.9-16.8-19.1-20.2-23.1c-3.3-3.9-9.1-6.7-14-6.8c-35.2-0.9-70.7,0.6-105.9,4.6
		c-6.3,0.7-11.4,6-11.9,12.3c-5.5,68.2-5.5,137.3,0,205.5c0.5,6.3,5.6,11.6,11.9,12.3c28.4,3.2,57.3,4.8,86,4.8s57.6-1.6,86-4.8
		c6.3-0.7,11.4-6,11.9-12.3c0.7-9.2,1.4-18.5,1.9-27.8c0-0.2,0.1-0.3,0.1-0.5c0-0.1-0.1-0.2-0.1-0.3c0.5-9.1,1-18.2,1.3-27.3
		c0.6-17.3,0.8-34.7,0.7-52.1c0-0.2,0.1-0.3,0.1-0.5s-0.1-0.4-0.1-0.6c0-7.6,0-15.1-0.2-22.6c-0.1-4.6-2.5-10.3-5.7-13.9
		c-2.3-2.5-4.6-5-6.9-7.6l5.8-5.4l0.6,0.7c3,3.3,5.8,4.8,9.2,4.9c0.1,0,0.4,0,0.5,0c2.9,0,5.7-1.1,7.9-3.1l16.7-15.4
		C398.9,187.6,399.2,180.2,394.8,175.5z M357.8,232c0.1,6.3,0.1,12.6,0.1,18.8h-9.5c-2.3,0-4.2,1.9-4.2,4.2s1.9,4.2,4.2,4.2h9.5
		c0,3.9,0.1,7.8,0.1,11.7h-9.6c-2.3,0-4.2,1.9-4.2,4.2c0,2.3,1.9,4.2,4.2,4.2h9.4c-0.1,3.9-0.2,7.8-0.3,11.7h-9.1
		c-2.3,0-4.2,1.9-4.2,4.2c0,2.3,1.9,4.2,4.2,4.2h9c-0.1,2.7-0.1,5.4-0.2,8c0,1.2-0.1,2.4-0.2,3.7h-8.6c-2.3,0-4.2,1.9-4.2,4.2
		s1.9,4.2,4.2,4.2h8.2c-0.2,3.9-0.3,7.8-0.5,11.7h-7.7c-2.3,0-4.2,1.9-4.2,4.2c0,2.3,1.9,4.2,4.2,4.2h7.2c-0.5,7.8-1,15.6-1.6,23.4
		c-0.2,2.2-2.2,4.3-4.4,4.6c-56.1,6.3-113.9,6.3-170,0c-2.2-0.3-4.2-2.4-4.4-4.6c-5.4-67.8-5.4-136.4,0-204.2
		c0.2-2.2,2.2-4.3,4.4-4.6c28.2-3.2,56.8-4.8,85.2-4.8c6.5,0,13,0.1,19.5,0.3c2.5,0.1,6.1,1.8,7.8,3.9c3.8,4.5,13.4,15.4,23.2,26.5
		l0,0l0,0c4.8,5.4,9.6,10.8,13.8,15.6l9.7,11c0.1,0.1,0.2,0.3,0.3,0.4c0.4,0.4,0.8,0.8,1.1,1.3l0.1,0.1c0.1,0.1,0.1,0.1,0.2,0.2
		c4.6,5.1,9.3,10.2,13.8,15.1C356.1,225.6,357.8,229.4,357.8,232z M347.9,204.1c-0.5-0.5-0.9-1-1.4-1.5L335.4,190
		c-3.4-3.9-7.3-8.2-11.1-12.6l5.2-4.9l24.2,26.1L347.9,204.1z M388.5,185.8l-16.7,15.4c-0.6,0.6-1.3,0.9-2.1,0.9v4.2l-0.1-4.2
		c-0.5,0-1.3-0.1-3.3-2.2l-38.6-41.5c-0.1-0.2-0.3-1.1-0.3-1.9c0-0.9,0.4-1.6,1-2.2l16.7-15.4c0.6-0.5,1.3-0.8,2.3-0.8l0,0
		c0.9,0,1.6,0.4,2.2,1l39.2,42.4C389.8,182.5,389.8,184.6,388.5,185.8z"/>
	<path class="st1" d="M262.2,239.7c-27.3,0-49.6,22.2-49.6,49.5c0,27.3,22.2,49.5,49.6,49.5s49.6-22.2,49.6-49.5
		S289.6,239.7,262.2,239.7z M262.2,330.4c-22.7,0-41.1-18.5-41.1-41.1s18.5-41.1,41.1-41.1s41.1,18.5,41.1,41.1
		C303.4,312,284.9,330.4,262.2,330.4z"/>
	<path class="st1" d="M258.6,261c-2.8,4.7-16.8,28.7-16.8,38.3c0,11.3,9.2,20.4,20.4,20.4c11.3,0,20.4-9.2,20.4-20.4
		c0-9.6-14-33.6-16.8-38.3C264.3,258.4,260.1,258.4,258.6,261z M262.2,311.3c-6.6,0-12-5.4-12-12c0-4.4,6.2-17.2,12-27.7
		c5.8,10.5,12,23.3,12,27.7C274.2,305.9,268.9,311.3,262.2,311.3z"/>
</g>
</svg>
