<svg fill="none" height="10" viewBox="0 0 6 10" width="6" xmlns="http://www.w3.org/2000/svg"><path d="m1.82353 6.68588c-.02941-.08646-.05882-.18252-.08824-.28819-.0196-.11527-.02941-.22574-.02941-.33141 0-.35542.07843-.66282.2353-.92219.15686-.26897.41176-.52834.7647-.7781l.66177-.4755c.22549-.1633.40686-.33141.54411-.50432.14706-.18252.22059-.38425.22059-.60519 0-.3074-.11764-.56196-.35294-.76369-.22549-.21133-.52451-.317-.89706-.317s-.68137.10086-.92647.30259c-.23529.20173-.39215.48031-.47059.83574l-1.48529-.66283c.0882353-.28818.210784-.56196.367647-.82132.156863-.25937.357843-.489917.602941-.691646.245102-.201729.534312-.360231.867652-.475505.34313-.1248792.73039-.187319 1.16176-.187319.44118 0 .84314.0720462 1.20588.216138.37255.134486.69118.321806.95588.561959.26471.230543.47059.509123.61765.835733s.22059.67724.22059 1.05188c0 .29779-.03922.56676-.11765.80691-.06862.23055-.16666.44189-.29411.63401-.11765.18251-.25491.34582-.41177.48991-.14706.14409-.29902.27378-.45588.38905l-.66177.4755c-.22549.16331-.38725.32181-.48529.47551-.08824.1537-.13235.35543-.13235.60519v.14409zm-.29412 1.10951h2.26471v2.20461h-2.26471z" fill="#fff"/></svg>