<svg enable-background="new 0 0 200 200" viewBox="0 0 200 200" xmlns="http://www.w3.org/2000/svg"><circle cx="100" cy="100" fill="#f8dc2f" r="99"/><g fill="#262424"><path d="m120.6 107.5h-41.3v-9c1.3-.1 10.3-2.8 10.3-2.8v-37.7l-10.1 3.9-5.7-11.5s26-11.6 26.7-12.6h9.9v57.9s9.1 2.8 10.3 2.9v8.9z"/><path d="m47.9 115.7h6.4l5.4 14.6 5.4-14.6h6.4v20.7h-4.8v-13.4l-4.8 13.5h-4.3l-4.9-13.5v13.5h-4.8z"/><path d="m75.4 115.7h14.9v4.1h-10.1v4.1h8.7v4.1h-8.7v4.3h10.2v4.1h-15z"/><path d="m91.9 126.1c0-6.3 4.5-10.8 10.7-10.8 4.4 0 7.5 1.9 9.4 4.9l-3.5 2.7c-1.3-2-2.9-3.2-5.8-3.2-3.6 0-5.9 2.8-5.9 6.4 0 3.7 2.2 6.4 5.9 6.4 2.9 0 4.5-1.2 5.8-3.2l3.5 2.7c-1.9 3-5 4.9-9.4 4.9-6.2 0-10.7-4.5-10.7-10.8z"/><path d="m118.9 119.8h-6.1v-4.1h17v4.1h-6.1v16.6h-4.8z"/><path d="m130.2 126.1c0-6.3 4.5-10.8 10.7-10.8s10.7 4.5 10.7 10.8-4.5 10.8-10.7 10.8c-6.3 0-10.7-4.5-10.7-10.8zm16.4 0c0-3.7-2.1-6.4-5.8-6.4-3.6 0-5.8 2.8-5.8 6.4 0 3.7 2.1 6.4 5.8 6.4s5.8-2.7 5.8-6.4z"/><path d="m106.4 149.3c0 4.2-3.4 7.6-7.6 7.6s-7.6-3.4-7.6-7.6 3.4-7.6 7.6-7.6 7.6 3.4 7.6 7.6z"/></g><path d="m98.7 155.5c-3.4 0-6.2-2.8-6.2-6.2s2.8-6.2 6.2-6.2 6.2 2.8 6.2 6.2-2.8 6.2-6.2 6.2zm0-1.2c2.8 0 5-2.2 5-5 0-2.7-2.2-5-5-5-2.7 0-5 2.2-5 5 0 2.7 2.2 4.9 5 5-.1 0-.1 0 0 0z" fill="#f0db3b"/><path d="m98.7 143.7c-3.1 0-5.6 2.5-5.6 5.6h5.6z" fill="#262424"/><path d="m98.7 143.7c-3.1 0-5.6 2.5-5.6 5.6h5.6z" fill="#262424"/><path d="m98.7 154.9c3.1 0 5.6-2.5 5.6-5.6h-5.6z" fill="#262424"/><path d="m93 149.3c0 3.1 2.5 5.6 5.6 5.6v-5.6z" fill="#f0db3b"/><path d="m93 149.3c0 3.1 2.5 5.6 5.6 5.6v-5.6z" fill="#f0db3b"/><path d="m104.3 149.3c0-3.1-2.5-5.6-5.6-5.6v5.6z" fill="#f0db3b"/><g fill="#262424"><path d="m53.2 146.1 2.2-4.6 2.3 4.6 5 .7-3.6 3.5.9 5-4.5-2.3-4.5 2.4.8-5-3.6-3.6z"/><path d="m74.9 146.1 2.2-4.6 2.2 4.6 5.1.7-3.7 3.5.9 5-4.5-2.3-4.4 2.4.8-5-3.7-3.6z"/><path d="m118.2 146.5 2.2-4.5 2.2 4.5 5.1.7-3.6 3.6.8 5-4.5-2.4-4.4 2.4.8-5-3.6-3.5z"/><path d="m139.8 146.5 2.2-4.5 2.3 4.5 5 .7-3.6 3.6.9 5-4.5-2.4-4.5 2.4.9-5-3.7-3.5z"/></g></svg>