<svg width="843" height="515" viewBox="0 0 843 515" fill="none" xmlns="http://www.w3.org/2000/svg">
<path d="M406.815 439.109L405.883 439.135L405.886 439.235L406.817 439.21L406.815 439.109Z" fill="#1D1D1B"/>
<path d="M406.811 438.959L405.879 438.985L405.882 439.085L406.813 439.06L406.811 438.959Z" fill="#1D1D1B"/>
<path d="M406.807 438.809L405.875 438.835L405.878 438.935L406.81 438.909L406.807 438.809Z" fill="#1D1D1B"/>
<path d="M406.785 438.689L405.853 438.715L405.856 438.816L406.788 438.789L406.785 438.689Z" fill="#1D1D1B"/>
<path d="M406.798 438.51L405.866 438.536L405.869 438.636L406.801 438.611L406.798 438.51Z" fill="#1D1D1B"/>
<path d="M406.777 438.39L405.845 438.416L405.848 438.516L406.779 438.49L406.777 438.39Z" fill="#1D1D1B"/>
<path d="M406.79 438.21L405.858 438.235L405.861 438.336L406.793 438.31L406.79 438.21Z" fill="#1D1D1B"/>
<path d="M407.746 391.116L406.816 391.052L406.809 391.152L407.739 391.217L407.746 391.116Z" fill="#1D1D1B"/>
<path d="M407.762 390.925L406.833 390.861L406.826 390.962L407.756 391.026L407.762 390.925Z" fill="#1D1D1B"/>
<path d="M407.773 390.776L406.843 390.712L406.836 390.812L407.766 390.876L407.773 390.776Z" fill="#1D1D1B"/>
<path d="M407.766 390.642L406.836 390.578L406.829 390.679L407.759 390.743L407.766 390.642Z" fill="#1D1D1B"/>
<path d="M407.776 390.492L406.846 390.428L406.839 390.529L407.769 390.593L407.776 390.492Z" fill="#1D1D1B"/>
<path d="M407.804 390.327L406.875 390.263L406.868 390.363L407.797 390.427L407.804 390.327Z" fill="#1D1D1B"/>
<path d="M423.344 297.303L422.444 297.062L422.418 297.159L423.318 297.4L423.344 297.303Z" fill="#1D1D1B"/>
<path d="M423.686 296.187L422.787 295.942L422.761 296.04L423.66 296.284L423.686 296.187Z" fill="#1D1D1B"/>
<path d="M423.694 296.048L422.794 295.803L422.768 295.9L423.667 296.145L423.694 296.048Z" fill="#1D1D1B"/>
<path d="M423.742 295.889L422.843 295.645L422.816 295.742L423.715 295.986L423.742 295.889Z" fill="#1D1D1B"/>
<path d="M423.804 295.753L422.905 295.508L422.879 295.605L423.778 295.85L423.804 295.753Z" fill="#1D1D1B"/>
<path d="M423.825 295.558L422.925 295.313L422.899 295.41L423.799 295.654L423.825 295.558Z" fill="#1D1D1B"/>
<path d="M423.86 295.455L422.961 295.211L422.935 295.308L423.834 295.553L423.86 295.455Z" fill="#1D1D1B"/>
<path d="M423.891 295.324L422.991 295.079L422.965 295.177L423.864 295.422L423.891 295.324Z" fill="#1D1D1B"/>
<path d="M424.205 294.17L423.307 293.921L423.28 294.018L424.178 294.267L424.205 294.17Z" fill="#1D1D1B"/>
<path d="M424.245 294.026L423.347 293.777L423.32 293.874L424.218 294.123L424.245 294.026Z" fill="#1D1D1B"/>
<path d="M424.285 293.881L423.387 293.633L423.36 293.73L424.258 293.978L424.285 293.881Z" fill="#1D1D1B"/>
<path d="M424.325 293.737L423.427 293.488L423.4 293.585L424.298 293.834L424.325 293.737Z" fill="#1D1D1B"/>
<path d="M424.365 293.592L423.467 293.344L423.44 293.441L424.338 293.689L424.365 293.592Z" fill="#1D1D1B"/>
<path d="M424.405 293.448L423.507 293.2L423.48 293.297L424.378 293.545L424.405 293.448Z" fill="#1D1D1B"/>
<path d="M424.445 293.303L423.547 293.055L423.52 293.152L424.418 293.4L424.445 293.303Z" fill="#1D1D1B"/>
<path d="M424.774 292.115L423.877 291.863L423.85 291.959L424.747 292.211L424.774 292.115Z" fill="#1D1D1B"/>
<path d="M424.828 292.012L423.931 291.76L423.903 291.857L424.801 292.109L424.828 292.012Z" fill="#1D1D1B"/>
<path d="M424.879 291.837L423.982 291.585L423.955 291.682L424.852 291.934L424.879 291.837Z" fill="#1D1D1B"/>
<path d="M424.92 291.693L424.023 291.441L423.996 291.538L424.892 291.791L424.92 291.693Z" fill="#1D1D1B"/>
<path d="M424.96 291.549L424.063 291.296L424.036 291.393L424.933 291.646L424.96 291.549Z" fill="#1D1D1B"/>
<path d="M425.001 291.405L424.104 291.152L424.077 291.249L424.974 291.502L425.001 291.405Z" fill="#1D1D1B"/>
<path d="M425.018 291.25L424.121 290.998L424.093 291.095L424.99 291.347L425.018 291.25Z" fill="#1D1D1B"/>
<path d="M435.652 258.201L434.775 257.883L434.741 257.978L435.618 258.296L435.652 258.201Z" fill="#1D1D1B"/>
<path d="M435.687 258.03L434.81 257.714L434.776 257.807L435.653 258.124L435.687 258.03Z" fill="#1D1D1B"/>
<path d="M435.738 257.889L434.861 257.573L434.827 257.666L435.704 257.983L435.738 257.889Z" fill="#1D1D1B"/>
<path d="M435.789 257.748L434.912 257.432L434.878 257.525L435.755 257.842L435.789 257.748Z" fill="#1D1D1B"/>
<path d="M435.84 257.608L434.963 257.291L434.929 257.385L435.806 257.702L435.84 257.608Z" fill="#1D1D1B"/>
<path d="M435.881 257.497L435.005 257.18L434.971 257.274L435.846 257.592L435.881 257.497Z" fill="#1D1D1B"/>
<path d="M435.941 257.326L435.064 257.01L435.031 257.103L435.907 257.42L435.941 257.326Z" fill="#1D1D1B"/>
<path d="M436.358 256.198L435.483 255.878L435.448 255.972L436.323 256.292L436.358 256.198Z" fill="#1D1D1B"/>
<path d="M436.394 256.059L435.519 255.738L435.484 255.832L436.359 256.153L436.394 256.059Z" fill="#1D1D1B"/>
<path d="M436.445 255.918L435.57 255.597L435.536 255.691L436.411 256.012L436.445 255.918Z" fill="#1D1D1B"/>
<path d="M436.512 255.777L435.637 255.456L435.603 255.55L436.477 255.871L436.512 255.777Z" fill="#1D1D1B"/>
<path d="M436.548 255.637L435.673 255.316L435.638 255.41L436.513 255.731L436.548 255.637Z" fill="#1D1D1B"/>
<path d="M436.6 255.497L435.725 255.175L435.69 255.269L436.565 255.591L436.6 255.497Z" fill="#1D1D1B"/>
<path d="M436.667 255.355L435.792 255.035L435.758 255.129L436.632 255.449L436.667 255.355Z" fill="#1D1D1B"/>
<path d="M437.087 254.289L436.213 253.964L436.178 254.058L437.052 254.383L437.087 254.289Z" fill="#1D1D1B"/>
<path d="M437.105 254.116L436.231 253.792L436.197 253.885L437.071 254.209L437.105 254.116Z" fill="#1D1D1B"/>
<path d="M437.191 254.009L436.317 253.685L436.282 253.779L437.156 254.104L437.191 254.009Z" fill="#1D1D1B"/>
<path d="M437.243 253.869L436.37 253.544L436.335 253.638L437.208 253.963L437.243 253.869Z" fill="#1D1D1B"/>
<path d="M437.295 253.729L436.421 253.404L436.386 253.498L437.26 253.823L437.295 253.729Z" fill="#1D1D1B"/>
<path d="M437.347 253.589L436.474 253.264L436.439 253.358L437.313 253.682L437.347 253.589Z" fill="#1D1D1B"/>
<path d="M437.4 253.448L436.526 253.123L436.491 253.217L437.365 253.542L437.4 253.448Z" fill="#1D1D1B"/>
<path d="M437.806 252.311L436.933 251.982L436.898 252.076L437.77 252.405L437.806 252.311Z" fill="#1D1D1B"/>
<path d="M437.858 252.171L436.986 251.842L436.951 251.936L437.823 252.264L437.858 252.171Z" fill="#1D1D1B"/>
<path d="M437.927 251.986L437.055 251.657L437.02 251.751L437.892 252.08L437.927 251.986Z" fill="#1D1D1B"/>
<path d="M437.979 251.888L437.106 251.56L437.071 251.653L437.944 251.981L437.979 251.888Z" fill="#1D1D1B"/>
<path d="M438.032 251.706L437.16 251.377L437.125 251.471L437.997 251.8L438.032 251.706Z" fill="#1D1D1B"/>
<path d="M438.069 251.611L437.196 251.283L437.161 251.377L438.033 251.705L438.069 251.611Z" fill="#1D1D1B"/>
<path d="M438.122 251.471L437.25 251.143L437.214 251.237L438.087 251.565L438.122 251.471Z" fill="#1D1D1B"/>
<path d="M438.539 250.344L437.668 250.012L437.632 250.106L438.503 250.438L438.539 250.344Z" fill="#1D1D1B"/>
<path d="M438.578 250.208L437.707 249.876L437.671 249.97L438.542 250.302L438.578 250.208Z" fill="#1D1D1B"/>
<path d="M438.667 250.065L437.795 249.733L437.759 249.827L438.631 250.159L438.667 250.065Z" fill="#1D1D1B"/>
<path d="M438.7 249.924L437.829 249.592L437.793 249.686L438.664 250.018L438.7 249.924Z" fill="#1D1D1B"/>
<path d="M438.759 249.789L437.887 249.457L437.851 249.551L438.723 249.884L438.759 249.789Z" fill="#1D1D1B"/>
<path d="M438.806 249.644L437.935 249.312L437.899 249.406L438.77 249.738L438.806 249.644Z" fill="#1D1D1B"/>
<path d="M438.845 249.508L437.974 249.176L437.938 249.27L438.809 249.602L438.845 249.508Z" fill="#1D1D1B"/>
<path d="M439.294 248.39L438.424 248.054L438.388 248.148L439.258 248.484L439.294 248.39Z" fill="#1D1D1B"/>
<path d="M439.349 248.251L438.479 247.915L438.442 248.009L439.312 248.345L439.349 248.251Z" fill="#1D1D1B"/>
<path d="M439.384 248.109L438.514 247.773L438.478 247.868L439.347 248.204L439.384 248.109Z" fill="#1D1D1B"/>
<path d="M439.452 247.984L438.583 247.648L438.547 247.742L439.416 248.078L439.452 247.984Z" fill="#1D1D1B"/>
<path d="M439.492 247.83L438.622 247.494L438.586 247.588L439.455 247.924L439.492 247.83Z" fill="#1D1D1B"/>
<path d="M439.559 247.684L438.69 247.348L438.654 247.442L439.523 247.777L439.559 247.684Z" fill="#1D1D1B"/>
<path d="M439.618 247.551L438.748 247.215L438.712 247.309L439.582 247.645L439.618 247.551Z" fill="#1D1D1B"/>
<path d="M440.059 246.442L439.19 246.103L439.154 246.196L440.022 246.535L440.059 246.442Z" fill="#1D1D1B"/>
<path d="M440.094 246.279L439.226 245.94L439.189 246.033L440.057 246.372L440.094 246.279Z" fill="#1D1D1B"/>
<path d="M440.182 246.156L439.313 245.816L439.277 245.91L440.145 246.249L440.182 246.156Z" fill="#1D1D1B"/>
<path d="M440.234 246.029L439.367 245.689L439.33 245.783L440.198 246.122L440.234 246.029Z" fill="#1D1D1B"/>
<path d="M440.293 245.898L439.425 245.558L439.388 245.652L440.256 245.992L440.293 245.898Z" fill="#1D1D1B"/>
<path d="M440.332 245.744L439.463 245.404L439.427 245.498L440.295 245.838L440.332 245.744Z" fill="#1D1D1B"/>
<path d="M440.367 245.582L439.499 245.242L439.462 245.336L440.33 245.675L440.367 245.582Z" fill="#1D1D1B"/>
<path d="M440.806 244.489L439.939 244.145L439.902 244.238L440.769 244.582L440.806 244.489Z" fill="#1D1D1B"/>
<path d="M440.861 244.349L439.994 244.006L439.957 244.099L440.824 244.442L440.861 244.349Z" fill="#1D1D1B"/>
<path d="M440.916 244.21L440.049 243.866L440.012 243.959L440.879 244.303L440.916 244.21Z" fill="#1D1D1B"/>
<path d="M440.971 244.07L440.104 243.727L440.067 243.82L440.934 244.164L440.971 244.07Z" fill="#1D1D1B"/>
<path d="M441.059 243.947L440.192 243.604L440.155 243.697L441.022 244.04L441.059 243.947Z" fill="#1D1D1B"/>
<path d="M441.081 243.792L440.215 243.448L440.178 243.541L441.045 243.885L441.081 243.792Z" fill="#1D1D1B"/>
<path d="M441.137 243.653L440.27 243.309L440.233 243.402L441.1 243.746L441.137 243.653Z" fill="#1D1D1B"/>
<path d="M441.618 242.523L440.752 242.175L440.715 242.269L441.58 242.616L441.618 242.523Z" fill="#1D1D1B"/>
<path d="M441.674 242.384L440.809 242.036L440.771 242.13L441.636 242.478L441.674 242.384Z" fill="#1D1D1B"/>
<path d="M441.729 242.245L440.864 241.897L440.827 241.991L441.692 242.339L441.729 242.245Z" fill="#1D1D1B"/>
<path d="M441.798 242.095L440.933 241.748L440.896 241.842L441.761 242.189L441.798 242.095Z" fill="#1D1D1B"/>
<path d="M441.841 241.966L440.976 241.619L440.939 241.712L441.804 242.059L441.841 241.966Z" fill="#1D1D1B"/>
<path d="M441.897 241.828L441.032 241.48L440.995 241.574L441.86 241.921L441.897 241.828Z" fill="#1D1D1B"/>
<path d="M441.966 241.678L441.101 241.331L441.063 241.424L441.928 241.771L441.966 241.678Z" fill="#1D1D1B"/>
<path d="M442.379 240.578L441.515 240.227L441.477 240.321L442.341 240.672L442.379 240.578Z" fill="#1D1D1B"/>
<path d="M442.435 240.439L441.572 240.088L441.534 240.182L442.397 240.533L442.435 240.439Z" fill="#1D1D1B"/>
<path d="M442.492 240.301L441.628 239.95L441.59 240.043L442.454 240.394L442.492 240.301Z" fill="#1D1D1B"/>
<path d="M442.548 240.162L441.685 239.811L441.647 239.904L442.51 240.255L442.548 240.162Z" fill="#1D1D1B"/>
<path d="M442.604 240.023L441.741 239.672L441.703 239.765L442.566 240.116L442.604 240.023Z" fill="#1D1D1B"/>
<path d="M442.661 239.885L441.797 239.534L441.759 239.627L442.623 239.978L442.661 239.885Z" fill="#1D1D1B"/>
<path d="M442.718 239.745L441.854 239.395L441.816 239.488L442.68 239.839L442.718 239.745Z" fill="#1D1D1B"/>
<path d="M449.841 223.117L448.992 222.734L448.951 222.825L449.8 223.208L449.841 223.117Z" fill="#1D1D1B"/>
<path d="M449.903 222.981L449.054 222.597L449.012 222.688L449.862 223.072L449.903 222.981Z" fill="#1D1D1B"/>
<path d="M449.985 222.818L449.135 222.434L449.094 222.526L449.943 222.91L449.985 222.818Z" fill="#1D1D1B"/>
<path d="M450.026 222.707L449.177 222.324L449.136 222.415L449.985 222.799L450.026 222.707Z" fill="#1D1D1B"/>
<path d="M450.088 222.571L449.239 222.187L449.198 222.279L450.047 222.662L450.088 222.571Z" fill="#1D1D1B"/>
<path d="M450.15 222.435L449.301 222.051L449.26 222.143L450.109 222.526L450.15 222.435Z" fill="#1D1D1B"/>
<path d="M450.664 221.348L449.816 220.961L449.774 221.052L450.622 221.439L450.664 221.348Z" fill="#1D1D1B"/>
<path d="M450.72 221.17L449.873 220.783L449.831 220.874L450.678 221.262L450.72 221.17Z" fill="#1D1D1B"/>
<path d="M450.807 221.05L449.959 220.663L449.918 220.754L450.765 221.142L450.807 221.05Z" fill="#1D1D1B"/>
<path d="M450.845 220.897L449.997 220.51L449.955 220.601L450.803 220.989L450.845 220.897Z" fill="#1D1D1B"/>
<path d="M450.932 220.778L450.084 220.39L450.042 220.482L450.89 220.869L450.932 220.778Z" fill="#1D1D1B"/>
<path d="M450.975 220.666L450.127 220.279L450.086 220.371L450.934 220.758L450.975 220.666Z" fill="#1D1D1B"/>
<path d="M451.038 220.53L450.19 220.143L450.148 220.235L450.996 220.622L451.038 220.53Z" fill="#1D1D1B"/>
<path d="M451.512 219.441L450.666 219.049L450.624 219.141L451.47 219.532L451.512 219.441Z" fill="#1D1D1B"/>
<path d="M451.609 219.29L450.763 218.899L450.721 218.99L451.567 219.381L451.609 219.29Z" fill="#1D1D1B"/>
<path d="M451.672 219.153L450.826 218.762L450.784 218.854L451.63 219.245L451.672 219.153Z" fill="#1D1D1B"/>
<path d="M451.735 219.017L450.889 218.626L450.847 218.717L451.693 219.108L451.735 219.017Z" fill="#1D1D1B"/>
<path d="M451.764 218.897L450.917 218.506L450.875 218.597L451.721 218.988L451.764 218.897Z" fill="#1D1D1B"/>
<path d="M451.852 218.772L451.006 218.38L450.964 218.472L451.81 218.864L451.852 218.772Z" fill="#1D1D1B"/>
<path d="M451.923 218.609L451.077 218.218L451.035 218.31L451.881 218.701L451.923 218.609Z" fill="#1D1D1B"/>
<path d="M452.4 217.544L451.555 217.149L451.512 217.241L452.357 217.636L452.4 217.544Z" fill="#1D1D1B"/>
<path d="M452.472 217.38L451.627 216.986L451.584 217.077L452.429 217.472L452.472 217.38Z" fill="#1D1D1B"/>
<path d="M452.527 217.273L451.682 216.878L451.639 216.969L452.484 217.364L452.527 217.273Z" fill="#1D1D1B"/>
<path d="M452.6 217.103L451.756 216.708L451.714 216.8L452.558 217.194L452.6 217.103Z" fill="#1D1D1B"/>
<path d="M452.653 217.001L451.809 216.606L451.766 216.698L452.611 217.093L452.653 217.001Z" fill="#1D1D1B"/>
<path d="M452.725 216.838L451.881 216.443L451.838 216.534L452.683 216.929L452.725 216.838Z" fill="#1D1D1B"/>
<path d="M452.78 216.73L451.936 216.335L451.893 216.426L452.738 216.821L452.78 216.73Z" fill="#1D1D1B"/>
<path d="M453.313 215.625L452.471 215.226L452.428 215.317L453.27 215.715L453.313 215.625Z" fill="#1D1D1B"/>
<path d="M453.374 215.495L452.531 215.097L452.488 215.187L453.331 215.586L453.374 215.495Z" fill="#1D1D1B"/>
<path d="M453.433 215.383L452.591 214.984L452.548 215.075L453.39 215.474L453.433 215.383Z" fill="#1D1D1B"/>
<path d="M453.522 215.203L452.679 214.805L452.636 214.896L453.479 215.294L453.522 215.203Z" fill="#1D1D1B"/>
<path d="M453.569 215.083L452.727 214.685L452.684 214.775L453.526 215.173L453.569 215.083Z" fill="#1D1D1B"/>
<path d="M453.627 214.959L452.784 214.561L452.741 214.652L453.584 215.05L453.627 214.959Z" fill="#1D1D1B"/>
<path d="M453.71 214.803L452.867 214.404L452.824 214.495L453.667 214.894L453.71 214.803Z" fill="#1D1D1B"/>
<path d="M454.229 213.716L453.388 213.314L453.344 213.404L454.186 213.807L454.229 213.716Z" fill="#1D1D1B"/>
<path d="M454.268 213.607L453.427 213.205L453.384 213.296L454.225 213.698L454.268 213.607Z" fill="#1D1D1B"/>
<path d="M454.338 213.466L453.497 213.064L453.454 213.155L454.295 213.556L454.338 213.466Z" fill="#1D1D1B"/>
<path d="M454.403 213.33L453.562 212.929L453.518 213.019L454.359 213.421L454.403 213.33Z" fill="#1D1D1B"/>
<path d="M454.463 213.202L453.621 212.8L453.578 212.891L454.419 213.293L454.463 213.202Z" fill="#1D1D1B"/>
<path d="M454.532 213.06L453.69 212.658L453.647 212.749L454.488 213.151L454.532 213.06Z" fill="#1D1D1B"/>
<path d="M454.596 212.925L453.755 212.523L453.712 212.614L454.553 213.016L454.596 212.925Z" fill="#1D1D1B"/>
<path d="M455.124 211.827L454.285 211.422L454.242 211.512L455.081 211.917L455.124 211.827Z" fill="#1D1D1B"/>
<path d="M455.183 211.724L454.344 211.318L454.3 211.408L455.14 211.814L455.183 211.724Z" fill="#1D1D1B"/>
<path d="M455.248 211.589L454.409 211.183L454.365 211.274L455.204 211.679L455.248 211.589Z" fill="#1D1D1B"/>
<path d="M455.313 211.454L454.474 211.048L454.43 211.138L455.269 211.544L455.313 211.454Z" fill="#1D1D1B"/>
<path d="M455.372 211.325L454.533 210.92L454.489 211.01L455.329 211.415L455.372 211.325Z" fill="#1D1D1B"/>
<path d="M455.45 211.152L454.611 210.747L454.568 210.837L455.407 211.242L455.45 211.152Z" fill="#1D1D1B"/>
<path d="M455.509 211.049L454.669 210.643L454.626 210.733L455.465 211.139L455.509 211.049Z" fill="#1D1D1B"/>
<path d="M456.041 209.967L455.204 209.558L455.16 209.648L455.998 210.057L456.041 209.967Z" fill="#1D1D1B"/>
<path d="M456.12 209.822L455.282 209.413L455.238 209.503L456.076 209.912L456.12 209.822Z" fill="#1D1D1B"/>
<path d="M456.173 209.697L455.336 209.289L455.292 209.379L456.129 209.787L456.173 209.697Z" fill="#1D1D1B"/>
<path d="M456.259 209.545L455.421 209.136L455.377 209.227L456.215 209.636L456.259 209.545Z" fill="#1D1D1B"/>
<path d="M456.324 209.41L455.487 209.001L455.443 209.092L456.28 209.501L456.324 209.41Z" fill="#1D1D1B"/>
<path d="M456.37 209.293L455.532 208.885L455.488 208.975L456.326 209.383L456.37 209.293Z" fill="#1D1D1B"/>
<path d="M456.429 209.166L455.591 208.757L455.547 208.847L456.385 209.256L456.429 209.166Z" fill="#1D1D1B"/>
<path d="M456.961 208.061L456.125 207.648L456.08 207.738L456.916 208.151L456.961 208.061Z" fill="#1D1D1B"/>
<path d="M457.027 207.926L456.191 207.513L456.146 207.604L456.982 208.017L457.027 207.926Z" fill="#1D1D1B"/>
<path d="M457.094 207.792L456.258 207.379L456.213 207.469L457.049 207.882L457.094 207.792Z" fill="#1D1D1B"/>
<path d="M457.13 207.681L456.294 207.269L456.25 207.359L457.086 207.771L457.13 207.681Z" fill="#1D1D1B"/>
<path d="M457.226 207.523L456.391 207.11L456.346 207.201L457.182 207.614L457.226 207.523Z" fill="#1D1D1B"/>
<path d="M457.263 207.412L456.427 206.999L456.383 207.09L457.219 207.502L457.263 207.412Z" fill="#1D1D1B"/>
<path d="M457.338 207.27L456.502 206.858L456.458 206.948L457.293 207.361L457.338 207.27Z" fill="#1D1D1B"/>
<path d="M457.854 206.201L457.021 205.784L456.976 205.874L457.809 206.291L457.854 206.201Z" fill="#1D1D1B"/>
<path d="M457.963 206.101L457.128 205.684L457.083 205.774L457.918 206.191L457.963 206.101Z" fill="#1D1D1B"/>
<path d="M458.045 205.923L457.211 205.507L457.166 205.597L458 206.013L458.045 205.923Z" fill="#1D1D1B"/>
<path d="M458.113 205.789L457.278 205.373L457.233 205.463L458.068 205.879L458.113 205.789Z" fill="#1D1D1B"/>
<path d="M458.17 205.662L457.335 205.246L457.29 205.336L458.125 205.753L458.17 205.662Z" fill="#1D1D1B"/>
<path d="M458.189 205.531L457.355 205.114L457.31 205.204L458.144 205.621L458.189 205.531Z" fill="#1D1D1B"/>
<path d="M458.256 205.396L457.422 204.98L457.377 205.07L458.211 205.487L458.256 205.396Z" fill="#1D1D1B"/>
<path d="M458.851 204.322L458.019 203.902L457.973 203.992L458.805 204.412L458.851 204.322Z" fill="#1D1D1B"/>
<path d="M458.907 204.196L458.074 203.776L458.029 203.866L458.862 204.286L458.907 204.196Z" fill="#1D1D1B"/>
<path d="M458.965 204.068L458.133 203.648L458.087 203.738L458.919 204.158L458.965 204.068Z" fill="#1D1D1B"/>
<path d="M459.021 203.942L458.188 203.522L458.143 203.612L458.976 204.031L459.021 203.942Z" fill="#1D1D1B"/>
<path d="M459.11 203.794L458.277 203.374L458.231 203.464L459.064 203.884L459.11 203.794Z" fill="#1D1D1B"/>
<path d="M459.165 203.668L458.333 203.248L458.287 203.338L459.12 203.758L459.165 203.668Z" fill="#1D1D1B"/>
<path d="M459.256 203.519L458.423 203.099L458.378 203.19L459.21 203.61L459.256 203.519Z" fill="#1D1D1B"/>
<path d="M459.788 202.443L458.957 202.019L458.911 202.109L459.742 202.532L459.788 202.443Z" fill="#1D1D1B"/>
<path d="M459.856 202.309L459.025 201.886L458.98 201.975L459.81 202.399L459.856 202.309Z" fill="#1D1D1B"/>
<path d="M459.932 202.171L459.101 201.747L459.055 201.837L459.886 202.261L459.932 202.171Z" fill="#1D1D1B"/>
<path d="M459.992 202.042L459.161 201.619L459.115 201.709L459.946 202.132L459.992 202.042Z" fill="#1D1D1B"/>
<path d="M460.054 201.947L459.224 201.524L459.178 201.613L460.009 202.037L460.054 201.947Z" fill="#1D1D1B"/>
<path d="M460.123 201.814L459.292 201.39L459.246 201.48L460.077 201.904L460.123 201.814Z" fill="#1D1D1B"/>
<path d="M460.196 201.642L459.366 201.218L459.32 201.308L460.15 201.732L460.196 201.642Z" fill="#1D1D1B"/>
<path d="M460.74 200.573L459.912 200.146L459.866 200.235L460.695 200.662L460.74 200.573Z" fill="#1D1D1B"/>
<path d="M460.795 200.448L459.966 200.022L459.921 200.11L460.75 200.537L460.795 200.448Z" fill="#1D1D1B"/>
<path d="M460.864 200.315L460.035 199.888L459.99 199.977L460.818 200.403L460.864 200.315Z" fill="#1D1D1B"/>
<path d="M460.932 200.182L460.104 199.755L460.058 199.844L460.887 200.27L460.932 200.182Z" fill="#1D1D1B"/>
<path d="M461.001 200.049L460.172 199.622L460.127 199.711L460.956 200.137L461.001 200.049Z" fill="#1D1D1B"/>
<path d="M461.07 199.915L460.241 199.489L460.196 199.577L461.025 200.004L461.07 199.915Z" fill="#1D1D1B"/>
<path d="M461.139 199.782L460.31 199.356L460.264 199.444L461.093 199.871L461.139 199.782Z" fill="#1D1D1B"/>
<path d="M461.704 198.755L460.878 198.324L460.831 198.414L461.658 198.844L461.704 198.755Z" fill="#1D1D1B"/>
<path d="M461.784 198.579L460.957 198.148L460.91 198.238L461.737 198.668L461.784 198.579Z" fill="#1D1D1B"/>
<path d="M461.842 198.489L461.016 198.058L460.969 198.148L461.796 198.578L461.842 198.489Z" fill="#1D1D1B"/>
<path d="M461.923 198.313L461.096 197.883L461.049 197.972L461.876 198.403L461.923 198.313Z" fill="#1D1D1B"/>
<path d="M461.981 198.223L461.154 197.792L461.108 197.882L461.934 198.312L461.981 198.223Z" fill="#1D1D1B"/>
<path d="M462.061 198.047L461.234 197.617L461.187 197.707L462.014 198.137L462.061 198.047Z" fill="#1D1D1B"/>
<path d="M462.13 197.914L461.303 197.484L461.257 197.574L462.084 198.004L462.13 197.914Z" fill="#1D1D1B"/>
<path d="M462.635 196.884L461.81 196.45L461.763 196.54L462.588 196.973L462.635 196.884Z" fill="#1D1D1B"/>
<path d="M462.721 196.743L461.896 196.309L461.85 196.398L462.675 196.832L462.721 196.743Z" fill="#1D1D1B"/>
<path d="M462.813 196.602L461.988 196.168L461.941 196.257L462.766 196.691L462.813 196.602Z" fill="#1D1D1B"/>
<path d="M462.839 196.487L462.014 196.053L461.968 196.142L462.792 196.575L462.839 196.487Z" fill="#1D1D1B"/>
<path d="M462.936 196.345L462.11 195.911L462.063 196L462.889 196.434L462.936 196.345Z" fill="#1D1D1B"/>
<path d="M462.983 196.222L462.158 195.788L462.111 195.877L462.936 196.311L462.983 196.222Z" fill="#1D1D1B"/>
<path d="M463.053 196.089L462.228 195.655L462.181 195.744L463.007 196.178L463.053 196.089Z" fill="#1D1D1B"/>
<path d="M501.403 134.704L500.651 134.153L500.591 134.234L501.343 134.785L501.403 134.704Z" fill="#1D1D1B"/>
<path d="M501.491 134.583L500.739 134.032L500.68 134.113L501.431 134.664L501.491 134.583Z" fill="#1D1D1B"/>
<path d="M501.597 134.466L500.846 133.915L500.786 133.996L501.538 134.547L501.597 134.466Z" fill="#1D1D1B"/>
<path d="M501.668 134.342L500.916 133.791L500.857 133.872L501.609 134.423L501.668 134.342Z" fill="#1D1D1B"/>
<path d="M501.82 134.205L501.068 133.653L501.008 133.735L501.76 134.286L501.82 134.205Z" fill="#1D1D1B"/>
<path d="M501.845 134.1L501.093 133.549L501.034 133.63L501.786 134.181L501.845 134.1Z" fill="#1D1D1B"/>
<path d="M501.997 133.963L501.245 133.412L501.186 133.493L501.937 134.044L501.997 133.963Z" fill="#1D1D1B"/>
<path d="M502.688 133.014L501.938 132.46L501.879 132.541L502.628 133.095L502.688 133.014Z" fill="#1D1D1B"/>
<path d="M502.777 132.894L502.028 132.339L501.968 132.42L502.717 132.975L502.777 132.894Z" fill="#1D1D1B"/>
<path d="M502.866 132.774L502.117 132.219L502.056 132.301L502.806 132.855L502.866 132.774Z" fill="#1D1D1B"/>
<path d="M502.955 132.653L502.206 132.099L502.146 132.18L502.895 132.735L502.955 132.653Z" fill="#1D1D1B"/>
<path d="M503.044 132.533L502.295 131.979L502.235 132.06L502.984 132.614L503.044 132.533Z" fill="#1D1D1B"/>
<path d="M503.112 132.43L502.362 131.876L502.302 131.956L503.052 132.511L503.112 132.43Z" fill="#1D1D1B"/>
<path d="M503.233 132.272L502.483 131.718L502.424 131.799L503.173 132.353L503.233 132.272Z" fill="#1D1D1B"/>
<path d="M503.928 131.338L503.182 130.781L503.122 130.861L503.869 131.418L503.928 131.338Z" fill="#1D1D1B"/>
<path d="M504.029 131.198L503.281 130.641L503.221 130.721L503.969 131.278L504.029 131.198Z" fill="#1D1D1B"/>
<path d="M504.108 131.098L503.361 130.541L503.301 130.621L504.048 131.178L504.108 131.098Z" fill="#1D1D1B"/>
<path d="M504.198 130.977L503.451 130.42L503.391 130.501L504.138 131.058L504.198 130.977Z" fill="#1D1D1B"/>
<path d="M504.287 130.857L503.541 130.3L503.481 130.381L504.227 130.938L504.287 130.857Z" fill="#1D1D1B"/>
<path d="M504.377 130.737L503.63 130.18L503.57 130.261L504.317 130.818L504.377 130.737Z" fill="#1D1D1B"/>
<path d="M504.456 130.581L503.709 130.023L503.65 130.104L504.396 130.661L504.456 130.581Z" fill="#1D1D1B"/>
<path d="M505.164 129.673L504.419 129.112L504.359 129.192L505.104 129.753L505.164 129.673Z" fill="#1D1D1B"/>
<path d="M505.235 129.537L504.491 128.977L504.431 129.057L505.175 129.617L505.235 129.537Z" fill="#1D1D1B"/>
<path d="M505.355 129.397L504.61 128.837L504.55 128.917L505.295 129.477L505.355 129.397Z" fill="#1D1D1B"/>
<path d="M505.416 129.298L504.671 128.738L504.611 128.818L505.355 129.378L505.416 129.298Z" fill="#1D1D1B"/>
<path d="M604.081 30.6822L603.521 29.9375L603.441 29.998L604.001 30.7427L604.081 30.6822Z" fill="#1D1D1B"/>
<path d="M604.178 30.5901L603.618 29.8448L603.538 29.9053L604.098 30.6506L604.178 30.5901Z" fill="#1D1D1B"/>
<path d="M604.286 30.5213L603.727 29.7764L603.646 29.8369L604.205 30.5818L604.286 30.5213Z" fill="#1D1D1B"/>
<path d="M604.417 30.4104L603.857 29.6652L603.776 29.7257L604.336 30.4709L604.417 30.4104Z" fill="#1D1D1B"/>
<path d="M604.56 30.3223L604 29.5776L603.92 29.6378L604.48 30.3825L604.56 30.3223Z" fill="#1D1D1B"/>
<path d="M604.641 30.2704L604.081 29.5255L604.001 29.5857L604.561 30.3307L604.641 30.2704Z" fill="#1D1D1B"/>
<path d="M604.777 30.1403L604.217 29.395L604.136 29.4555L604.696 30.2008L604.777 30.1403Z" fill="#1D1D1B"/>
<path d="M314.548 372.666V255.438" stroke="#00AAD2" stroke-width="13" stroke-miterlimit="10"/>
<path d="M210.5 162L314.81 54.3662L473.921 213.477L314.81 372.587L213 266" stroke="#00AAD2" stroke-width="16" stroke-miterlimit="10" stroke-linejoin="round"/>
<path d="M357.034 170.729H272.587V255.175H357.034V170.729Z" stroke="#00AAD2" stroke-width="18" stroke-miterlimit="10" stroke-linejoin="round"/>
<path d="M355.723 213.301H723.406" stroke="#00AAD2" stroke-width="22" stroke-miterlimit="10" stroke-linejoin="round"/>
<path d="M314.811 170.683V54.287" stroke="#00AAD2" stroke-width="13" stroke-miterlimit="10" stroke-linejoin="round"/>
<path d="M392.438 132.064H645.254V293.989H392.438" stroke="#00AAD2" stroke-width="8" stroke-miterlimit="10" stroke-linejoin="round"/>
<path d="M645.265 132H735V171H645" stroke="#00AAD2" stroke-width="8" stroke-miterlimit="10" stroke-linejoin="round"/>
<path d="M597.239 329H529.761C528.236 329 527 327.89 527 326.52V306.48C527 305.11 528.236 304 529.761 304H597.239C598.764 304 600 305.11 600 306.48V326.52C600 327.89 598.764 329 597.239 329Z" stroke="#00AAD2" stroke-width="4" stroke-miterlimit="10"/>
<path d="M235.085 155.256H200.169V272.222H235.085V155.256Z" fill="#00AAD2"/>
<path d="M707 179H667V198H707V179Z" fill="#00AAD2"/>
<path d="M272.85 193.021H234.263V233.932H272.85V193.021Z" fill="#00AAD2"/>
<path d="M618.86 365H556.139C554.406 365 553 363.56 553 361.783V346.217C553 344.44 554.406 343 556.139 343H618.86C620.594 343 622 344.44 622 346.217V361.783C622 363.56 620.594 365 618.86 365Z" fill="#00AAD2"/>
<path d="M314.024 372.666V255.438" stroke="white" stroke-width="2" stroke-miterlimit="10" stroke-dasharray="12 12"/>
<path d="M314.286 54.3662L473.396 213.477L314.286 372.587" stroke="white" stroke-width="2" stroke-miterlimit="10" stroke-dasharray="12 12"/>
<path d="M356.509 170.729H272.063V255.175H356.509V170.729Z" stroke="white" stroke-width="2" stroke-miterlimit="10" stroke-dasharray="12 12"/>
<path d="M355.198 213.301H517.535" stroke="white" stroke-width="2" stroke-miterlimit="10" stroke-dasharray="12 12"/>
<path d="M199.942 213.301H272.063" stroke="white" stroke-width="2" stroke-miterlimit="10" stroke-dasharray="12 12"/>
<path d="M314.286 170.683V54.287" stroke="white" stroke-width="2" stroke-miterlimit="10" stroke-dasharray="12 12"/>
<path d="M332.644 213.477C332.644 223.325 324.66 231.31 314.81 231.31C304.961 231.31 296.977 223.325 296.977 213.477C296.977 203.628 304.961 195.643 314.81 195.643C324.66 195.643 332.644 203.628 332.644 213.477Z" fill="#E4DCD3"/>
<path d="M645.253 420.135V380.184H464.821V391.286H156.932V267.501H118.118V216.099V159.976H155.883V115.917H194.173L262.359 47.7307V30.4218H645.253V115.917H840.897V422.233H464.821L319.007 463.145L156.932 463.407V453.441H94.2529" stroke="#E4DCD3" stroke-width="4" stroke-miterlimit="10"/>
<path d="M464.821 422.233V332.016" stroke="#E4DCD3" stroke-width="4" stroke-miterlimit="10"/>
<path d="M490.25 380.272V337.786H645.253V380.272" stroke="#E4DCD3" stroke-width="4" stroke-miterlimit="10"/>
<path d="M777.955 213.477H840.372" stroke="#E4DCD3" stroke-width="4" stroke-miterlimit="10"/>
<path d="M413.157 73.9563V0" stroke="#E4DCD3" stroke-width="4" stroke-miterlimit="10"/>
<path d="M262.359 30.4218H93.9907" stroke="#E4DCD3" stroke-width="4" stroke-miterlimit="10"/>
<path d="M262.359 391.549H93.9907" stroke="#E4DCD3" stroke-width="4" stroke-miterlimit="10"/>
<path d="M216.727 297.923V391.463" stroke="#E4DCD3" stroke-width="4" stroke-miterlimit="10"/>
<path d="M94.5151 213.301H160.802" stroke="white" stroke-width="2" stroke-miterlimit="10" stroke-dasharray="12 12"/>
<path d="M0.103027 213.301H66.3899" stroke="white" stroke-width="2" stroke-miterlimit="10" stroke-dasharray="12 12"/>
<path d="M93.9908 136.898H65.1426V290.055H93.9908V136.898Z" stroke="#F6F3F2" stroke-miterlimit="10"/>
<path d="M200.24 155.256H160.831V272.222H200.24V155.256Z" stroke="#F6F3F2" stroke-miterlimit="10"/>
<path d="M211.779 282.188H194.173V314.707H211.779V282.188Z" stroke="#F6F3F2" stroke-miterlimit="10"/>
<path d="M426.007 74.059H400.306V114.304H426.007V74.059Z" stroke="#F6F3F2" stroke-miterlimit="10"/>
<path d="M549.006 343.031H495.243V368.208H549.006V343.031Z" stroke="#F6F3F2" stroke-miterlimit="10"/>
<path d="M654 314H627V365H654V314Z" stroke="#F6F3F2" stroke-miterlimit="10"/>
<path d="M590.18 73.9563H431.252V99.1329H590.18V73.9563Z" stroke="#F6F3F2" stroke-miterlimit="10"/>
<path d="M777.693 200.888H723.406V226.065H777.693V200.888Z" stroke="#F6F3F2" stroke-miterlimit="10"/>
<path d="M790 220H784V226H790V220Z" stroke="#F6F3F2" stroke-miterlimit="10"/>
<path d="M798 220H792V226H798V220Z" stroke="#F6F3F2" stroke-miterlimit="10"/>
<path d="M806 220H800V226H806V220Z" stroke="#F6F3F2" stroke-miterlimit="10"/>
<path d="M458 333H452V339H458V333Z" stroke="#F6F3F2" stroke-miterlimit="10"/>
<path d="M458 341H452V347H458V341Z" stroke="#F6F3F2" stroke-miterlimit="10"/>
<path d="M458 349H452V355H458V349Z" stroke="#F6F3F2" stroke-miterlimit="10"/>
<path d="M715 179H710V184H715V179Z" stroke="#F6F3F2" stroke-miterlimit="10"/>
<path d="M715 186H710V191H715V186Z" stroke="#F6F3F2" stroke-miterlimit="10"/>
<path d="M715 193H710V198H715V193Z" stroke="#F6F3F2" stroke-miterlimit="10"/>
<path d="M565.16 202.454L565.16 512" stroke="#E63312" stroke-width="2" stroke-miterlimit="10"/>
<path d="M255.137 210.987L255.137 512" stroke="#E63312" stroke-width="2" stroke-miterlimit="10"/>
<path d="M84.6956 143.83V152.039H82.3175V146.578H72.7168V143.83H84.6956V143.83Z" fill="#E63312"/>
<path d="M74.9187 151.475C74.9187 152.743 75.0068 153.501 79.1284 153.695L84.6951 153.941V163.19H72.7168V160.442H82.3174V156.514L78.9878 156.302C73.3509 155.95 72.5405 154.312 72.5405 151.475H74.9187Z" fill="#E63312"/>
<path d="M84.6951 168.791V172.068L72.7168 176.631V173.795L75.0068 172.949V167.911L72.7168 167.066V164.23L84.6951 168.791ZM77.3844 168.791V172.068L81.8234 170.43L77.3844 168.791Z" fill="#E63312"/>
<path d="M84.6951 177.67V182.849C84.6951 185.227 83.5328 186.795 81.4893 186.795C80.5383 186.795 79.6923 186.319 79.129 185.473C78.6711 186.795 77.7374 187.675 76.1697 187.675C73.9326 187.675 72.7168 186.108 72.7168 183.307V177.67H84.6951ZM74.9712 183.201C74.9712 184.346 75.4642 184.839 76.3097 184.839C77.1731 184.839 77.6661 184.346 77.6661 183.201V180.417H74.9706V183.201H74.9712ZM79.9215 182.461C79.9215 183.606 80.4324 183.958 81.1898 183.958C81.9299 183.958 82.4402 183.606 82.4402 182.461V180.418H79.9215V182.461Z" fill="#E63312"/>
<path d="M84.6951 189.279V192.027H79.9566V197.312H84.6951V200.06H72.7168V197.312H77.579V192.027H72.7168V189.279H84.6951Z" fill="#E63312"/>
<path d="M84.6951 202.385V205.133H80.1502V207.845C80.1502 210.646 78.7587 212.214 76.4335 212.214C74.1083 212.214 72.7168 210.646 72.7168 207.845V202.385H84.6951ZM84.6951 213.711V216.459H72.7168V213.711H84.6951ZM75.0944 207.74C75.0944 208.885 75.5875 209.378 76.4335 209.378C77.279 209.378 77.772 208.885 77.772 207.74V205.132H75.0944V207.74Z" fill="#E63312"/>
<path d="M84.6951 218.785V221.533H77.2617L84.6951 227.504V229.9H72.7168V227.152H80.1507L72.7168 221.163V218.785H84.6951ZM87.1965 221.233L88.5356 222.202C87.8663 222.801 87.4084 223.506 87.4084 224.351C87.4084 225.196 87.8663 225.901 88.5356 226.5L87.1965 227.47C86.3331 226.818 85.5936 225.813 85.5936 224.351C85.5936 222.89 86.3331 221.885 87.1965 221.233Z" fill="#E63312"/>
<path d="M84.6951 235.784V240.962C84.6951 243.341 83.5328 244.908 81.4893 244.908C80.5383 244.908 79.6923 244.433 79.129 243.587C78.6711 244.908 77.7374 245.789 76.1697 245.789C73.9326 245.789 72.7168 244.221 72.7168 241.42V235.783H84.6951V235.784ZM74.9712 241.315C74.9712 242.46 75.4642 242.953 76.3097 242.953C77.1731 242.953 77.6661 242.46 77.6661 241.315V238.531H74.9706V241.315H74.9712ZM79.9215 240.575C79.9215 241.721 80.4324 242.072 81.1898 242.072C81.9299 242.072 82.4402 241.72 82.4402 240.575V238.532H79.9215V240.575Z" fill="#E63312"/>
<path d="M72.7693 245.472L79.023 249.823L84.6421 245.966H84.6951V249.225L81.0487 251.638L84.6951 254.051V257.311H84.6421L79.023 253.453L72.7693 257.804H72.7163V254.545L76.9969 251.639L72.7163 248.732V245.472H72.7693Z" fill="#E63312"/>
<path d="M78.7054 257.345C82.334 257.345 84.9587 259.917 84.9587 263.511C84.9587 267.104 82.334 269.677 78.7054 269.677C75.0768 269.677 72.4517 267.104 72.4517 263.511C72.4522 259.917 75.0768 257.345 78.7054 257.345ZM78.7054 266.84C80.8192 266.84 82.4221 265.607 82.4221 263.51C82.4221 261.414 80.8192 260.181 78.7054 260.181C76.5916 260.181 74.9887 261.414 74.9887 263.51C74.9887 265.607 76.5916 266.84 78.7054 266.84Z" fill="#E63312"/>
<path d="M75.0944 270.064V271.209C76.2216 272.09 77.4725 272.495 79.9215 272.619L84.6951 272.865V281.233H75.0944V282.624H70.3208V279.876H72.7163V272.812H70.3208V270.064H75.0944V270.064ZM75.0944 278.484H82.3169V275.401L79.9036 275.224C77.4201 275.048 76.0632 274.82 75.0944 274.22V278.484Z" fill="#E63312"/>
<path d="M185.405 191.974V197.153C185.405 199.531 184.243 201.099 182.199 201.099C181.248 201.099 180.402 200.623 179.839 199.778C179.381 201.099 178.447 201.98 176.88 201.98C174.643 201.98 173.427 200.412 173.427 197.611V191.974H185.405ZM175.681 197.505C175.681 198.65 176.174 199.144 177.02 199.144C177.883 199.144 178.376 198.651 178.376 197.505V194.722H175.681V197.505H175.681ZM180.631 196.766C180.631 197.911 181.142 198.262 181.9 198.262C182.64 198.262 183.15 197.911 183.15 196.766V194.722H180.631V196.766Z" fill="#E63312"/>
<path d="M173.479 201.663L179.733 206.014L185.352 202.156H185.405V205.415L181.758 207.828L185.405 210.241V213.5H185.352L179.733 209.642L173.479 213.993H173.426V210.734L177.706 207.827L173.426 204.921V201.662H173.479V201.663Z" fill="#E63312"/>
<path d="M179.415 213.535C183.043 213.535 185.668 216.107 185.668 219.701C185.668 223.295 183.043 225.866 179.415 225.866C175.786 225.866 173.161 223.295 173.161 219.701C173.161 216.107 175.786 213.535 179.415 213.535ZM179.415 223.03C181.529 223.03 183.132 221.797 183.132 219.701C183.132 217.604 181.529 216.371 179.415 216.371C177.301 216.371 175.698 217.604 175.698 219.701C175.698 221.797 177.301 223.03 179.415 223.03Z" fill="#E63312"/>
<path d="M175.804 226.272V227.417C176.931 228.298 178.182 228.703 180.631 228.826L185.405 229.073V237.441H175.804V238.832H171.03V236.084H173.426V229.02H171.03V226.272H175.804V226.272ZM175.804 234.691H183.026V231.609L180.613 231.433C178.13 231.256 176.773 231.028 175.804 230.429V234.691Z" fill="#E63312"/>
<path d="M435.741 81.5212H440.92C443.298 81.5212 444.866 82.6836 444.866 84.7271C444.866 85.678 444.39 86.524 443.545 87.0874C444.866 87.5453 445.747 88.4789 445.747 90.0467C445.747 92.2837 444.179 93.4995 441.378 93.4995H435.741V81.5212ZM440.533 86.2948C441.678 86.2948 442.03 85.784 442.03 85.0266C442.03 84.2865 441.678 83.7761 440.533 83.7761H438.489V86.2948H440.533ZM441.273 91.2452C442.418 91.2452 442.911 90.7521 442.911 89.9066C442.911 89.0433 442.418 88.5502 441.273 88.5502H438.489V91.2457H441.273V91.2452Z" fill="#E63312"/>
<path d="M445.43 93.4463L449.781 87.1926L445.923 81.5735V81.5205H449.182L451.595 85.1669L454.009 81.5205H457.268V81.5735L453.41 87.1926L457.761 93.4463V93.4993H454.503L451.596 89.2188L448.689 93.4993H445.43V93.4463Z" fill="#E63312"/>
<path d="M457.303 87.5101C457.303 83.8815 459.874 81.2568 463.468 81.2568C467.062 81.2568 469.633 83.8815 469.633 87.5101C469.633 91.1387 467.062 93.7638 463.468 93.7638C459.874 93.7638 457.303 91.1387 457.303 87.5101ZM466.797 87.5101C466.797 85.3963 465.564 83.7934 463.468 83.7934C461.372 83.7934 460.139 85.3963 460.139 87.5101C460.139 89.6239 461.372 91.2268 463.468 91.2268C465.564 91.2268 466.797 89.6239 466.797 87.5101Z" fill="#E63312"/>
<path d="M470.039 91.1212H471.184C472.065 89.994 472.47 88.7431 472.593 86.2941L472.84 81.5205H481.208V91.1212H482.599V95.8948H479.851V93.4993H472.788V95.8948H470.04V91.1212H470.039ZM478.459 91.1212V83.8986H475.377L475.2 86.3119C475.024 88.7955 474.795 90.1524 474.196 91.1212H478.459Z" fill="#E63312"/>
<path d="M727.372 207.932H732.551C734.928 207.932 736.496 209.095 736.496 211.138C736.496 212.089 736.021 212.935 735.175 213.499C736.496 213.956 737.377 214.89 737.377 216.458C737.377 218.695 735.809 219.911 733.008 219.911H727.371V207.932H727.372ZM732.163 212.706C733.308 212.706 733.659 212.195 733.659 211.438C733.659 210.698 733.307 210.187 732.163 210.187H730.119V212.706H732.163ZM732.902 217.656C734.048 217.656 734.541 217.163 734.541 216.318C734.541 215.454 734.048 214.961 732.902 214.961H730.119V217.657H732.902V217.656Z" fill="#E63312"/>
<path d="M737.06 219.858L741.41 213.604L737.553 207.985V207.932H740.812L743.226 211.578L745.639 207.932H748.898V207.985L745.041 213.604L749.391 219.858V219.911H746.133L743.226 215.63L740.319 219.911H737.061V219.858H737.06Z" fill="#E63312"/>
<path d="M748.916 213.921C748.916 210.293 751.488 207.668 755.081 207.668C758.675 207.668 761.247 210.293 761.247 213.921C761.247 217.55 758.675 220.175 755.081 220.175C751.488 220.175 748.916 217.55 748.916 213.921ZM758.41 213.921C758.41 211.807 757.177 210.204 755.081 210.204C752.985 210.204 751.752 211.807 751.752 213.921C751.752 216.035 752.985 217.638 755.081 217.638C757.178 217.638 758.41 216.035 758.41 213.921Z" fill="#E63312"/>
<path d="M761.651 217.532H762.796C763.678 216.405 764.082 215.154 764.206 212.705L764.453 207.932H772.82V217.532H774.211V222.306H771.463V219.911H764.4V222.306H761.652V217.532H761.651ZM770.071 217.532V210.31H766.989L766.813 212.723C766.636 215.207 766.408 216.564 765.809 217.532H770.071Z" fill="#E63312"/>
<path d="M499.211 349.546H504.39C506.768 349.546 508.335 350.709 508.335 352.752C508.335 353.703 507.86 354.549 507.014 355.112C508.335 355.57 509.216 356.504 509.216 358.072C509.216 360.309 507.648 361.525 504.847 361.525H499.21V349.546H499.211ZM504.002 354.32C505.147 354.32 505.499 353.809 505.499 353.052C505.499 352.312 505.147 351.801 504.002 351.801H501.959V354.32H504.002ZM504.742 359.27C505.888 359.27 506.381 358.777 506.381 357.931C506.381 357.067 505.888 356.574 504.742 356.574H501.959V359.27H504.742Z" fill="#E63312"/>
<path d="M508.9 361.471L513.251 355.217L509.393 349.598V349.545H512.652L515.066 353.191L517.479 349.545H520.738V349.598L516.881 355.217L521.232 361.471V361.524H517.973L515.067 357.243L512.16 361.524H508.901V361.471H508.9Z" fill="#E63312"/>
<path d="M520.755 355.535C520.755 351.906 523.327 349.281 526.921 349.281C530.514 349.281 533.086 351.906 533.086 355.535C533.086 359.164 530.514 361.788 526.921 361.788C523.327 361.788 520.755 359.164 520.755 355.535ZM530.25 355.535C530.25 353.421 529.016 351.818 526.92 351.818C524.824 351.818 523.591 353.421 523.591 355.535C523.591 357.648 524.824 359.252 526.92 359.252C529.017 359.252 530.25 357.648 530.25 355.535Z" fill="#E63312"/>
<path d="M533.492 359.146H534.637C535.518 358.019 535.923 356.768 536.046 354.319L536.293 349.545H544.66V359.146H546.052V363.92H543.304V361.525H536.24V363.92H533.492V359.146H533.492ZM541.912 359.146V351.923H538.829L538.653 354.337C538.477 356.821 538.248 358.177 537.649 359.146H541.912Z" fill="#E63312"/>
<path d="M575 493.402H579.131V500.601H580.191L585.619 493.402H590.385V493.483L583.474 502.26L590.809 511.519V511.6H586.016L580.217 504.214H579.131V511.6H575V493.402Z" fill="white"/>
<path d="M589.988 502.5C589.988 496.987 593.854 493 599.256 493C604.658 493 608.524 496.987 608.524 502.5C608.524 508.013 604.658 512 599.256 512C593.854 512 589.988 508.013 589.988 502.5ZM604.261 502.5C604.261 499.289 602.407 496.854 599.256 496.854C596.105 496.854 594.251 499.289 594.251 502.5C594.251 505.711 596.105 508.146 599.256 508.146C602.407 508.146 604.261 505.711 604.261 502.5Z" fill="white"/>
<path d="M611.066 493.401H616.6L621.261 506.247L625.922 493.401H631.456V511.599H627.325V499.77L623.115 511.599H619.408L615.197 499.77V511.599H611.066L611.066 493.401Z" fill="white"/>
<path d="M634.951 493.401H647.927V497.014H639.082V500.6H646.629V504.213H639.082V507.986H647.927V511.599H634.951V493.401Z" fill="white"/>
<path d="M654.573 497.014H649.25V493.401H664.026V497.014H658.704V511.599H654.573L654.573 497.014Z" fill="white"/>
<path d="M669.216 493.401H674.142L681 511.599H676.737L675.465 508.12H667.892L666.621 511.599H662.357L669.216 493.401ZM669.216 504.507H674.142L671.679 497.764L669.216 504.507Z" fill="white"/>
<path d="M271.511 510.045C266.251 509.786 263 506.932 263 502.573C263 498.214 266.251 495.361 271.511 495.102V493H275.635V495.102C280.895 495.361 284.146 498.215 284.146 502.573C284.146 506.932 280.895 509.786 275.635 510.045V512.328H271.511V510.045ZM271.511 498.318C268.525 498.578 267.256 500.135 267.256 502.573C267.256 505.012 268.525 506.568 271.511 506.828V498.318ZM275.635 506.828C278.621 506.568 279.89 505.012 279.89 502.573C279.89 500.135 278.621 498.578 275.635 498.318V506.828Z" fill="white"/>
<path d="M285.44 502.651C285.44 497.306 289.299 493.441 294.692 493.441C300.084 493.441 303.943 497.307 303.943 502.651C303.943 507.995 300.084 511.861 294.692 511.861C289.299 511.861 285.44 507.995 285.44 502.651ZM299.687 502.651C299.687 499.538 297.837 497.177 294.691 497.177C291.546 497.177 289.695 499.538 289.695 502.651C289.695 505.764 291.545 508.125 294.691 508.125C297.837 508.125 299.687 505.764 299.687 502.651Z" fill="white"/>
<path d="M309.598 497.332H304.285V493.829H319.035V497.332H313.722V511.472H309.598L309.598 497.332Z" fill="white"/>
<path d="M319.403 502.651C319.403 497.306 323.262 493.441 328.655 493.441C334.047 493.441 337.906 497.307 337.906 502.651C337.906 507.995 334.047 511.861 328.655 511.861C323.262 511.861 319.403 507.995 319.403 502.651ZM333.65 502.651C333.65 499.538 331.8 497.177 328.654 497.177C325.509 497.177 323.658 499.538 323.658 502.651C323.658 505.764 325.508 508.125 328.654 508.125C331.8 508.125 333.65 505.764 333.65 502.651Z" fill="white"/>
<path d="M340.442 493.829H353.791V497.332H344.565V500.523H348.636C352.839 500.523 355.191 502.573 355.191 505.997C355.191 509.422 352.839 511.472 348.636 511.472H340.441L340.442 493.829ZM348.478 507.969C350.196 507.969 350.936 507.242 350.936 505.997C350.936 504.752 350.196 504.026 348.478 504.026H344.566V507.97L348.478 507.969Z" fill="white"/>
<path d="M372.636 493.829V493.908L365.922 507.373C364.283 510.668 362.275 511.472 359.049 511.472H357.966V507.97H358.759C360.477 507.97 361.561 507.58 362.195 506.439L355.587 493.908V493.83H360.187L364.152 502.288L368.17 493.83L372.636 493.829Z" fill="white"/>
<path d="M370.837 507.969H372.555C373.877 506.309 374.485 504.466 374.67 500.86L375.04 493.829H387.596V507.969H389.684V515H385.56V511.472H374.961V515H370.837V507.969ZM383.472 507.969V497.332H378.846L378.582 500.887C378.318 504.545 377.974 506.542 377.076 507.97L383.472 507.969Z" fill="white"/>
<path d="M392.114 493.829H396.237V500.809H397.294L402.713 493.829H407.471V493.908L400.573 502.417L407.895 511.394V511.472H403.111L397.321 504.311H396.237V511.472H392.114V493.829Z" fill="white"/>
<path d="M414.237 493.829H419.153L426 511.472H421.744L420.475 508.099H412.916L411.647 511.472H407.391L414.237 493.829ZM414.237 504.597H419.153L416.695 498.059L414.237 504.597Z" fill="white"/>
<path d="M264.457 214.001C264.457 219.215 260.23 223.442 255.016 223.442C249.802 223.442 245.575 219.215 245.575 214.001C245.575 208.787 249.802 204.56 255.016 204.56C260.23 204.56 264.457 208.787 264.457 214.001Z" fill="white"/>
<path d="M590.3 144.973C590.891 145.563 590.891 146.52 590.3 147.11L537.218 200.191C536.627 200.783 535.67 200.783 535.079 200.191C534.489 199.6 534.489 198.642 535.079 198.052L588.161 144.973C588.457 144.678 588.845 144.53 589.232 144.53C589.618 144.53 590.005 144.678 590.3 144.973ZM581.794 168.347C581.496 168.007 581.078 167.836 580.659 167.836C580.304 167.835 579.947 167.96 579.659 168.214L538.12 204.819C537.493 205.373 537.432 206.327 537.987 206.955C538.538 207.581 539.494 207.642 540.122 207.089L581.661 170.48C582.288 169.93 582.348 168.973 581.794 168.347ZM532.824 215.999C536.563 212.257 536.563 206.192 532.824 202.449C529.082 198.708 523.016 198.708 519.274 202.449C515.534 206.19 515.534 212.257 519.274 215.999C523.016 219.74 529.082 219.74 532.824 215.999ZM566.928 153.479C566.64 153.226 566.283 153.1 565.929 153.1C565.509 153.1 565.093 153.272 564.793 153.612L528.186 195.15C527.635 195.778 527.694 196.733 528.321 197.285C528.948 197.839 529.902 197.778 530.456 197.15L567.063 155.615C567.614 154.987 567.553 154.03 566.928 153.479ZM547.109 161.577C546.828 161.343 546.488 161.231 546.15 161.231C545.713 161.231 545.279 161.417 544.98 161.781L514 199.407C511.673 202.263 510.509 205.747 510.51 209.224C510.509 213.196 512.03 217.184 515.061 220.214C518.095 223.249 522.087 224.768 526.061 224.766C529.533 224.766 533.018 223.601 535.862 221.279L573.491 190.295C574.137 189.764 574.229 188.811 573.697 188.165C573.166 187.519 572.212 187.428 571.567 187.959L533.944 218.939C531.66 220.804 528.864 221.74 526.061 221.741C522.848 221.738 519.651 220.523 517.2 218.074C514.755 215.628 513.539 212.432 513.537 209.225C513.537 206.418 514.471 203.619 516.342 201.325L547.317 163.707C547.847 163.061 547.754 162.108 547.109 161.577Z" fill="white"/>
</svg>
