<svg enable-background="new 0 0 28 28" height="28" viewBox="0 0 28 28" width="28" xmlns="http://www.w3.org/2000/svg"><g fill="#66645f"><path d="m16.837 9.096c-.101-.052-.205-.077-.315-.077-.269 0-.513.147-.633.386l-2.521 4.939c-.177.346-.038.773.31.951.099.05.208.077.316.077.267 0 .509-.149.626-.388l2.521-4.941c.088-.17.104-.362.046-.541-.055-.178-.179-.322-.35-.406z"/><path d="m12.395 2.724c-5.383.695-9.739 5.113-10.358 10.503-.423 3.711.833 7.338 3.448 9.952.131.131.309.204.497.204s.364-.073.497-.206c.274-.274.274-.72 0-.993-2.354-2.354-3.455-5.615-3.021-8.947.601-4.621 4.239-8.352 8.847-9.073.564-.088 1.135-.133 1.699-.133 2.216 0 4.343.683 6.002 1.931l.148-.007 1.026-.951c-2.088-1.561-4.569-2.386-7.174-2.386-.531-.001-1.073.034-1.611.106z"/><path d="m23.733 7.495-1.071 1.016c1.29 1.809 1.973 3.937 1.973 6.152 0 2.84-1.107 5.512-3.112 7.518-.275.275-.275.723-.003.996.039.037.281.175.563.175.178 0 .316-.054.428-.169 2.279-2.339 3.534-5.365 3.534-8.52-.001-2.614-.826-5.098-2.312-7.168z"/></g></svg>