<svg enable-background="new 0 0 28 28" height="28" viewBox="0 0 28 28" width="28" xmlns="http://www.w3.org/2000/svg"><g fill="#66645f"><circle cx="19.288" cy="7.369" r=".847"/><path d="m5.689 18.688c-.471 0-.855-.387-.855-.859 0-.471.384-.855.855-.855s.856.385.856.855c0 .472-.385.859-.856.859z"/><path d="m21.34 25.646c-.483-.033-.833-.1-1.184-.227l-14.566-2.917c-2.585-.109-4.583-2.16-4.583-4.674 0-1.311.544-2.533 1.531-3.438l12.24-10.537c1.194-1.437 2.785-2.212 4.51-2.212 3.159 0 5.729 2.569 5.729 5.728v14.646c0 1.998-1.626 3.627-3.624 3.635zm.042-6.273c-1.458 0-2.643 1.186-2.643 2.643 0 1.029.613 1.973 1.563 2.402l1.021.217c1.538-.023 2.7-1.176 2.7-2.619-.001-1.457-1.185-2.643-2.641-2.643zm-15.761-6.345 1.075.237c2.129.467 3.675 2.388 3.675 4.563 0 1.307-.536 2.523-1.511 3.428l-.789.73 10.159 2.027-.29-.891c-.13-.4-.194-.764-.194-1.107 0-2.006 1.631-3.637 3.636-3.637.629 0 1.238.172 1.815.506l.825.482v-8.584l-.917.826c-1.065.959-2.422 1.488-3.817 1.488-3.139 0-5.708-2.556-5.724-5.696l-.006-1.186zm.068 1.115c-2.033 0-3.688 1.654-3.688 3.686 0 2.035 1.655 3.689 3.688 3.689 2.034 0 3.688-1.654 3.688-3.689-.001-2.032-1.654-3.686-3.688-3.686zm13.599-11.508c-2.609 0-4.733 2.123-4.733 4.734s2.124 4.733 4.733 4.733c2.61 0 4.734-2.123 4.734-4.733s-2.124-4.734-4.734-4.734z"/></g></svg>