<svg enable-background="new 0 0 30 30" height="30" viewBox="0 0 30 30" width="30" xmlns="http://www.w3.org/2000/svg"><g fill="#c2c1bf"><circle cx="21.258" cy="8.647" r=".858"/><path d="m7.495 20.103c-.477 0-.866-.389-.866-.871 0-.475.389-.861.866-.861s.867.387.867.861c-.001.482-.39.871-.867.871z"/><path d="m23.336 27.146c-.488-.033-.844-.1-1.196-.227l-14.744-2.957c-2.617-.107-4.639-2.186-4.639-4.727 0-1.33.551-2.566 1.55-3.481l12.387-10.665c1.209-1.455 2.819-2.239 4.565-2.239 3.196 0 5.796 2.6 5.796 5.797v14.825c0 2.023-1.644 3.67-3.667 3.678zm.042-6.35c-1.475 0-2.675 1.201-2.675 2.676 0 1.043.622 1.996 1.583 2.43l1.032.221c1.557-.021 2.732-1.188 2.732-2.65.001-1.476-1.197-2.677-2.672-2.677zm-15.952-6.422 1.088.239c2.155.475 3.72 2.416 3.72 4.623 0 1.322-.543 2.553-1.53 3.465l-.798.742 10.283 2.053-.294-.902c-.132-.406-.196-.773-.196-1.121 0-2.031 1.651-3.682 3.68-3.682.636 0 1.255.174 1.839.512l.834.49v-8.69l-.928.836c-1.08.971-2.451 1.506-3.863 1.506-3.178 0-5.777-2.586-5.794-5.765l-.007-1.2zm.069 1.129c-2.058 0-3.732 1.674-3.732 3.732 0 2.057 1.674 3.732 3.732 3.732 2.059 0 3.733-1.676 3.733-3.732 0-2.058-1.675-3.732-3.733-3.732zm13.765-11.648c-2.642 0-4.791 2.149-4.791 4.792 0 2.642 2.149 4.79 4.791 4.79 2.641 0 4.791-2.148 4.791-4.79 0-2.643-2.151-4.792-4.791-4.792z"/></g></svg>