<svg enable-background="new 0 0 30 30" height="30" viewBox="0 0 30 30" width="30" xmlns="http://www.w3.org/2000/svg"><path d="m15.046 27.604c-4.234 0-8.035-2.355-9.917-6.15l-.065-.131h-3.417c-.331 0-.6-.27-.6-.6 0-.332.269-.602.6-.602h3.802c.238 0 .455.143.55.361 1.572 3.596 5.123 5.92 9.046 5.92s7.476-2.324 9.049-5.92c.095-.219.311-.361.549-.361h3.803c.331 0 .601.27.601.602 0 .33-.27.6-.601.6h-3.416l-.065.131c-1.882 3.795-5.683 6.15-9.919 6.15zm6.281-7.118c-.33 0-.6-.27-.6-.602v-6.697c0-.332.27-.6.6-.6s.602.268.602.6v2.749h6.518c.331 0 .601.268.601.6 0 .331-.27.601-.601.601h-6.518v2.748c0 .332-.272.601-.602.601zm-12.562 0c-.331 0-.6-.27-.6-.602v-2.748h-6.518c-.331 0-.6-.27-.6-.601 0-.332.269-.6.6-.6h6.518v-2.749c0-.332.269-.6.6-.6s.601.268.601.6v6.697c0 .334-.27.603-.601.603zm6.281-.418c-1.716 0-3.112-1.397-3.112-3.112 0-.538.237-1.181.744-2.022.183-.305.393-.62.626-.943.284-.395.585-.781.888-1.147.106-.126.408-.477.408-.477.116-.128.274-.199.446-.199.173 0 .332.071.447.2 0 0 .303.35.409.478.301.365.604.751.886 1.146.234.324.445.638.628.943.506.842.742 1.484.742 2.022 0 1.714-1.395 3.111-3.112 3.111zm-.186-6.144c-.199.25-.397.508-.583.769-.215.298-.408.588-.571.859-.214.355-.573 1.008-.573 1.405 0 1.053.859 1.91 1.912 1.91 1.056 0 1.913-.857 1.913-1.91 0-.396-.359-1.049-.572-1.405-.164-.271-.354-.561-.571-.859-.187-.26-.383-.518-.585-.768l-.185-.232zm9.784-.974c-.238 0-.454-.141-.548-.36-1.002-2.29-2.813-4.101-5.103-5.101-.217-.095-.36-.311-.36-.55v-3.802c0-.331.271-.6.601-.6.332 0 .601.27.601.6v3.417l.133.066c2.152 1.069 3.929 2.844 4.998 4.998l.065.132h3.416c.331 0 .601.269.601.6 0 .332-.27.601-.601.601h-3.803zm-22.997 0c-.331 0-.6-.269-.6-.601 0-.331.269-.6.6-.6h3.416l.065-.132c1.071-2.153 2.846-3.929 4.999-4.998l.131-.066v-3.416c0-.331.271-.6.601-.6.332 0 .601.27.601.6v3.802c0 .239-.141.455-.36.55-2.289 1.001-4.1 2.811-5.1 5.101-.096.219-.312.36-.55.36z" fill="#c2c1bf"/></svg>