<svg enable-background="new 0 0 100 100" height="100" viewBox="0 0 100 100" width="100" xmlns="http://www.w3.org/2000/svg"><path d="m55.447 75.287s-9.49-.597-12.658-.799c-10.383-.668-11.432-1.693-13.14-12.659-.761-4.847-2.734-19.416-2.734-19.416-.528-4.399 5.833-5.448 6.477-.939 0 0 1.802 13.956 2.578 18.577 1.041 6.243 1.918 7.323 8.24 7.728l11.61.737c4.575.287 4.117 7.058-.373 6.771zm-17.597-48.165c4.217 0 7.626-3.421 7.626-7.634 0-4.221-3.409-7.646-7.626-7.646-4.225 0-7.649 3.425-7.649 7.646-.001 4.213 3.424 7.634 7.649 7.634zm37.891 47.373-10.088-18.296c-.979-1.337-2.532-2.237-4.334-2.322-1.863-.187-3.728-.357-5.592-.544-1.212-.116-2.423-.232-3.65-.351-.45-.038-.939-.139-1.397-.077l-1.708-7.37c-.055-.249-.101-.498-.156-.746l-.179-.637-2.104-9.859c-.233-1.076-.77-2.004-1.507-2.714l-.016-.035c-.217-.206-.466-.388-.729-.555-.093-.063-.187-.113-.287-.167-.102-.058-.195-.124-.296-.175 0 0-.054-.039-.054-.023-.032-.016-.07-.024-.109-.039-.187-.085-.373-.155-.559-.222-.125-.039-.241-.073-.357-.104-.155-.039-.319-.078-.481-.105-.668-.116-1.359-.128-2.066.012-.249.046-.497.132-.73.214l-.023.003c-.024.004-.032.012-.055.016-.063.024-.124.039-.187.063-2.718.722-4.45 3.463-3.86 6.244l3.122 14.64c.357 2.517 1.282 8.434 2.229 10.127.063.109.132.217.217.326 1.282 1.53 2.579 2.702 4.691 2.812l14.903.715 8.955 15.252c.808.855 1.895 1.32 2.981 1.367 1.165.063 2.347-.342 3.263-1.204 1.771-1.679 1.841-4.474.163-6.246z" fill="#fff"/></svg>