<svg enable-background="new 0 0 100 100" height="100" viewBox="0 0 100 100" width="100" xmlns="http://www.w3.org/2000/svg"><g fill="#fff"><path d="m52.571 66.563c0-10.632 8.618-19.25 19.25-19.25.385 0 .76.035 1.139.058v-30.454h-32.855c-4.351 0-10.295 2.651-13.202 5.886l-14.911 16.568c-1.941 2.154-2.849 6.19-2.019 8.972l4.882 16.269c.835 2.776 3.887 5.056 6.794 5.056h31.194c-.163-1.014-.272-2.046-.272-3.105zm-34.64-25.908 12.894-14.322c1.912-2.129 6.422-4.138 9.281-4.138h27.582v18.46z"/><path d="m72.099 54.188c-3.72 0-6.732 3.013-6.732 6.732v3.366h-3.367v13.464h20.196v-13.464h-3.366v-3.366c0-3.72-3.013-6.732-6.731-6.732zm0 3.366c2.002 0 3.365 1.364 3.365 3.366v3.366h-6.731v-3.366c-.001-2.002 1.364-3.366 3.366-3.366z"/></g></svg>