<svg enable-background="new 0 0 100 100" height="100" viewBox="0 0 100 100" width="100" xmlns="http://www.w3.org/2000/svg"><path d="m55.52 24.975c-.309-2.773-2.667-3.789-5.517-3.789-2.858 0-5.21 1.021-5.522 3.789-8.419 2.397-14.583 10.146-14.583 19.332 0 14.8-6.635 20.448-6.635 22.609-.008 2.725 6.177 4.397 18.273 5.554 1.089 3.661 4.444 6.345 8.458 6.345 4.016 0 7.368-2.684 8.452-6.345 12.104-1.156 18.292-2.829 18.292-5.554 0-2.161-6.63-7.81-6.63-22.609-.001-9.192-6.172-16.935-14.588-19.332zm-34.304 16.198c-.812-.813-2.128-.808-2.942 0-4.868 4.874-4.871 12.792 0 17.658.812.814 2.128.814 2.942 0s.811-2.127 0-2.941c-3.246-3.244-3.243-8.529.003-11.774.811-.809.811-2.128-.003-2.943zm-5.884-2.942c.812-.809.812-2.128-.003-2.942-.811-.813-2.128-.809-2.942 0-8.113 8.114-8.111 21.313 0 29.427.813.814 2.131.814 2.942 0 .814-.814.814-2.127.003-2.941-6.491-6.492-6.491-17.053 0-23.544zm72.275-2.942c-.809-.813-2.122-.813-2.942 0-.808.814-.808 2.128 0 2.942 6.491 6.49 6.491 17.052 0 23.543-.808.814-.808 2.127.005 2.941.815.814 2.129.814 2.943 0 8.114-8.112 8.114-21.312-.006-29.426zm-5.883 5.884c-.809-.808-2.122-.813-2.942 0-.808.815-.808 2.134 0 2.942 3.246 3.245 3.246 8.53 0 11.774-.808.814-.808 2.127 0 2.941.814.814 2.134.814 2.942 0 4.873-4.865 4.873-12.789 0-17.657z" fill="#fff"/></svg>