<svg width="29" height="32" viewBox="0 0 29 32" fill="none" xmlns="http://www.w3.org/2000/svg">
<path d="M19.6829 8.58537C19.6829 12.9868 17.1854 15.7805 14.0488 15.7805C10.9122 15.7805 8.41463 12.9868 8.41463 8.58537C8.41463 6.32931 8.8823 4.4092 9.7984 3.08293C10.6793 1.80766 12.0259 1 14.0488 1C16.0717 1 17.4183 1.80766 18.2992 3.08293C19.2153 4.4092 19.6829 6.32931 19.6829 8.58537Z" stroke="#666666" stroke-width="2"/>
<path d="M9.7561 17.1707C7.80488 19.4412 1.56097 18.6844 1.56097 23.6038V25.8744C1.82114 27.1357 5.30732 29.6585 14.0488 29.6585" stroke="#666666" stroke-width="2"/>
<path d="M18.3415 17.1707C20.2927 19.4412 26.5366 18.6844 26.5366 23.6038V25.8744C26.2764 27.1357 22.7902 29.6585 14.0488 29.6585" stroke="#666666" stroke-width="2"/>
</svg>
