<svg width="26" height="32" viewBox="0 0 26 32" fill="none" xmlns="http://www.w3.org/2000/svg">
<path d="M24.6 13.193C24.6 17.5575 21.6362 22.0142 18.461 25.4973C16.8972 27.2127 15.3302 28.6402 14.1529 29.6394C13.6009 30.1079 13.1363 30.4808 12.8 30.7436C12.4637 30.4808 11.9991 30.1079 11.4471 29.6394C10.2698 28.6402 8.70279 27.2127 7.13901 25.4973C3.9638 22.0142 1 17.5575 1 13.193C1 6.43026 6.31133 1 12.8 1C19.2887 1 24.6 6.43026 24.6 13.193Z" stroke="#666666" stroke-width="2"/>
<path d="M17.4 12.8C17.4 15.3405 15.3405 17.4 12.8 17.4C10.2595 17.4 8.2 15.3405 8.2 12.8C8.2 10.2595 10.2595 8.20001 12.8 8.20001C15.3405 8.20001 17.4 10.2595 17.4 12.8Z" stroke="#666666" stroke-width="2"/>
</svg>
