<svg width="22" height="22" viewBox="0 0 22 22" fill="none" xmlns="http://www.w3.org/2000/svg">
<path d="M12.2816 1.23633L13.401 2.65378C13.8315 3.19892 14.5141 3.48163 15.204 3.40058L16.9978 3.18984L18.8102 5.00226L18.5995 6.79611C18.5184 7.48599 18.8011 8.16852 19.3463 8.59903L20.7637 9.71845L20.7637 12.2816L19.3463 13.401C18.8011 13.8315 18.5184 14.5141 18.5995 15.204L18.8102 16.9978L16.9978 18.8102L15.204 18.5995C14.5141 18.5184 13.8315 18.8011 13.401 19.3463L12.2816 20.7637H9.71845L8.59903 19.3463C8.16852 18.8011 7.48599 18.5184 6.79611 18.5995L5.00227 18.8102L3.18984 16.9978L3.40058 15.204C3.48163 14.5141 3.19892 13.8315 2.65379 13.401L1.23633 12.2816L1.23633 9.71845L2.65378 8.59903C3.19892 8.16852 3.48163 7.48599 3.40058 6.79611L3.18984 5.00227L5.00227 3.18984L6.79611 3.40058C7.48599 3.48163 8.16852 3.19892 8.59903 2.65378L9.71845 1.23633L12.2816 1.23633Z" stroke="#002C5F" stroke-width="2"/>
<circle cx="11" cy="11" r="4" stroke="#002C5F" stroke-width="2"/>
</svg>
