<?xml version="1.0" encoding="utf-8"?>
<!-- Generator: Adobe Illustrator 18.1.1, SVG Export Plug-In . SVG Version: 6.00 Build 0)  -->
<svg version="1.1" id="Слой_1" width="300" height="95" xmlns="http://www.w3.org/2000/svg" xmlns:xlink="http://www.w3.org/1999/xlink" x="0px" y="0px"
	 viewBox="-218 395.9 158 50" enable-background="new -218 395.9 158 50" xml:space="preserve">
<path d="M-65,445.9h-148c-2.7,0-4.9-2.3-4.9-5v-40c0-2.8,2.2-5,4.9-5h148c2.7,0,4.9,2.3,4.9,5v40C-60.1,443.6-62.3,445.9-65,445.9z"
	/>
<path d="M-213.1,444.9h148c2.2,0,3.9-1.8,3.9-4v-40c0-2.2-1.8-4-3.9-4h-148c-2.2,0-3.9,1.8-3.9,4v40
	C-217,443.1-215.2,444.9-213.1,444.9z M-213.1,445.9h148c2.7,0,4.9-2.3,4.9-5v-40c0-2.8-2.2-5-4.9-5h-148c-2.7,0-4.9,2.3-4.9,5v40
	C-218,443.6-215.8,445.9-213.1,445.9z"/>
<path fill="#FFFFFF" d="M-184.6,420.7c0-4,3.3-5.9,3.4-6.1c-1.9-2.7-4.7-3.1-5.7-3.2c-2.4-0.3-4.9,1.4-6,1.4c-1.3,0-3.2-1.4-5.2-1.4
	c-2.7,0-5.1,1.5-6.5,4c-2.8,4.9-0.8,12.1,1.9,16.1c1.4,1.9,2.9,4.1,5,4c2-0.1,2.8-1.3,5.2-1.3c2.4,0,3.1,1.3,5.2,1.3
	c2.2,0,3.6-1.9,4.9-3.9c1.5-2.2,2.2-4.4,2.2-4.5C-180.4,427-184.6,425.5-184.6,420.7z"/>
<path fill="#FFFFFF" d="M-188.5,409.3c0.8-1.3,1.5-3,1.4-4.8c-1.2,0.1-2.9,1-3.7,2.3c-0.8,1.1-1.6,2.9-1.4,4.6
	C-190.9,411.5-189.4,410.6-188.5,409.3z"/>
<path fill="#FFFFFF" d="M-156.2,429.5h-2.8l-1.5-5.1h-5.3l-1.5,5.1h-2.6l5.2-17.2h3.3L-156.2,429.5z M-161,422.3l-1.4-4.5
	c-0.1-0.4-0.4-1.6-0.9-3.2c-0.1,0.7-0.4,1.9-0.8,3.2l-1.4,4.5H-161z"/>
<path fill="#FFFFFF" d="M-142.5,423c0,1.9-0.5,3.3-1.7,4.4c-1.1,0.9-2.3,1.4-3.9,1.4c-1.6,0-2.8-0.5-3.5-1.5v5.7h-2.8v-11.7
	c0-1.2,0-2.3-0.1-3.6h2.4l0.1,1.8c0.9-1.3,2.3-2,4.1-2c1.5,0,2.7,0.5,3.6,1.5C-143,419.9-142.5,421.2-142.5,423z M-145.3,423
	c0-1.1-0.3-2-0.8-2.6c-0.5-0.7-1.3-1-2.4-1c-0.7,0-1.3,0.2-1.9,0.6c-0.5,0.4-0.9,0.9-1.1,1.5c-0.1,0.3-0.1,0.6-0.1,0.7v1.9
	c0,0.8,0.3,1.4,0.8,2c0.5,0.6,1.3,0.8,2.1,0.8c1.1,0,1.9-0.4,2.4-1C-145.7,425.1-145.3,424.1-145.3,423z"/>
<path fill="#FFFFFF" d="M-130.5,423c0,1.9-0.5,3.3-1.5,4.4c-0.9,0.9-1.9,1.4-3.3,1.4c-1.4,0-2.4-0.5-3-1.5v5.7h-2.4v-11.7
	c0-1.2,0-2.3-0.1-3.6h2.1l0.1,1.8c0.8-1.3,1.9-2,3.5-2c1.3,0,2.3,0.5,3.1,1.5C-130.9,419.9-130.5,421.2-130.5,423z M-132.9,423
	c0-1.1-0.2-2-0.7-2.6c-0.5-0.7-1.1-1-2.1-1c-0.6,0-1.1,0.2-1.6,0.6c-0.5,0.4-0.8,0.9-0.9,1.5c-0.1,0.3-0.1,0.6-0.1,0.7v1.9
	c0,0.8,0.2,1.4,0.7,2c0.5,0.6,1.1,0.8,1.8,0.8c0.9,0,1.6-0.4,2.1-1C-133.2,425.1-132.9,424.1-132.9,423z"/>
<path fill="#FFFFFF" d="M-115,424.6c0,1.4-0.5,2.6-1.4,3.5c-1,1-2.6,1.4-4.6,1.4c-1.8,0-3.3-0.4-4.3-1l0.7-2.2c1.2,0.7,2.5,1,3.9,1
	c1,0,1.8-0.3,2.3-0.7c0.5-0.5,0.8-1,0.8-1.8c0-0.7-0.3-1.3-0.7-1.7c-0.5-0.5-1.3-0.9-2.3-1.3c-3-1-4.4-2.7-4.4-4.8
	c0-1.4,0.5-2.5,1.6-3.4s2.3-1.3,4.2-1.3c1.6,0,2.7,0.3,3.8,0.8l-0.7,2.2c-0.9-0.5-2-0.8-3.3-0.8c-0.9,0-1.7,0.3-2.2,0.7
	c-0.4,0.4-0.7,0.9-0.7,1.6s0.3,1.2,0.8,1.7c0.4,0.4,1.3,0.8,2.5,1.3c1.4,0.5,2.5,1.3,3.3,2.1C-115.3,422.5-115,423.4-115,424.6z"/>
<path fill="#FFFFFF" d="M-106.4,419.2h-2.8v5.9c0,1.4,0.5,2.2,1.4,2.2c0.5,0,0.8,0,1.1-0.1l0.1,2.1c-0.5,0.3-1.1,0.3-1.9,0.3
	c-1,0-1.8-0.3-2.3-0.9c-0.6-0.7-0.8-1.7-0.8-3.3v-6.2h-1.7v-2.1h1.7v-2.2l2.4-0.8v3h2.8V419.2z"/>
<path fill="#FFFFFF" d="M-94.4,423.4c0,1.7-0.5,3.2-1.4,4.4c-1,1.1-2.3,1.7-3.8,1.7c-1.6,0-2.8-0.6-3.7-1.7
	c-0.9-1.1-1.4-2.5-1.4-4.2s0.5-3.2,1.5-4.4c0.9-1.1,2.3-1.7,3.8-1.7c1.6,0,2.8,0.6,3.7,1.7C-94.9,420.3-94.4,421.7-94.4,423.4z
	 M-96.9,423.6c0-1.1-0.2-2-0.7-2.7c-0.5-0.9-1.2-1.4-2.2-1.4c-0.9,0-1.7,0.5-2.2,1.4c-0.5,0.7-0.7,1.7-0.7,2.7c0,1.1,0.2,2,0.7,2.7
	c0.5,0.9,1.2,1.4,2.2,1.4c0.9,0,1.6-0.5,2.2-1.4C-97.1,425.6-96.9,424.6-96.9,423.6z"/>
<path fill="#FFFFFF" d="M-85.1,420.1c-0.3,0-0.5-0.1-0.9-0.1c-0.9,0-1.7,0.4-2.2,1c-0.4,0.6-0.6,1.4-0.6,2.2v6.1h-2.7v-8
	c0-1.4,0-2.5-0.1-3.6h2.3l0.1,2.2h0.1c0.3-0.7,0.8-1.4,1.3-1.9c0.6-0.4,1.3-0.6,1.9-0.6c0.3,0,0.5,0,0.6,0v2.6H-85.1z"/>
<path fill="#FFFFFF" d="M-72.5,423c0,0.5,0,0.9-0.1,1.1h-7.7c0,1.1,0.4,2,1.1,2.6c0.6,0.5,1.5,0.9,2.5,0.9c1.1,0,2.2-0.1,3.1-0.5
	l0.4,1.7c-1.1,0.5-2.4,0.7-3.8,0.7c-1.7,0-3.2-0.5-4.2-1.6c-1-1-1.5-2.5-1.5-4.2c0-1.7,0.5-3.2,1.4-4.4c1-1.2,2.4-1.9,4.1-1.9
	c1.6,0,3,0.6,3.7,1.9C-72.9,420.3-72.5,421.6-72.5,423z M-75,422.3c0-0.7-0.1-1.4-0.5-2c-0.5-0.7-1.1-1.1-2-1.1c-0.9,0-1.5,0.4-2,1
	c-0.4,0.5-0.6,1.2-0.7,2h5.2V422.3z"/>
</svg>
