<?xml version="1.0" encoding="utf-8"?>
<!-- Generator: Adobe Illustrator 18.1.1, SVG Export Plug-In . SVG Version: 6.00 Build 0)  -->
<svg version="1.1" id="Слой_1" width="300" height="94" xmlns="http://www.w3.org/2000/svg" xmlns:xlink="http://www.w3.org/1999/xlink" x="0px" y="0px"
	 viewBox="-218 395.9 159 50" enable-background="new -218 395.9 159 50" xml:space="preserve">
<path d="M-64,445.9h-148c-2.7,0-4.9-2.3-4.9-5v-40c0-2.8,2.2-5,4.9-5h148c2.7,0,4.9,2.3,4.9,5v40C-59.1,443.6-61.3,445.9-64,445.9z"
	/>
<path d="M-212.9,444.9h148c2.2,0,3.9-1.8,3.9-4v-40c0-2.2-1.8-4-3.9-4h-148c-2.2,0-3.9,1.8-3.9,4v40
	C-216.8,443.1-215,444.9-212.9,444.9z M-212.9,445.9h148c2.7,0,4.9-2.3,4.9-5v-40c0-2.8-2.2-5-4.9-5h-148c-2.7,0-4.9,2.3-4.9,5v40
	C-217.8,443.6-215.6,445.9-212.9,445.9z"/>
<linearGradient id="SVGID_1_" gradientUnits="userSpaceOnUse" x1="-198.9077" y1="437.0429" x2="-191.4323" y2="408.3546" gradientTransform="matrix(1 0 0 -1 0 841.67)">
	<stop  offset="0" style="stop-color:#006884"/>
	<stop  offset="1" style="stop-color:#8AD1D0"/>
</linearGradient>
<path fill="url(#SVGID_1_)" d="M-205.8,420.8v-13.2c0-0.8,0.6-1.4,1.2-1.4s0.8,0.1,1.2,0.4l22.7,13.3c0.5,0.3,0.7,0.6,0.7,1
	c0,0.4-0.2,0.8-0.7,1l-22.7,13.2c-0.2,0.1-0.6,0.4-1.2,0.4s-1.2-0.6-1.2-1.4V420.8z"/>
<linearGradient id="SVGID_2_" gradientUnits="userSpaceOnUse" x1="-206.9183" y1="433.7917" x2="-188.5443" y2="423.4627" gradientTransform="matrix(1 0 0 -1 0 841.67)">
	<stop  offset="0" style="stop-color:#24BBB6"/>
	<stop  offset="1" style="stop-color:#DBE692"/>
</linearGradient>
<path fill="url(#SVGID_2_)" d="M-191.5,420l-14.3-13.8c0.1,0,0.1,0,0.2,0c0.6,0,0.9,0.1,1.2,0.4l17.4,9.1L-191.5,420z"/>
<linearGradient id="SVGID_3_" gradientUnits="userSpaceOnUse" x1="-185.2009" y1="415.9666" x2="-185.2009" y2="425.4834" gradientTransform="matrix(1 0 0 -1 0 841.67)">
	<stop  offset="0" style="stop-color:#FCC072"/>
	<stop  offset="1" style="stop-color:#F58A5B"/>
</linearGradient>
<path fill="url(#SVGID_3_)" d="M-186.4,425.2l-3.9-4.3l4.1-4.3l5.6,3.4c0.4,0.2,0.7,0.6,0.7,1c0,0.4-0.2,0.7-0.7,1L-186.4,425.2z"/>
<linearGradient id="SVGID_4_" gradientUnits="userSpaceOnUse" x1="-204.7587" y1="404.4875" x2="-188.6605" y2="419.6992" gradientTransform="matrix(1 0 0 -1 0 841.67)">
	<stop  offset="0" style="stop-color:#712B8F"/>
	<stop  offset="1" style="stop-color:#EA1D27"/>
</linearGradient>
<path fill="url(#SVGID_4_)" d="M-205.8,435.5l14.4-15.5l4.5,4.8l-17.5,10.4C-204.8,435.4-205.1,435.5-205.8,435.5
	C-205.7,435.5-205.7,435.5-205.8,435.5z"/>
<path fill="#FFFFFF" d="M-130.6,431.7c-0.6-0.5-1.1-1.3-1.4-1.8l2-0.9c0.1,0.2,0.4,0.6,0.6,1c0.5,0.5,1.3,1,2,1c0.8,0,1.6-0.4,2.1-1
	c0.4-0.6,0.6-1.2,0.6-2.1v-0.7c-1.5,1.8-4.6,1.6-6.4-0.4c-1.9-1.9-1.9-5.2,0-7.2c1.9-1.8,4.6-2.1,6.3-0.4v-0.9h2.1v9.2
	c0,2.3-0.9,3.7-2,4.5c-0.8,0.6-1.9,0.9-2.9,0.9C-128.6,432.8-129.7,432.4-130.6,431.7z M-78.1,432.1l2.1-4.9l-3.8-8.4h2.1l2.6,6
	l2.6-6h2.1l-5.8,13.3H-78.1z M-88.3,427.5c-0.6-0.6-0.9-1.5-0.9-2.3c0-0.7,0.3-1.5,0.8-1.9c0.9-0.9,2.1-1.2,3.5-1.2
	c0.9,0,1.6,0.1,2.3,0.5c0-1.5-1.3-2.1-2.3-2.1c-0.9,0-1.8,0.5-2.1,1.3l-1.9-0.7c0.4-0.9,1.4-2.4,3.9-2.4c1.3,0,2.5,0.4,3.3,1.2
	c0.8,0.9,1,1.8,1,3.2v5.1h-2.1v-0.9c-0.3,0.4-0.8,0.6-1.1,0.9c-0.5,0.2-1.1,0.4-1.8,0.4C-86.5,428.4-87.6,428.1-88.3,427.5z
	 M-155,423.1c0-2.4,1.9-5.1,5.3-5.1c3.3,0,5.3,2.7,5.3,5.1c0,2.4-1.9,5.1-5.3,5.1S-155,425.6-155,423.1z M-143.8,423.1
	c0-2.4,1.9-5.1,5.3-5.1c3.3,0,5.3,2.7,5.3,5.1c0,2.4-1.9,5.1-5.3,5.1C-141.7,428.2-143.8,425.6-143.8,423.1z M-169.2,425.8
	c-3.1-3-3-8,0.1-11.2c1.6-1.6,3.6-2.3,5.8-2.3c2,0,4,0.7,5.5,2.2l-1.5,1.6c-2.3-2.2-5.9-2.1-8,0.1c-2.3,2.3-2.3,5.8,0,8.2
	c2.3,2.3,6,2.4,8.3,0.1c0.8-0.7,1-1.7,1.1-2.7h-5.4v-2.2h7.4c0.1,0.5,0.1,1.1,0.1,1.7c0,1.8-0.8,3.7-2,4.9c-1.4,1.3-3.4,2.1-5.4,2.1
	C-165.3,428.1-167.6,427.4-169.2,425.8z M-116.2,426.7c-1.9-1.9-1.9-5.2,0-7.3c1.9-1.9,5-1.9,6.8,0c0.6,0.6,1,1.5,1.4,2.3l-6.9,2.8
	c0.4,0.9,1.3,1.6,2.5,1.6c1.1,0,1.9-0.4,2.6-1.5l1.9,1.2c-0.3,0.2-0.5,0.5-0.6,0.7C-110.7,428.6-114.3,428.6-116.2,426.7z
	 M-103.2,428.1v-13.5h4.5c2.6,0,4.8,1.8,4.8,4c0,2.2-1.9,4-4.3,4h-2.8v5.5H-103.2z M-92.6,428.1v-13.5h2.1v13.5H-92.6z M-121,427.9
	v-15.1h2.3v15.1H-121z M-82.7,424.1c-0.5-0.4-1.3-0.5-2-0.5c-1.5,0-2.4,0.7-2.4,1.6c0,0.9,0.9,1.3,1.8,1.3
	C-84.1,426.5-82.7,425.6-82.7,424.1z M-146.9,423.1c0-1.5-1-3-2.9-3c-1.9,0-2.9,1.6-2.9,3c0,1.5,1,3,2.9,3
	C-148,426.2-146.9,424.6-146.9,423.1z M-135.6,423.1c0-1.5-1-3-2.9-3s-2.9,1.6-2.9,3c0,1.5,1,3,2.9,3S-135.6,424.6-135.6,423.1z
	 M-124.5,424c0-0.1,0-0.2,0.1-0.4c0-0.1,0-0.4,0-0.5s0-0.4,0-0.5v-0.1c0-0.1-0.1-0.4-0.1-0.5c-0.4-1.2-1.5-2.1-2.6-2.1
	c-1.5,0-2.8,1.5-2.8,3c0,1.7,1.3,3,2.9,3C-126,426.2-125,425.3-124.5,424z M-115.3,422.9l4.6-1.9c-0.5-0.9-1.3-1.1-1.9-1.1
	C-114.4,420-115.6,421.9-115.3,422.9z M-96.1,418.8c0-1.2-1-2.1-2.4-2.1h-2.5v4.3h2.6C-97.1,420.9-96.1,420-96.1,418.8z"/>
</svg>
