<svg fill="none" height="88" viewBox="0 0 92 88" width="92" xmlns="http://www.w3.org/2000/svg"><g stroke="#666" stroke-width="2"><path d="m23.3276.5c-1.2996 2.33921-2.963 8.18722.7797 12.8656 3.7427 4.6785 1.5595 10.2666 0 12.4758"/><path d="m39.2675.5c-1.2996 2.33921-2.963 8.18722.7797 12.8656 3.7428 4.6785 1.5595 10.2666 0 12.4758"/><path d="m55.2074.5c-1.2995 2.33921-2.963 8.18722.7798 12.8656 3.7427 4.6785 1.5594 10.2666 0 12.4758"/><path d="m56.9321 68.9694c-.0337.0116-.0637.0218-.09.0306h-33.6842c-.0263-.0088-.0563-.019-.09-.0306-.1559-.0538-.3896-.1379-.6902-.2561-.6013-.2364-1.469-.6084-2.5143-1.145-2.0919-1.0738-4.8858-2.8016-7.6795-5.4112-5.43431-5.0763-10.91637-13.5301-11.17442-27.1571h77.98122c-.258 13.627-5.7402 22.0808-11.1745 27.1571-2.7937 2.6096-5.5876 4.3374-7.6796 5.4112-1.0453.5366-1.9129.9086-2.5143 1.145-.3006.1182-.5343.2023-.6902.2561z"/><path d="m24 69h32v9h-32z"/><circle cx="72" cy="68" fill="#e4dcd3" r="19"/></g><path d="m65 69.37h2.4v2.64h-2.4v1.44h2.4v4.95h1.5v-4.95h8.88v-1.44h-8.88v-2.64h5.4c4.32 0 6.63-2.19 6.63-5.67s-2.31-5.7-6.63-5.7h-6.9v9.93h-2.4zm3.9-1.44v-8.49h5.31c3.66 0 5.16 1.62 5.16 4.26s-1.5 4.23-5.16 4.23z" fill="#666"/></svg>