<svg fill="none" height="82" viewBox="0 0 82 82" width="82" xmlns="http://www.w3.org/2000/svg"><g stroke="#666" stroke-width="2"><path d="m27.8824 52h-26.8824v-51l80 .00001v50.99999h-26.8824"/><path d="m51.4117 81.6078v-11.6078c0-4.4183-3.5817-8-8-8h-4.3922c-4.4182 0-8 3.5817-8 8v11.6078"/><circle cx="41" cy="52" r="5"/></g><g fill="#666"><path d="m16.0547 35.5098h13.8353v-1.5059h-12.2667v-8.502h10.8863v-1.5058h-10.8863v-8.3138h12.2667v-1.5058h-13.8353z"/><path d="m33.9941 35.5098h1.5059v-10.3843c.5961-1.9765 2.5098-3.6706 5.2392-3.6706 3.0118 0 4.8628 1.851 4.8628 5.4274v8.6275h1.5059v-8.7843c0-4.4236-2.4157-6.7765-6.3059-6.7765-2.7608 0-4.5177 1.5373-5.302 2.8549v-2.5412h-1.5059z"/><path d="m58.1922 35.1961c2.3216 0 4.1412-1.0353 5.3961-2.7608v1.7882c0 3.9843-2.4157 6.2118-5.5843 6.2118-2.2902 0-4.4236-1.0353-5.553-3.1373l-1.2549.8785c1.3804 2.5411 3.8902 3.7647 6.8392 3.7647 3.8275 0 7.0589-2.7922 7.0589-7.7177v-13.9608h-1.5059v2.4471c-1.2549-1.7255-3.0745-2.7608-5.3961-2.7608-4.3294 0-7.3412 3.1686-7.3412 7.6235s3.0118 7.6236 7.3412 7.6236zm.0314-1.5059c-3.3569 0-5.804-2.5098-5.804-6.1177 0-3.6078 2.4471-6.1176 5.804-6.1176 2.5098 0 4.4862 1.4117 5.3647 3.451v5.3647c-.8785 2.0078-2.8549 3.4196-5.3647 3.4196z"/></g></svg>