<svg fill="none" height="69" viewBox="0 0 93 69" width="93" xmlns="http://www.w3.org/2000/svg"><g stroke="#666" stroke-width="2"><rect height="58" rx="7" width="15" x="11" y="1"/><rect height="58" rx="7" width="15" x="54" y="1"/><path d="m1 18c0-3.866 3.13401-7 7-7h3v38h-3c-3.86599 0-7-3.134-7-7z"/><path d="m79 42c0 3.866-3.134 7-7 7h-3v-38h3c3.866 0 7 3.134 7 7z"/><path d="m26 22h28v15h-28z"/><circle cx="73" cy="49" fill="#e4dcd3" r="19"/></g><path d="m66 50.37h2.4v2.64h-2.4v1.44h2.4v4.95h1.5v-4.95h8.88v-1.44h-8.88v-2.64h5.4c4.32 0 6.63-2.19 6.63-5.67s-2.31-5.7-6.63-5.7h-6.9v9.93h-2.4zm3.9-1.44v-8.49h5.31c3.66 0 5.16 1.62 5.16 4.26s-1.5 4.23-5.16 4.23z" fill="#666"/></svg>