<svg fill="none" height="94" viewBox="0 0 78 94" width="78" xmlns="http://www.w3.org/2000/svg"><g stroke="#666" stroke-width="2"><path d="m1 24c0-12.7026 10.2975-23 23-23h3c1.6569 0 3 1.34315 3 3v17c0 1.6569-1.3431 3-3 3h-5.9214c-2.7614 0-4.9999 2.2386-4.9999 5v36c0 2.7614 2.2385 5 5 5h5.9213c1.6569 0 3 1.3431 3 3v17c0 1.6569-1.3431 3-3 3h-3c-12.7025 0-23-10.2974-23-23z"/><path d="m65 40h12v14h-12-1v1 12h-14v-12-1h-1-12v-14h12 1v-1-12h14v12 1z"/><path d="m22 24v-23"/><path d="m22 93v-23"/></g></svg>