<svg fill="none" height="32" viewBox="0 0 32 32" width="32" xmlns="http://www.w3.org/2000/svg" xmlns:xlink="http://www.w3.org/1999/xlink"><clipPath id="a"><path d="m0 0h32v32h-32z"/></clipPath><g clip-path="url(#a)" stroke="#666" stroke-width="2"><path d="m16 1v26"/><path d="m24 31h-16"/><path d="m20 27h-8"/><path d="m26 1h-20"/><path d="m7 20c2.76142 0 5-2.2386 5-5v-1h-10v1c0 2.7614 2.23858 5 5 5z"/><path d="m25 20c2.7614 0 5-2.2386 5-5v-1h-10v1c0 2.7614 2.2386 5 5 5z"/><path d="m19 14h12"/><g stroke-linejoin="bevel"><path d="m3 14 4-14 4 14"/><path d="m21 14 4-14 4 14"/></g></g></svg>