<svg fill="none" height="87" viewBox="0 0 92 87" width="92" xmlns="http://www.w3.org/2000/svg"><g stroke="#666" stroke-width="2"><path d="m26 67v1h1 4 1v-1-21h14c5.6788 0 10.196-1.5464 13.3031-4.3944 3.117-2.8572 4.6969-6.9167 4.6969-11.6938 0-4.7783-1.5809-8.7972-4.7031-11.6112-3.1093-2.8023-7.6256-4.3006-13.2969-4.3006h-19-1v1zm6-27v-20h14c4.5468 0 7.5154.9675 9.3453 2.5938 1.8049 1.604 2.6802 4.0106 2.6802 7.318 0 3.308-.876 5.7645-2.6889 7.414-1.8321 1.6669-4.7995 2.6742-9.3366 2.6742z"/><rect height="78" rx="7" width="78" x="1" y="1"/><rect height="68" rx="7" width="68" x="6" y="6"/><circle cx="72" cy="67" fill="#e4dcd3" r="19"/></g><path d="m65 68.37h2.4v2.64h-2.4v1.44h2.4v4.95h1.5v-4.95h8.88v-1.44h-8.88v-2.64h5.4c4.32 0 6.63-2.19 6.63-5.67s-2.31-5.7-6.63-5.7h-6.9v9.93h-2.4zm3.9-1.44v-8.49h5.31c3.66 0 5.16 1.62 5.16 4.26s-1.5 4.23-5.16 4.23z" fill="#666"/></svg>