<svg fill="none" height="80" viewBox="0 0 61 80" width="61" xmlns="http://www.w3.org/2000/svg"><g stroke="#666" stroke-width="2"><path d="m5.5 80v-22.6712c0-.5523-.44772-1-1-1h-2.5c-.55228 0-1-.4477-1-1v-15.3288c0-4.4183 3.58172-8 8-8h1"/><path d="m24.4706 80v-25.1728c0-.5523-.4477-1-1-1h-4.4706c-.5523 0-1-.4478-1-1v-17.8272c0-4.4183 3.5817-8 8-8h3"/><path d="m44.0588 80v-27.5275c0-.5523-.4477-1-1-1h-5.0588c-.5523 0-1-.4477-1-1v-21.4725c0-4.4183 3.5817-8 8-8h4"/><path d="m53.5294 80v-27.5275c0-.5523.4477-1 1-1h4.4706c.5523 0 1-.4477 1-1v-21.4725c0-4.4183-3.5817-8-8-8h-3"/><circle cx="10" cy="22" r="4"/><circle cx="29" cy="16" r="5"/><circle cx="49" cy="8" r="7"/></g></svg>